G04*
G04 #@! TF.GenerationSoftware,Altium Limited,Altium Designer,18.0.9 (584)*
G04*
G04 Layer_Color=8421504*
%FSLAX25Y25*%
%MOIN*%
G70*
G01*
G75*
%ADD16R,0.01575X0.01575*%
%ADD17R,0.08622X0.06299*%
%ADD18R,0.03543X0.02756*%
%ADD19R,0.03543X0.02362*%
%ADD20R,0.02362X0.01968*%
%ADD21R,0.04800X0.02000*%
%ADD22R,0.02756X0.03543*%
%ADD23R,0.04400X0.01400*%
%ADD24R,0.01968X0.02362*%
%ADD25R,0.03937X0.02362*%
%ADD26R,0.07800X0.02100*%
%ADD27R,0.03937X0.05906*%
%ADD28R,0.01102X0.03347*%
%ADD29R,0.03347X0.01102*%
%ADD30R,0.16142X0.16142*%
%ADD31R,0.03600X0.04800*%
D16*
X188066Y188840D02*
D03*
X182554D02*
D03*
D17*
X208702Y177580D02*
D03*
X172560D02*
D03*
X208571Y122500D02*
D03*
X172429D02*
D03*
D18*
X206941Y134000D02*
D03*
X212059D02*
D03*
X207000Y144000D02*
D03*
X212118D02*
D03*
X206941Y139000D02*
D03*
X212059D02*
D03*
X159500Y195500D02*
D03*
X164618D02*
D03*
X128941Y133000D02*
D03*
X134059D02*
D03*
D19*
X208000Y149744D02*
D03*
Y155256D02*
D03*
X213500Y149744D02*
D03*
Y155256D02*
D03*
D20*
X208000Y160031D02*
D03*
Y163969D02*
D03*
X213500Y160031D02*
D03*
Y163969D02*
D03*
D21*
X184000Y102800D02*
D03*
Y106500D02*
D03*
Y110200D02*
D03*
X192800D02*
D03*
Y106500D02*
D03*
Y102800D02*
D03*
D22*
X134500Y115000D02*
D03*
Y109882D02*
D03*
X102000Y132559D02*
D03*
Y127441D02*
D03*
X106000Y132618D02*
D03*
Y127500D02*
D03*
D23*
X158500Y191000D02*
D03*
Y188400D02*
D03*
Y185800D02*
D03*
X166100D02*
D03*
Y188400D02*
D03*
Y191000D02*
D03*
D24*
X164500Y146500D02*
D03*
X160563D02*
D03*
X169063Y196000D02*
D03*
X173000D02*
D03*
X133500Y121000D02*
D03*
X129563D02*
D03*
D25*
X128913Y114240D02*
D03*
Y106760D02*
D03*
X118087D02*
D03*
Y110500D02*
D03*
Y114240D02*
D03*
X122413Y132740D02*
D03*
Y125260D02*
D03*
X111587D02*
D03*
Y129000D02*
D03*
Y132740D02*
D03*
D26*
X142300Y130500D02*
D03*
Y125500D02*
D03*
Y120500D02*
D03*
Y115500D02*
D03*
X161700D02*
D03*
Y120500D02*
D03*
Y125500D02*
D03*
Y130500D02*
D03*
D27*
X106331Y140441D02*
D03*
X112236D02*
D03*
X118142D02*
D03*
X124047D02*
D03*
X129953D02*
D03*
X135858D02*
D03*
X141764D02*
D03*
X147669D02*
D03*
Y195559D02*
D03*
X141764D02*
D03*
X135858D02*
D03*
X129953D02*
D03*
X124047D02*
D03*
X118142D02*
D03*
X112236D02*
D03*
X106331D02*
D03*
D28*
X194827Y166181D02*
D03*
X192858D02*
D03*
X190890D02*
D03*
X188921D02*
D03*
X186953D02*
D03*
X184984D02*
D03*
X183016D02*
D03*
X181047D02*
D03*
X179079D02*
D03*
X177110D02*
D03*
X175142D02*
D03*
X173173D02*
D03*
Y138819D02*
D03*
X175142D02*
D03*
X177110D02*
D03*
X179079D02*
D03*
X181047D02*
D03*
X183016D02*
D03*
X184984D02*
D03*
X186953D02*
D03*
X188921D02*
D03*
X190890D02*
D03*
X192858D02*
D03*
X194827D02*
D03*
D29*
X170319Y163327D02*
D03*
Y161358D02*
D03*
Y159390D02*
D03*
Y157421D02*
D03*
Y155453D02*
D03*
Y153484D02*
D03*
Y151516D02*
D03*
Y149547D02*
D03*
Y147579D02*
D03*
Y145610D02*
D03*
Y143642D02*
D03*
Y141673D02*
D03*
X197681D02*
D03*
Y143642D02*
D03*
Y145610D02*
D03*
Y147579D02*
D03*
Y149547D02*
D03*
Y151516D02*
D03*
Y153484D02*
D03*
Y155453D02*
D03*
Y157421D02*
D03*
Y159390D02*
D03*
Y161358D02*
D03*
Y163327D02*
D03*
D30*
X184000Y152500D02*
D03*
D31*
X190950Y194000D02*
D03*
X178050D02*
D03*
M02*
