G04*
G04 #@! TF.GenerationSoftware,Altium Limited,Altium Designer,18.0.9 (584)*
G04*
G04 Layer_Color=8388736*
%FSLAX25Y25*%
%MOIN*%
G70*
G01*
G75*
%ADD29R,0.02559X0.02953*%
%ADD30R,0.02953X0.02559*%
%ADD31R,0.04134X0.03347*%
%ADD32R,0.09213X0.06890*%
%ADD33R,0.04191X0.05391*%
%ADD34R,0.04134X0.02953*%
%ADD35R,0.03347X0.04134*%
%ADD36R,0.05391X0.02591*%
%ADD37O,0.04331X0.02756*%
%ADD38R,0.04528X0.02953*%
%ADD39R,0.04528X0.06496*%
%ADD40R,0.16732X0.16732*%
%ADD41R,0.03937X0.01693*%
%ADD42R,0.01693X0.03937*%
%ADD43C,0.04528*%
%ADD44R,0.04528X0.04528*%
%ADD45C,0.06496*%
%ADD46R,0.06496X0.06496*%
%ADD47R,0.06496X0.06496*%
%ADD48C,0.03591*%
D29*
X185869Y110710D02*
D03*
X181931D02*
D03*
X186623Y192880D02*
D03*
X190560D02*
D03*
X190508Y197600D02*
D03*
X186572D02*
D03*
X205101Y144240D02*
D03*
X209038D02*
D03*
X165043Y104380D02*
D03*
X168980D02*
D03*
X186623Y188340D02*
D03*
X190560D02*
D03*
X138940Y108450D02*
D03*
X142877D02*
D03*
X138792Y104080D02*
D03*
X142728D02*
D03*
D30*
X170680Y108932D02*
D03*
Y112868D02*
D03*
X161470Y121492D02*
D03*
Y125428D02*
D03*
X214280Y187299D02*
D03*
Y183361D02*
D03*
X214200Y139962D02*
D03*
Y143898D02*
D03*
X165710Y111132D02*
D03*
Y115068D02*
D03*
D31*
X176071Y104760D02*
D03*
X181189D02*
D03*
X213020Y178600D02*
D03*
X207902D02*
D03*
X212159Y163470D02*
D03*
X207041D02*
D03*
X212400Y131570D02*
D03*
X207282D02*
D03*
X191819Y183420D02*
D03*
X186701D02*
D03*
X163550Y132420D02*
D03*
X158432D02*
D03*
X207211Y135350D02*
D03*
X212329D02*
D03*
D32*
X208230Y172620D02*
D03*
X172088D02*
D03*
X171919Y121990D02*
D03*
X208061D02*
D03*
D33*
X209550Y185210D02*
D03*
X196650D02*
D03*
D34*
X207700Y148544D02*
D03*
Y154056D02*
D03*
X213900Y148624D02*
D03*
Y154136D02*
D03*
D35*
X192330Y109899D02*
D03*
Y104781D02*
D03*
X128500Y132559D02*
D03*
Y127441D02*
D03*
X134440Y125941D02*
D03*
Y131059D02*
D03*
X106000Y132000D02*
D03*
Y126882D02*
D03*
D36*
X127560Y111540D02*
D03*
Y107840D02*
D03*
Y104140D02*
D03*
X118760D02*
D03*
Y107840D02*
D03*
Y111540D02*
D03*
D37*
X159253Y104800D02*
D03*
Y108540D02*
D03*
Y112280D02*
D03*
X148427Y104800D02*
D03*
Y108540D02*
D03*
Y112280D02*
D03*
D38*
X152163Y130830D02*
D03*
Y123350D02*
D03*
X141337D02*
D03*
Y127090D02*
D03*
Y130830D02*
D03*
X122413Y132740D02*
D03*
Y125260D02*
D03*
X111587D02*
D03*
Y129000D02*
D03*
Y132740D02*
D03*
D39*
X106331Y195559D02*
D03*
X112236D02*
D03*
X118142D02*
D03*
X124047D02*
D03*
X129953D02*
D03*
X135858D02*
D03*
X141764D02*
D03*
X147669D02*
D03*
Y140441D02*
D03*
X141764D02*
D03*
X135858D02*
D03*
X129953D02*
D03*
X124047D02*
D03*
X118142D02*
D03*
X112236D02*
D03*
X106331D02*
D03*
D40*
X185910Y148680D02*
D03*
D41*
X199591Y159507D02*
D03*
Y157538D02*
D03*
Y155570D02*
D03*
Y153601D02*
D03*
Y151633D02*
D03*
Y149664D02*
D03*
Y147696D02*
D03*
Y145727D02*
D03*
Y143759D02*
D03*
Y141790D02*
D03*
Y139822D02*
D03*
Y137853D02*
D03*
X172229D02*
D03*
Y139822D02*
D03*
Y141790D02*
D03*
Y143759D02*
D03*
Y145727D02*
D03*
Y147696D02*
D03*
Y149664D02*
D03*
Y151633D02*
D03*
Y153601D02*
D03*
Y155570D02*
D03*
Y157538D02*
D03*
Y159507D02*
D03*
D42*
X196737Y134999D02*
D03*
X194768D02*
D03*
X192800D02*
D03*
X190831D02*
D03*
X188863D02*
D03*
X186894D02*
D03*
X184926D02*
D03*
X182957D02*
D03*
X180989D02*
D03*
X179020D02*
D03*
X177052D02*
D03*
X175083D02*
D03*
Y162361D02*
D03*
X177052D02*
D03*
X179020D02*
D03*
X180989D02*
D03*
X182957D02*
D03*
X184926D02*
D03*
X186894D02*
D03*
X188863D02*
D03*
X190831D02*
D03*
X192800D02*
D03*
X194768D02*
D03*
X196737D02*
D03*
D43*
X159400Y154750D02*
D03*
Y149750D02*
D03*
Y144750D02*
D03*
X159420Y163540D02*
D03*
D44*
X159400Y139750D02*
D03*
X159420Y168540D02*
D03*
D45*
X210810Y195150D02*
D03*
X200100Y107370D02*
D03*
X107520Y116850D02*
D03*
D46*
X200810Y195150D02*
D03*
X210100Y107370D02*
D03*
D47*
X107520Y106850D02*
D03*
D48*
X137507Y119520D02*
D03*
X146050Y121060D02*
D03*
X129270Y114780D02*
D03*
X174220Y115640D02*
D03*
X205890Y158340D02*
D03*
X201440Y168130D02*
D03*
X201240Y133820D02*
D03*
X181905Y117835D02*
D03*
X189830Y170260D02*
D03*
X186070Y172920D02*
D03*
X179920Y171900D02*
D03*
X194060Y170080D02*
D03*
X161590Y116540D02*
D03*
X178940Y128570D02*
D03*
X205680Y140410D02*
D03*
X199310Y179370D02*
D03*
X167160Y137210D02*
D03*
X210430Y140470D02*
D03*
X157016Y126574D02*
D03*
X171410Y131320D02*
D03*
X149250Y159140D02*
D03*
X167570Y188280D02*
D03*
X134710Y182980D02*
D03*
X135230Y187030D02*
D03*
X116390Y115420D02*
D03*
M02*
