G04*
G04 #@! TF.GenerationSoftware,Altium Limited,Altium Designer,18.0.9 (584)*
G04*
G04 Layer_Physical_Order=1*
G04 Layer_Color=255*
%FSLAX25Y25*%
%MOIN*%
G70*
G01*
G75*
%ADD12C,0.01000*%
%ADD15R,0.01968X0.02362*%
%ADD16R,0.02362X0.01968*%
%ADD17R,0.03543X0.02756*%
%ADD18R,0.08622X0.06299*%
%ADD19R,0.03600X0.04800*%
%ADD20R,0.03543X0.02362*%
%ADD21R,0.02756X0.03543*%
%ADD22R,0.04800X0.02000*%
%ADD23O,0.03740X0.02165*%
%ADD24R,0.03937X0.02362*%
%ADD25R,0.03937X0.05906*%
%ADD26R,0.16142X0.16142*%
%ADD27R,0.03347X0.01102*%
%ADD28R,0.01102X0.03347*%
%ADD49C,0.01200*%
%ADD50C,0.03937*%
%ADD51R,0.03937X0.03937*%
%ADD52C,0.05906*%
%ADD53R,0.05906X0.05906*%
%ADD54R,0.05906X0.05906*%
%ADD55C,0.03000*%
G36*
X213866Y198856D02*
X214407Y198633D01*
X214894Y198307D01*
X215307Y197894D01*
X215633Y197407D01*
X215857Y196867D01*
X215971Y196293D01*
Y188883D01*
X212499D01*
Y187267D01*
X212350Y187154D01*
X211950Y187353D01*
Y188210D01*
X207150D01*
Y184396D01*
X207109Y184355D01*
X207109Y184355D01*
X201793Y179039D01*
X201425Y179236D01*
X201451Y179370D01*
X201288Y180189D01*
X200824Y180884D01*
X200129Y181348D01*
X199710Y181432D01*
Y179370D01*
X198910D01*
Y181432D01*
X198491Y181348D01*
X197796Y180884D01*
X197534Y180492D01*
X191216D01*
X190635Y181072D01*
X190788Y181442D01*
X194191D01*
Y181834D01*
X194250Y182210D01*
X199050D01*
Y188210D01*
X195236D01*
X194313Y189133D01*
X193949Y189376D01*
X193520Y189462D01*
X193520Y189462D01*
X192144D01*
Y190121D01*
X188976D01*
Y188096D01*
X188606Y187943D01*
X188207Y188342D01*
Y190121D01*
X187744D01*
Y191099D01*
X188207D01*
Y194661D01*
X185039D01*
Y191099D01*
X185501D01*
Y190121D01*
X185039D01*
Y186559D01*
X186818D01*
X187609Y185767D01*
X187456Y185398D01*
X187101D01*
Y183420D01*
Y181434D01*
X189958Y178577D01*
X189958Y178577D01*
X190322Y178334D01*
X190751Y178249D01*
X197534D01*
X197796Y177856D01*
X198491Y177392D01*
X199310Y177229D01*
X199444Y177255D01*
X199641Y176887D01*
X195944Y173190D01*
X195701Y172826D01*
X195615Y172397D01*
X195615Y172397D01*
Y172047D01*
X195215Y171834D01*
X194879Y172058D01*
X194060Y172221D01*
X193241Y172058D01*
X192546Y171594D01*
X192213Y171095D01*
X192044Y171089D01*
X191765Y171145D01*
X191344Y171774D01*
X190649Y172238D01*
X189830Y172401D01*
X189011Y172238D01*
X188316Y171774D01*
X187852Y171079D01*
X187689Y170260D01*
X187808Y169660D01*
X187741Y169323D01*
X187741Y169323D01*
Y167421D01*
X187341Y167255D01*
X185542Y169055D01*
Y170476D01*
X185942Y170804D01*
X186070Y170779D01*
X186889Y170942D01*
X187584Y171406D01*
X188048Y172101D01*
X188211Y172920D01*
X188048Y173739D01*
X187584Y174434D01*
X186889Y174898D01*
X186070Y175061D01*
X185251Y174898D01*
X184556Y174434D01*
X184092Y173739D01*
X183929Y172920D01*
X184021Y172457D01*
X183627Y172063D01*
X183384Y171699D01*
X183298Y171270D01*
X183299Y171270D01*
Y168590D01*
X183298Y168590D01*
X183384Y168161D01*
X183627Y167797D01*
X185773Y165651D01*
Y164634D01*
X184079D01*
Y166293D01*
X184079Y166293D01*
X183993Y166722D01*
X183750Y167086D01*
X182682Y168155D01*
Y170260D01*
X182682Y170260D01*
X182596Y170689D01*
X182353Y171053D01*
X181969Y171437D01*
X182061Y171900D01*
X181898Y172719D01*
X181434Y173414D01*
X180739Y173878D01*
X179920Y174041D01*
X179101Y173878D01*
X178406Y173414D01*
X177942Y172719D01*
X177779Y171900D01*
X177942Y171081D01*
X178406Y170386D01*
X179101Y169922D01*
X179920Y169759D01*
X180038Y169782D01*
X180438Y169454D01*
Y167690D01*
X180438Y167690D01*
X180524Y167261D01*
X180767Y166897D01*
X181836Y165828D01*
Y164634D01*
X180142D01*
Y166340D01*
X180142Y166340D01*
X180056Y166769D01*
X179813Y167133D01*
X179813Y167133D01*
X178813Y168133D01*
X178449Y168377D01*
X178020Y168462D01*
X178020Y168462D01*
X168105D01*
X168099Y168470D01*
X168313Y168870D01*
X176999D01*
Y176370D01*
X170165D01*
X168692Y177843D01*
Y186504D01*
X169084Y186766D01*
X169548Y187461D01*
X169711Y188280D01*
X169548Y189099D01*
X169084Y189794D01*
X168389Y190258D01*
X167570Y190421D01*
X166751Y190258D01*
X166056Y189794D01*
X165592Y189099D01*
X165429Y188280D01*
X165592Y187461D01*
X166056Y186766D01*
X166448Y186504D01*
Y177378D01*
X166448Y177378D01*
X166534Y176949D01*
X166777Y176585D01*
X167177Y176185D01*
Y169772D01*
X166777Y169576D01*
X166609Y169705D01*
Y170228D01*
X166609Y170228D01*
X166524Y170657D01*
X166281Y171021D01*
X164882Y172420D01*
X164882Y172420D01*
X162008Y175293D01*
X161645Y175536D01*
X161215Y175622D01*
X161215Y175622D01*
X144737D01*
X144737Y175622D01*
X144308Y175536D01*
X143944Y175293D01*
X139007Y170356D01*
X138764Y169992D01*
X138678Y169563D01*
X138678Y169563D01*
Y154665D01*
X134635Y150622D01*
X131000D01*
X131000Y150622D01*
X130571Y150536D01*
X130207Y150293D01*
X130207Y150293D01*
X128535Y148622D01*
X124947D01*
Y181929D01*
X124969Y181949D01*
X125347Y182107D01*
X125591Y181944D01*
X126020Y181858D01*
X126020Y181858D01*
X132934D01*
X133196Y181466D01*
X133891Y181002D01*
X134710Y180839D01*
X135529Y181002D01*
X136224Y181466D01*
X136688Y182161D01*
X136851Y182980D01*
X136688Y183799D01*
X136224Y184494D01*
X135975Y184660D01*
X136079Y185072D01*
X136744Y185516D01*
X137208Y186211D01*
X137371Y187030D01*
X137208Y187849D01*
X136744Y188544D01*
X136049Y189008D01*
X135230Y189171D01*
X134411Y189008D01*
X133716Y188544D01*
X133454Y188152D01*
X127935D01*
X125169Y190917D01*
Y192006D01*
X126616D01*
Y198971D01*
X127384D01*
Y192006D01*
X132521D01*
Y198971D01*
X133290D01*
Y192006D01*
X138427D01*
Y198971D01*
X139195D01*
Y192006D01*
X144332D01*
Y198971D01*
X145101D01*
Y192006D01*
X150238D01*
Y198971D01*
X184987D01*
Y198000D01*
X188156D01*
Y198971D01*
X188924D01*
Y195819D01*
X189438D01*
Y194661D01*
X188976D01*
Y191099D01*
X192144D01*
Y192878D01*
X193295Y194028D01*
X197257D01*
Y191597D01*
X204363D01*
Y198703D01*
X204652Y198971D01*
X209705D01*
X209784Y198571D01*
X209018Y198253D01*
X208276Y197684D01*
X207707Y196942D01*
X207349Y196077D01*
X207227Y195150D01*
X207349Y194223D01*
X207707Y193358D01*
X208276Y192616D01*
X209018Y192047D01*
X209882Y191689D01*
X210810Y191567D01*
X211737Y191689D01*
X212602Y192047D01*
X213344Y192616D01*
X213913Y193358D01*
X214271Y194223D01*
X214393Y195150D01*
X214271Y196077D01*
X213913Y196942D01*
X213344Y197684D01*
X212602Y198253D01*
X211836Y198571D01*
X211915Y198971D01*
X213000D01*
X213293Y198971D01*
X213866Y198856D01*
D02*
G37*
G36*
X212430Y183762D02*
X214280D01*
Y183361D01*
X214680D01*
Y181777D01*
X215971D01*
Y155917D01*
X214300D01*
Y154136D01*
Y152355D01*
X215971D01*
Y150405D01*
X211528D01*
Y146843D01*
X213078D01*
Y145483D01*
X212419D01*
Y142314D01*
X215971D01*
Y141546D01*
X212419D01*
X212102Y141747D01*
X211944Y141984D01*
X211249Y142448D01*
X210623Y142573D01*
Y146021D01*
X210160D01*
Y147206D01*
X210075Y147635D01*
X210072Y147639D01*
Y150325D01*
X205328D01*
Y146763D01*
X207895D01*
X207917Y146741D01*
Y146021D01*
X207454D01*
Y142459D01*
X208907D01*
X209028Y142059D01*
X208916Y141984D01*
X208452Y141289D01*
X208289Y140470D01*
X208452Y139651D01*
X208916Y138956D01*
X209611Y138492D01*
X210430Y138329D01*
X211249Y138492D01*
X211770Y138840D01*
X212419D01*
Y138377D01*
X215971D01*
Y104500D01*
Y104207D01*
X215857Y103633D01*
X215633Y103093D01*
X215307Y102606D01*
X214894Y102193D01*
X214407Y101867D01*
X213866Y101644D01*
X213293Y101529D01*
X191187D01*
X191034Y101899D01*
X191544Y102409D01*
X194308D01*
Y103659D01*
X197511D01*
X197511Y103659D01*
X197940Y103745D01*
X198304Y103988D01*
X198502Y104186D01*
X199173Y103909D01*
X200100Y103787D01*
X201027Y103909D01*
X201892Y104267D01*
X202634Y104836D01*
X203203Y105578D01*
X203561Y106443D01*
X203683Y107370D01*
X203561Y108298D01*
X203203Y109162D01*
X202634Y109904D01*
X201892Y110473D01*
X201027Y110831D01*
X200100Y110953D01*
X199173Y110831D01*
X198308Y110473D01*
X197566Y109904D01*
X196997Y109162D01*
X196639Y108298D01*
X196517Y107370D01*
X196639Y106443D01*
X196725Y106235D01*
X196502Y105903D01*
X194308D01*
Y107127D01*
X194308Y107153D01*
Y107527D01*
X194308Y107553D01*
Y109499D01*
X190352D01*
Y107553D01*
X190352Y107527D01*
Y107153D01*
X190352Y107127D01*
Y104389D01*
X189084Y103121D01*
X183561D01*
Y106738D01*
X183253D01*
X182972Y107023D01*
X183000Y108929D01*
X183516D01*
Y112491D01*
X183026D01*
Y116058D01*
X183419Y116321D01*
X183883Y117015D01*
X184046Y117835D01*
X183883Y118654D01*
X183419Y119349D01*
X182724Y119813D01*
X181905Y119976D01*
X181085Y119813D01*
X180391Y119349D01*
X179927Y118654D01*
X179763Y117835D01*
X179856Y117372D01*
X172861Y110377D01*
X172461Y110516D01*
Y110516D01*
X168899D01*
Y107347D01*
X172461D01*
Y107810D01*
X173001D01*
X173002Y107810D01*
X173431Y107895D01*
X173795Y108138D01*
X180414Y114757D01*
X180783Y114604D01*
Y112491D01*
X180347D01*
Y108929D01*
X180472D01*
X180752Y108644D01*
X180726Y106866D01*
X180594Y106738D01*
X178817D01*
Y106738D01*
X178443D01*
Y106738D01*
X176471D01*
Y104760D01*
X176071D01*
Y104360D01*
X173699D01*
Y103121D01*
X170564D01*
Y103980D01*
X168980D01*
X167396D01*
Y103121D01*
X166627D01*
Y106161D01*
X163459D01*
Y105921D01*
X161315D01*
X161254Y106013D01*
X160697Y106385D01*
X160290Y106466D01*
Y106874D01*
X160697Y106955D01*
X161254Y107327D01*
X161315Y107419D01*
X163119D01*
X163119Y107418D01*
X163548Y107504D01*
X163912Y107747D01*
X165712Y109547D01*
X167491D01*
Y112716D01*
X163929D01*
Y110936D01*
X162654Y109662D01*
X161315D01*
X161254Y109753D01*
X160697Y110125D01*
X160290Y110206D01*
Y110614D01*
X160697Y110695D01*
X161254Y111067D01*
X161626Y111624D01*
X161756Y112280D01*
X161626Y112937D01*
X161254Y113493D01*
X160919Y113717D01*
X160848Y114212D01*
X161127Y114491D01*
X161590Y114399D01*
X162409Y114562D01*
X163104Y115026D01*
X163529Y115662D01*
X163776Y115648D01*
X163929Y115595D01*
Y115469D01*
X165310D01*
Y116653D01*
X164117D01*
X163929Y116653D01*
X163652Y116938D01*
X163568Y117359D01*
X163104Y118054D01*
X162409Y118518D01*
X161590Y118681D01*
X160771Y118518D01*
X160076Y118054D01*
X159974Y117902D01*
X140430D01*
X140430Y117902D01*
X140001Y117816D01*
X139637Y117573D01*
X139637Y117573D01*
X138147Y116083D01*
X137904Y115719D01*
X137818Y115290D01*
X137819Y115290D01*
Y110231D01*
X137356D01*
Y106669D01*
X140524D01*
Y110231D01*
X140062D01*
Y114825D01*
X140895Y115658D01*
X158600D01*
X158753Y115289D01*
X158437Y114973D01*
X158194Y114609D01*
X158108Y114180D01*
X157818Y113867D01*
X157809Y113865D01*
X157253Y113493D01*
X156881Y112937D01*
X156750Y112280D01*
X156881Y111624D01*
X157253Y111067D01*
X157809Y110695D01*
X158217Y110614D01*
Y110206D01*
X157809Y110125D01*
X157253Y109753D01*
X156881Y109197D01*
X156750Y108540D01*
X156881Y107883D01*
X157253Y107327D01*
X157809Y106955D01*
X158217Y106874D01*
Y106466D01*
X157809Y106385D01*
X157253Y106013D01*
X156881Y105456D01*
X156750Y104800D01*
X156869Y104203D01*
X156731Y104066D01*
X156539Y103967D01*
X153932Y106574D01*
Y109840D01*
X153846Y110269D01*
X153603Y110633D01*
X153603Y110633D01*
X151163Y113073D01*
X150799Y113316D01*
X150506Y113374D01*
X150427Y113493D01*
X149871Y113865D01*
X149214Y113996D01*
X147639D01*
X146983Y113865D01*
X146426Y113493D01*
X146054Y112937D01*
X145924Y112280D01*
X146054Y111624D01*
X146426Y111067D01*
X146983Y110695D01*
X147390Y110614D01*
Y110206D01*
X146983Y110125D01*
X146426Y109753D01*
X146054Y109197D01*
X146003Y108940D01*
X148427D01*
X150850D01*
X150799Y109197D01*
X150427Y109753D01*
X149871Y110125D01*
X149463Y110206D01*
Y110614D01*
X149871Y110695D01*
X150169Y110895D01*
X151689Y109375D01*
Y106110D01*
X151689Y106110D01*
X151774Y105681D01*
X152017Y105317D01*
X155435Y101899D01*
X155282Y101529D01*
X123214D01*
X123061Y101899D01*
X123833Y102671D01*
X123833Y102671D01*
X124076Y103035D01*
X124162Y103464D01*
X124560Y103461D01*
Y102540D01*
X130560D01*
Y105740D01*
X124562D01*
X124162Y105744D01*
Y106236D01*
X124560Y106240D01*
Y106240D01*
X130560D01*
Y106719D01*
X131280D01*
X131280Y106718D01*
X131709Y106804D01*
X132073Y107047D01*
X134883Y109857D01*
X135126Y110221D01*
X135212Y110650D01*
X135212Y110650D01*
Y115500D01*
X135212Y115500D01*
X135126Y115929D01*
X134883Y116293D01*
X134883Y116293D01*
X131300Y119877D01*
X131465Y120276D01*
X131530D01*
X131998Y120370D01*
X132395Y120635D01*
X134273Y122512D01*
X134538Y122909D01*
X134631Y123377D01*
Y123569D01*
X136418D01*
Y126189D01*
X138399Y128169D01*
X138768Y128016D01*
Y127490D01*
X141337D01*
Y126690D01*
X138768D01*
Y125531D01*
X138768Y125309D01*
X138768Y124909D01*
Y122367D01*
X137970Y121569D01*
X137507Y121661D01*
X136687Y121498D01*
X135993Y121034D01*
X135529Y120339D01*
X135454Y119965D01*
X135444Y119949D01*
X135358Y119520D01*
X135444Y119091D01*
X135454Y119075D01*
X135529Y118701D01*
X135993Y118006D01*
X136687Y117542D01*
X137507Y117379D01*
X138326Y117542D01*
X139021Y118006D01*
X139485Y118701D01*
X139648Y119520D01*
X139556Y119983D01*
X141142Y121569D01*
X143602D01*
X143933Y121180D01*
X143909Y121060D01*
X144072Y120241D01*
X144536Y119546D01*
X145231Y119082D01*
X146050Y118919D01*
X146869Y119082D01*
X147564Y119546D01*
X148028Y120241D01*
X148191Y121060D01*
X148028Y121879D01*
X147564Y122574D01*
X147274Y122768D01*
Y129690D01*
X147180Y130158D01*
X146915Y130555D01*
X145775Y131695D01*
X145378Y131961D01*
X144910Y132054D01*
X143905D01*
Y132611D01*
X138768D01*
Y131898D01*
X138464Y131695D01*
X136787Y130019D01*
X136418Y130172D01*
Y130659D01*
X132462D01*
Y128687D01*
X132462D01*
Y128313D01*
X132462D01*
X132462Y128287D01*
Y125743D01*
X132277Y125467D01*
X132184Y124998D01*
Y123884D01*
X131023Y122723D01*
X119977D01*
X117794Y124907D01*
Y130930D01*
X117700Y131398D01*
X117435Y131795D01*
X115625Y133605D01*
X115228Y133871D01*
X114760Y133964D01*
X114155D01*
Y134521D01*
X109018D01*
Y133964D01*
X107978D01*
Y134372D01*
X104022D01*
Y129654D01*
X104022Y129628D01*
Y129253D01*
X104022Y129228D01*
Y127282D01*
X106000D01*
X107978D01*
Y129228D01*
X107978Y129253D01*
Y129628D01*
X107978Y129654D01*
Y131517D01*
X108735D01*
X109018Y131234D01*
Y130959D01*
X109018Y130559D01*
Y129400D01*
X111587D01*
Y128600D01*
X109018D01*
Y127441D01*
X109018Y127219D01*
X109018Y126819D01*
Y123479D01*
X111782D01*
X116823Y118437D01*
X116823Y118437D01*
X117187Y118194D01*
X117616Y118108D01*
X129895D01*
X132968Y115035D01*
Y111115D01*
X130960Y109106D01*
X130560Y109272D01*
Y109440D01*
X126214D01*
X126005Y109840D01*
X126075Y109940D01*
X130560D01*
Y113116D01*
X130784Y113266D01*
X131248Y113961D01*
X131411Y114780D01*
X131248Y115599D01*
X130784Y116294D01*
X130089Y116758D01*
X129270Y116921D01*
X128451Y116758D01*
X127756Y116294D01*
X127292Y115599D01*
X127129Y114780D01*
X127292Y113961D01*
X127573Y113540D01*
X127359Y113140D01*
X124560D01*
Y111846D01*
X122247Y109533D01*
X122160Y109403D01*
X121760Y109440D01*
X121704D01*
X119160D01*
Y107840D01*
Y106240D01*
X121466Y106240D01*
X121610Y105990D01*
X121466Y105740D01*
X119160D01*
Y104140D01*
X118360D01*
Y105740D01*
X115760D01*
Y104293D01*
X115390Y104140D01*
X111887Y107643D01*
X111524Y107886D01*
X111094Y107972D01*
X111073Y108353D01*
Y110403D01*
X103967D01*
Y103297D01*
X111073D01*
Y104763D01*
X111442Y104916D01*
X114459Y101899D01*
X114306Y101529D01*
X103707D01*
X103133Y101644D01*
X102593Y101867D01*
X102106Y102193D01*
X101693Y102606D01*
X101367Y103093D01*
X101144Y103633D01*
X101029Y104207D01*
Y104500D01*
Y139491D01*
X103762D01*
Y136888D01*
X108899D01*
Y139491D01*
X109668D01*
Y136888D01*
X114805D01*
Y139491D01*
X115573D01*
Y136888D01*
X120710D01*
Y139491D01*
X121479D01*
Y136888D01*
X126616D01*
Y143994D01*
X124947D01*
Y146378D01*
X128677D01*
X128831Y146190D01*
X128831Y146190D01*
Y143994D01*
X127384D01*
Y136888D01*
X129135D01*
X129288Y136519D01*
X127700Y134931D01*
X126522D01*
Y133964D01*
X124982D01*
Y134521D01*
X119845D01*
Y130959D01*
X124982D01*
Y131517D01*
X126522D01*
Y130213D01*
X126522Y130187D01*
Y129813D01*
X126522Y129787D01*
Y127841D01*
X128500D01*
X130478D01*
Y129787D01*
X130478Y129813D01*
Y130187D01*
X130478Y130213D01*
Y134248D01*
X131295Y135065D01*
X138324D01*
X138792Y135158D01*
X139189Y135423D01*
X140654Y136888D01*
X144332D01*
Y141423D01*
X144731Y141822D01*
X145101Y141669D01*
Y140841D01*
X147269D01*
Y143994D01*
X146854D01*
X146701Y144363D01*
X155966Y153628D01*
X157084D01*
X157156Y153455D01*
X157568Y152918D01*
X158105Y152506D01*
X158241Y152450D01*
Y152050D01*
X158105Y151994D01*
X157568Y151582D01*
X157156Y151045D01*
X156898Y150420D01*
X156809Y149750D01*
X156898Y149080D01*
X157156Y148455D01*
X157568Y147918D01*
X158105Y147506D01*
X158241Y147450D01*
Y147050D01*
X158105Y146994D01*
X157568Y146582D01*
X157156Y146045D01*
X156898Y145421D01*
X156809Y144750D01*
X156898Y144079D01*
X157156Y143455D01*
X157568Y142918D01*
X157828Y142719D01*
X157693Y142318D01*
X156832D01*
Y140150D01*
X159400D01*
X161969D01*
Y142318D01*
X161108D01*
X160972Y142719D01*
X161232Y142918D01*
X161486Y143249D01*
X161988Y143313D01*
X162467Y142834D01*
Y141389D01*
X162467Y141389D01*
X162467Y141389D01*
Y137084D01*
X162467Y137084D01*
X162553Y136655D01*
X162796Y136291D01*
X164319Y134767D01*
X164166Y134398D01*
X161204D01*
X161178Y134398D01*
Y134398D01*
X160803D01*
Y134398D01*
X158832D01*
Y132420D01*
X158432D01*
Y132020D01*
X156060D01*
Y131651D01*
X155691Y131498D01*
X155566Y131623D01*
X155202Y131866D01*
X154773Y131952D01*
X154732Y132337D01*
Y132611D01*
X149595D01*
Y129049D01*
X152358D01*
X154885Y126522D01*
X155038Y125754D01*
X155502Y125060D01*
X156197Y124595D01*
X157016Y124433D01*
X157836Y124595D01*
X158530Y125060D01*
X158995Y125754D01*
X159158Y126574D01*
X158995Y127393D01*
X158530Y128088D01*
X158032Y128420D01*
X158154Y128821D01*
X161072D01*
X161072Y128821D01*
X161501Y128906D01*
X161865Y129149D01*
X163158Y130442D01*
X164169D01*
X164322Y130072D01*
X163712Y129463D01*
X163672Y129403D01*
X163612Y129363D01*
X161262Y127013D01*
X159689D01*
Y123844D01*
X161754D01*
X161907Y123475D01*
X161508Y123076D01*
X159689D01*
Y119907D01*
X163251D01*
Y121646D01*
X166639Y125034D01*
X167008Y124881D01*
Y122390D01*
X171919D01*
X176830D01*
Y124654D01*
X176996Y124743D01*
X177230Y124828D01*
X177605Y124753D01*
X177605Y124753D01*
X185065D01*
X185065Y124753D01*
X185494Y124839D01*
X185858Y125082D01*
X190085Y129308D01*
X197850D01*
X197850Y129308D01*
X198279Y129394D01*
X198643Y129637D01*
X200777Y131771D01*
X201240Y131679D01*
X202059Y131842D01*
X202754Y132306D01*
X203218Y133001D01*
X203381Y133820D01*
X203218Y134639D01*
X202754Y135334D01*
X202322Y135623D01*
X202276Y135853D01*
X202033Y136217D01*
X202033Y136217D01*
X201976Y136275D01*
X202073Y136622D01*
X202128Y136688D01*
X204286D01*
X204839Y136135D01*
Y133372D01*
X204910D01*
Y129592D01*
X209628D01*
X209653Y129592D01*
X210028D01*
X210053Y129592D01*
X212000D01*
Y131570D01*
X212400D01*
Y131970D01*
X214772D01*
Y133548D01*
X214701D01*
Y134950D01*
X212329D01*
Y135350D01*
X211929D01*
Y137328D01*
X209983D01*
X209957Y137328D01*
X209583D01*
X209557Y137328D01*
X206819D01*
X206145Y138002D01*
X206261Y138384D01*
X206499Y138432D01*
X207194Y138896D01*
X207658Y139591D01*
X207821Y140410D01*
X207658Y141229D01*
X207194Y141924D01*
X206875Y142137D01*
X206686Y142459D01*
Y146021D01*
X203517D01*
Y142459D01*
X203728D01*
Y141269D01*
X203702Y141229D01*
X203539Y140410D01*
X203702Y139591D01*
X203906Y139284D01*
X203718Y138932D01*
X201970D01*
X201970Y138932D01*
X201875Y139266D01*
X201864Y139323D01*
Y144576D01*
Y145327D01*
X199591D01*
X197318D01*
Y144576D01*
Y142608D01*
Y140639D01*
Y138671D01*
Y137272D01*
X197137D01*
Y135399D01*
X197888D01*
Y136702D01*
X198376D01*
X199728Y135351D01*
X199726Y135334D01*
X199262Y134639D01*
X199099Y133820D01*
X199191Y133357D01*
X197385Y131552D01*
X189620D01*
X189191Y131466D01*
X188827Y131223D01*
X188827Y131223D01*
X184600Y126997D01*
X180895D01*
X180682Y127397D01*
X180918Y127751D01*
X181081Y128570D01*
X180918Y129389D01*
X180454Y130084D01*
X179759Y130548D01*
X178940Y130711D01*
X178121Y130548D01*
X177426Y130084D01*
X177230Y129791D01*
X173853D01*
X173627Y130191D01*
X173631Y130199D01*
X173640D01*
X173640Y130198D01*
X174069Y130284D01*
X174433Y130527D01*
X175876Y131970D01*
X175876Y131970D01*
X176119Y132334D01*
X176197Y132726D01*
X196337D01*
Y134999D01*
Y137272D01*
X174502D01*
Y138671D01*
Y140639D01*
Y142608D01*
Y144576D01*
Y146545D01*
Y148513D01*
Y150482D01*
Y152450D01*
Y154419D01*
Y156387D01*
Y158356D01*
Y160088D01*
X197318D01*
Y158356D01*
Y157938D01*
X199591D01*
X201864D01*
Y160194D01*
X202047Y160376D01*
X204287D01*
X204507Y160005D01*
X204487Y159929D01*
X204376Y159854D01*
X203912Y159159D01*
X203749Y158340D01*
X203912Y157521D01*
X204376Y156826D01*
X205071Y156362D01*
X205696Y156237D01*
X205698Y156237D01*
X205689Y156144D01*
D01*
Y156144D01*
X205689D01*
X205464Y155837D01*
X205328D01*
Y154456D01*
X207300D01*
Y155837D01*
X206316D01*
X206091Y156144D01*
X206091D01*
Y156144D01*
D01*
X206082Y156237D01*
X206084Y156237D01*
X206709Y156362D01*
X207404Y156826D01*
X207868Y157521D01*
X208031Y158340D01*
X207868Y159159D01*
X207404Y159854D01*
X207012Y160116D01*
Y160677D01*
X207012Y160677D01*
X206929Y161092D01*
X206927Y161107D01*
X207149Y161492D01*
X209387D01*
X209413Y161492D01*
X209787D01*
X209813Y161492D01*
X211759D01*
Y163470D01*
Y165448D01*
X209813D01*
X209787Y165448D01*
X209413D01*
X209387Y165448D01*
X204669D01*
Y162685D01*
X204604Y162619D01*
X201582D01*
X201582Y162619D01*
X201153Y162534D01*
X200789Y162291D01*
X199156Y160658D01*
X197888D01*
Y164634D01*
X197858D01*
Y171932D01*
X205161Y179235D01*
X205530Y179081D01*
Y176770D01*
X205530Y176622D01*
X205235Y176370D01*
X203319D01*
Y173020D01*
X213141D01*
Y176222D01*
X213141Y176370D01*
X213437Y176622D01*
X215392D01*
Y178200D01*
X213020D01*
Y178600D01*
X212620D01*
Y180578D01*
X210673D01*
X210648Y180578D01*
X210274D01*
X210248Y180578D01*
X209023D01*
Y182210D01*
X211950D01*
Y183769D01*
X212141Y183937D01*
X212430Y183762D01*
D02*
G37*
%LPC*%
G36*
X188156Y197200D02*
X186971D01*
Y195819D01*
X188156D01*
Y197200D01*
D02*
G37*
G36*
X186171D02*
X184987D01*
Y195819D01*
X186171D01*
Y197200D01*
D02*
G37*
G36*
X186301Y185398D02*
X184329D01*
Y183820D01*
X186301D01*
Y185398D01*
D02*
G37*
G36*
Y183020D02*
X184329D01*
Y181442D01*
X186301D01*
Y183020D01*
D02*
G37*
G36*
X213880Y182961D02*
X212499D01*
Y181777D01*
X213880D01*
Y182961D01*
D02*
G37*
G36*
X213420Y180578D02*
Y179000D01*
X215392D01*
Y180578D01*
X213420D01*
D02*
G37*
G36*
X207830Y172220D02*
X203319D01*
Y169763D01*
X202919Y169667D01*
X202259Y170108D01*
X201840Y170192D01*
Y168530D01*
X203502D01*
X203495Y168561D01*
X203749Y168870D01*
X207830D01*
Y172220D01*
D02*
G37*
G36*
X213141D02*
X208630D01*
Y168870D01*
X213141D01*
Y172220D01*
D02*
G37*
G36*
X201040Y170192D02*
X200621Y170108D01*
X199926Y169644D01*
X199462Y168949D01*
X199378Y168530D01*
X201040D01*
Y170192D01*
D02*
G37*
G36*
X203502Y167730D02*
X201840D01*
Y166068D01*
X202259Y166152D01*
X202954Y166616D01*
X203418Y167311D01*
X203502Y167730D01*
D02*
G37*
G36*
X201040D02*
X199378D01*
X199462Y167311D01*
X199926Y166616D01*
X200621Y166152D01*
X201040Y166068D01*
Y167730D01*
D02*
G37*
G36*
X212559Y165448D02*
Y163870D01*
X214531D01*
Y165448D01*
X212559D01*
D02*
G37*
G36*
X214531Y163070D02*
X212559D01*
Y161492D01*
X214531D01*
Y163070D01*
D02*
G37*
G36*
X213500Y155917D02*
X211528D01*
Y154536D01*
X213500D01*
Y155917D01*
D02*
G37*
G36*
X210072Y155837D02*
X208100D01*
Y154456D01*
X210072D01*
Y155837D01*
D02*
G37*
G36*
X213500Y153736D02*
X211528D01*
Y152355D01*
X213500D01*
Y153736D01*
D02*
G37*
G36*
X210072Y153656D02*
X208100D01*
Y152275D01*
X210072D01*
Y153656D01*
D02*
G37*
G36*
X207300D02*
X205328D01*
Y152275D01*
X207300D01*
Y153656D01*
D02*
G37*
G36*
X201864Y157138D02*
X199591D01*
X197318D01*
Y156387D01*
Y154419D01*
Y152450D01*
Y152033D01*
X199591D01*
X201864D01*
Y152450D01*
Y156387D01*
Y157138D01*
D02*
G37*
G36*
X194581Y157351D02*
X186310D01*
Y149080D01*
X194581D01*
Y157351D01*
D02*
G37*
G36*
X185510D02*
X177239D01*
Y149080D01*
X185510D01*
Y157351D01*
D02*
G37*
G36*
X201864Y151233D02*
X199591D01*
X197318D01*
Y150482D01*
Y148513D01*
Y146545D01*
Y146127D01*
X199591D01*
X201864D01*
Y148513D01*
Y151233D01*
D02*
G37*
G36*
X150238Y143994D02*
X148069D01*
Y140841D01*
X150238D01*
Y143994D01*
D02*
G37*
G36*
X194581Y148280D02*
X186310D01*
Y140009D01*
X194581D01*
Y148280D01*
D02*
G37*
G36*
X185510D02*
X177239D01*
Y140009D01*
X185510D01*
Y148280D01*
D02*
G37*
G36*
X161969Y139350D02*
X159800D01*
Y137181D01*
X161969D01*
Y139350D01*
D02*
G37*
G36*
X159000D02*
X156832D01*
Y137181D01*
X159000D01*
Y139350D01*
D02*
G37*
G36*
X150238Y140041D02*
X148069D01*
Y136888D01*
X150238D01*
Y140041D01*
D02*
G37*
G36*
X147269D02*
X145101D01*
Y136888D01*
X147269D01*
Y140041D01*
D02*
G37*
G36*
X212729Y137328D02*
Y135750D01*
X214701D01*
Y137328D01*
X212729D01*
D02*
G37*
G36*
X158032Y134398D02*
X156060D01*
Y132820D01*
X158032D01*
Y134398D01*
D02*
G37*
G36*
X197888Y134599D02*
X197137D01*
Y132726D01*
X197888D01*
Y134599D01*
D02*
G37*
G36*
X136418Y133431D02*
X134840D01*
Y131459D01*
X136418D01*
Y133431D01*
D02*
G37*
G36*
X134040D02*
X132462D01*
Y131459D01*
X134040D01*
Y133431D01*
D02*
G37*
G36*
X214772Y131170D02*
X212800D01*
Y129592D01*
X214772D01*
Y131170D01*
D02*
G37*
G36*
X130478Y127041D02*
X128900D01*
Y125069D01*
X130478D01*
Y127041D01*
D02*
G37*
G36*
X128100D02*
X126522D01*
Y125069D01*
X128100D01*
Y127041D01*
D02*
G37*
G36*
X107978Y126482D02*
X106400D01*
Y124510D01*
X107978D01*
Y126482D01*
D02*
G37*
G36*
X105600D02*
X104022D01*
Y124510D01*
X105600D01*
Y126482D01*
D02*
G37*
G36*
X124982Y127041D02*
X119845D01*
Y123479D01*
X124982D01*
Y127041D01*
D02*
G37*
G36*
X212972Y125740D02*
X203150D01*
Y122890D01*
X202865Y122609D01*
X200625Y122642D01*
X200195Y122563D01*
X199827Y122325D01*
X199827Y122325D01*
X194145Y116809D01*
X188118Y116898D01*
X188118Y116898D01*
X187687Y116819D01*
X187320Y116581D01*
X187320Y116581D01*
X185131Y114456D01*
X185131Y114456D01*
X184882Y114095D01*
X184791Y113668D01*
X184773Y112491D01*
X184284D01*
Y108929D01*
X187453D01*
Y112491D01*
X187307D01*
X187025Y112777D01*
X187030Y113173D01*
X188549Y114648D01*
X194576Y114559D01*
X195007Y114638D01*
X195374Y114876D01*
X195374Y114876D01*
X201056Y120392D01*
X203150Y120361D01*
Y118240D01*
X212972D01*
Y125740D01*
D02*
G37*
G36*
X154732Y125131D02*
X149595D01*
Y121569D01*
X154732D01*
Y125131D01*
D02*
G37*
G36*
X176830Y121590D02*
X172319D01*
Y118240D01*
X176830D01*
Y121590D01*
D02*
G37*
G36*
X171519D02*
X167008D01*
Y118240D01*
X171519D01*
Y121590D01*
D02*
G37*
G36*
X107920Y120381D02*
Y117250D01*
X111051D01*
X110981Y117777D01*
X110623Y118642D01*
X110054Y119384D01*
X109312Y119953D01*
X108448Y120311D01*
X107920Y120381D01*
D02*
G37*
G36*
X107120D02*
X106593Y120311D01*
X105728Y119953D01*
X104986Y119384D01*
X104417Y118642D01*
X104059Y117777D01*
X103989Y117250D01*
X107120D01*
Y120381D01*
D02*
G37*
G36*
X166110Y116653D02*
Y115469D01*
X167491D01*
Y116653D01*
X166110D01*
D02*
G37*
G36*
X174220Y117781D02*
X173401Y117618D01*
X172706Y117154D01*
X172242Y116459D01*
X172079Y115640D01*
X172171Y115177D01*
X171447Y114453D01*
X168899D01*
Y111284D01*
X172461D01*
Y112295D01*
X173757Y113591D01*
X174220Y113499D01*
X175039Y113662D01*
X175734Y114126D01*
X176198Y114821D01*
X176361Y115640D01*
X176198Y116459D01*
X175734Y117154D01*
X175039Y117618D01*
X174220Y117781D01*
D02*
G37*
G36*
X167491Y114669D02*
X166110D01*
Y113484D01*
X167491D01*
Y114669D01*
D02*
G37*
G36*
X165310D02*
X163929D01*
Y113484D01*
X165310D01*
Y114669D01*
D02*
G37*
G36*
X111051Y116450D02*
X107920D01*
Y113319D01*
X108448Y113389D01*
X109312Y113747D01*
X110054Y114316D01*
X110623Y115058D01*
X110981Y115923D01*
X111051Y116450D01*
D02*
G37*
G36*
X107120D02*
X103989D01*
X104059Y115923D01*
X104417Y115058D01*
X104986Y114316D01*
X105728Y113747D01*
X106593Y113389D01*
X107120Y113319D01*
Y116450D01*
D02*
G37*
G36*
X194308Y112271D02*
X192730D01*
Y110299D01*
X194308D01*
Y112271D01*
D02*
G37*
G36*
X191930D02*
X190352D01*
Y110299D01*
X191930D01*
Y112271D01*
D02*
G37*
G36*
X116390Y117561D02*
X115571Y117398D01*
X114876Y116934D01*
X114412Y116239D01*
X114249Y115420D01*
X114412Y114601D01*
X114876Y113906D01*
X115330Y113603D01*
X115354Y113481D01*
X115597Y113117D01*
X115760Y112954D01*
Y109940D01*
X121760D01*
Y113140D01*
X118746D01*
X117935Y113952D01*
X118368Y114601D01*
X118531Y115420D01*
X118368Y116239D01*
X117904Y116934D01*
X117209Y117398D01*
X116390Y117561D01*
D02*
G37*
G36*
X118360Y109440D02*
X115760D01*
Y108240D01*
X118360D01*
Y109440D01*
D02*
G37*
G36*
Y107440D02*
X115760D01*
Y106240D01*
X118360D01*
Y107440D01*
D02*
G37*
G36*
X175671Y106738D02*
X173699D01*
Y105160D01*
X175671D01*
Y106738D01*
D02*
G37*
G36*
X170564Y106161D02*
X169380D01*
Y104780D01*
X170564D01*
Y106161D01*
D02*
G37*
G36*
X168580D02*
X167396D01*
Y104780D01*
X168580D01*
Y106161D01*
D02*
G37*
G36*
X140376Y105861D02*
X139191D01*
Y104480D01*
X140376D01*
Y105861D01*
D02*
G37*
G36*
X138391D02*
X137207D01*
Y104480D01*
X138391D01*
Y105861D01*
D02*
G37*
G36*
X213653Y110923D02*
X206547D01*
Y103817D01*
X213653D01*
Y110923D01*
D02*
G37*
G36*
X144461Y110231D02*
X141293D01*
Y106669D01*
X141505D01*
Y105861D01*
X141144D01*
Y102299D01*
X144313D01*
Y102857D01*
X147707D01*
X148175Y102950D01*
X148376Y103084D01*
X149214D01*
X149871Y103215D01*
X150427Y103587D01*
X150799Y104143D01*
X150930Y104800D01*
X150799Y105456D01*
X150427Y106013D01*
X149871Y106385D01*
X149463Y106466D01*
Y106874D01*
X149871Y106955D01*
X150427Y107327D01*
X150799Y107883D01*
X150850Y108140D01*
X148427D01*
X146003D01*
X146054Y107883D01*
X146426Y107327D01*
X146983Y106955D01*
X147390Y106874D01*
Y106466D01*
X146983Y106385D01*
X146426Y106013D01*
X146054Y105456D01*
X146024Y105304D01*
X144313D01*
Y105861D01*
X143952D01*
Y106669D01*
X144461D01*
Y110231D01*
D02*
G37*
G36*
X140376Y103680D02*
X139191D01*
Y102299D01*
X140376D01*
Y103680D01*
D02*
G37*
G36*
X138391D02*
X137207D01*
Y102299D01*
X138391D01*
Y103680D01*
D02*
G37*
%LPD*%
D12*
X137507Y119520D02*
X141337Y123350D01*
X136480Y119520D02*
X137507D01*
X140430Y116780D02*
X161350D01*
X129270Y113250D02*
Y114780D01*
X127560Y111540D02*
X129270Y113250D01*
X198884Y137780D02*
X199664D01*
X198884D02*
X201240Y135424D01*
X161470Y121451D02*
X166629Y126610D01*
X171449Y112868D02*
X174220Y115640D01*
X205890Y158340D02*
Y160677D01*
X205069Y161498D02*
X205890Y160677D01*
X207211Y135350D02*
X207282Y135279D01*
X204751Y137810D02*
X207211Y135350D01*
X207282Y131570D02*
Y135279D01*
X197850Y130430D02*
X201240Y133820D01*
X189620Y130430D02*
X197850D01*
X213746Y154056D02*
X214060Y154370D01*
X199664Y137780D02*
X201940D01*
X201240Y133820D02*
X201290Y133770D01*
X201240Y133820D02*
Y135424D01*
X181905Y110710D02*
Y117835D01*
X173002Y108932D02*
X181905Y117835D01*
X170680Y108932D02*
X173002D01*
X185065Y125875D02*
X189620Y130430D01*
X181905Y110710D02*
X181905Y110710D01*
X181841Y106385D02*
X181905Y110710D01*
X181931D01*
X189800Y170260D02*
X189830D01*
X184420Y171270D02*
X186070Y172920D01*
X184420Y168590D02*
Y171270D01*
Y168590D02*
X186894Y166116D01*
Y162361D02*
Y166116D01*
X188863Y169323D02*
X189800Y170260D01*
X179920Y171900D02*
X181560Y170260D01*
X194060Y169970D02*
Y170080D01*
X196737Y172397D02*
X207902Y183562D01*
X196737Y162361D02*
Y172397D01*
X161350Y116780D02*
X161590Y116540D01*
X159230Y114180D02*
X161590Y116540D01*
X156920Y102000D02*
X189549D01*
X178840Y128670D02*
X178940Y128570D01*
X181189Y104760D02*
X181204Y105767D01*
X181841Y106385D01*
X170680Y112868D02*
X171449D01*
X177605Y125875D02*
X185065D01*
X201970Y137810D02*
X204751D01*
X201940D02*
X201970D01*
X201940Y137780D02*
X201970Y137810D01*
X205650Y140410D02*
X205680D01*
X204850Y141210D02*
X205650Y140410D01*
X204850Y141210D02*
Y143989D01*
X199591Y137853D02*
X199664Y137780D01*
X205069Y161498D02*
X207041Y163470D01*
X201582Y161498D02*
X205069D01*
X199591Y159507D02*
X201582Y161498D01*
X208052Y121411D02*
X209440Y121390D01*
X200608Y121521D02*
X208052Y121411D01*
X185869Y110710D02*
X185912Y113651D01*
X188101Y115776D01*
X194593Y115680D01*
X200608Y121521D01*
X176870Y126610D02*
X177605Y125875D01*
X166629Y126610D02*
X176870D01*
X161470Y125428D02*
Y125635D01*
X164405Y128570D01*
X207902Y178600D02*
Y183562D01*
X125840Y111540D02*
X127560D01*
X123040Y108740D02*
X125840Y111540D01*
X123040Y103464D02*
Y108740D01*
X121616Y102040D02*
X123040Y103464D01*
X111094Y106850D02*
X115904Y102040D01*
X107520Y106850D02*
X111094D01*
X144601Y143849D02*
X155501Y154750D01*
X144601Y143278D02*
Y143849D01*
X131280Y107840D02*
X134090Y110650D01*
X127560Y107840D02*
X131280D01*
X134090Y110650D02*
Y115500D01*
X130360Y119230D02*
X134090Y115500D01*
X117616Y119230D02*
X130360D01*
X111587Y125260D02*
X117616Y119230D01*
X163119Y108540D02*
X165710Y111132D01*
X159253Y108540D02*
X163119D01*
X152810Y106110D02*
X156920Y102000D01*
X159253Y104800D02*
X164623D01*
X124047Y190453D02*
X127470Y187030D01*
X181560Y167690D02*
Y170260D01*
Y167690D02*
X182957Y166293D01*
X210570Y140610D02*
X211219Y139962D01*
X190751Y179370D02*
X199310D01*
X190831Y166741D02*
X194060Y169970D01*
X190831Y162361D02*
Y166741D01*
X188863Y162361D02*
Y169323D01*
X182957Y162361D02*
Y166293D01*
X179020Y162361D02*
Y166340D01*
X178020Y167340D02*
X179020Y166340D01*
X167262Y167340D02*
X178020D01*
X177052Y162361D02*
Y164789D01*
X176100Y165740D02*
X177052Y164789D01*
X166600Y165740D02*
X176100D01*
X186701Y183420D02*
X190751Y179370D01*
X163589Y137084D02*
Y141389D01*
X167160Y137210D02*
Y137526D01*
X166422Y130586D02*
Y134254D01*
X165777Y134898D02*
X166422Y134254D01*
X165775Y134898D02*
X165777D01*
X163589Y137084D02*
X165775Y134898D01*
X159400Y149750D02*
X167390D01*
X168110Y149030D01*
Y144098D02*
Y149030D01*
Y144098D02*
X170418Y141790D01*
X164505Y128670D02*
X178840D01*
X164505D02*
X166422Y130586D01*
X155661Y129942D02*
X161072D01*
X160553Y172900D02*
X163888Y169565D01*
Y168452D02*
Y169565D01*
Y168452D02*
X166600Y165740D01*
X164088Y171627D02*
X164088D01*
X165488Y170228D01*
Y169115D02*
Y170228D01*
Y169115D02*
X167262Y167340D01*
X169784Y139822D02*
X172229D01*
X169770Y139807D02*
X169784Y139822D01*
X170418Y141790D02*
X172229D01*
X207902Y183562D02*
X209550Y185210D01*
X167570Y177378D02*
X170768Y174180D01*
X172979D01*
X213900Y148624D02*
X214200Y148324D01*
Y143898D02*
Y148324D01*
X207700Y148544D02*
X209038Y147206D01*
Y144240D02*
Y147206D01*
X210430Y140470D02*
X210570Y140610D01*
X159230Y114180D02*
X159253D01*
Y112280D02*
Y114180D01*
X152810Y106110D02*
Y109840D01*
X150370Y112280D02*
X152810Y109840D01*
X148427Y112280D02*
X150370D01*
X156420Y126574D02*
X157016D01*
X138940Y115290D02*
X140430Y116780D01*
X138940Y108450D02*
Y115290D01*
X152163Y130830D02*
X156420Y126574D01*
X171410Y131320D02*
X173640D01*
X167570Y177378D02*
Y188280D01*
X161215Y174500D02*
X164088Y171627D01*
X163060Y159140D02*
X168599Y153601D01*
X144737Y174500D02*
X161215D01*
X145400Y172900D02*
X160553D01*
X149250Y159140D02*
X163060D01*
X139800Y169563D02*
X144737Y174500D01*
X139800Y154200D02*
Y169563D01*
X135100Y149500D02*
X139800Y154200D01*
X141400Y168900D02*
X145400Y172900D01*
X141400Y152900D02*
Y168900D01*
X136400Y147900D02*
X141400Y152900D01*
X168599Y153601D02*
X172229D01*
X168240Y139807D02*
X169770D01*
X168237Y139810D02*
X168240Y139807D01*
X165173Y139810D02*
X168237D01*
X165171Y139807D02*
X165173Y139810D01*
X163589Y141389D02*
X165171Y139807D01*
X158432Y132420D02*
Y133111D01*
X161072Y129942D02*
X163550Y132420D01*
X154772Y130830D02*
X155661Y129942D01*
X152163Y130830D02*
X154772D01*
X141764Y138186D02*
Y139728D01*
X147669Y140441D02*
X148360Y139750D01*
X158432Y138782D02*
X159400Y139750D01*
X164623Y104800D02*
X165043Y104380D01*
X115904Y102040D02*
X121616D01*
X131000Y149500D02*
X135100D01*
X129000Y147500D02*
X131000Y149500D01*
X131663Y147900D02*
X136400D01*
X129953Y146190D02*
X131663Y147900D01*
X129953Y140441D02*
Y146190D01*
X114000Y147500D02*
X129000D01*
X148293Y108540D02*
X148427D01*
X163589Y141389D02*
Y143298D01*
X162137Y144750D02*
X163589Y143298D01*
X159400Y144750D02*
X162137D01*
X204850Y143989D02*
X205101Y144240D01*
X193520Y188340D02*
X196650Y185210D01*
X189180Y186059D02*
X191819Y183420D01*
X189180Y185783D02*
Y186059D01*
X186623Y188340D02*
X189180Y185783D01*
X186623Y188340D02*
Y192880D01*
X211219Y139962D02*
X214200D01*
X212192Y185210D02*
X214280Y187299D01*
X209550Y185210D02*
X212192D01*
X209550D02*
X210810Y186470D01*
X190560Y188340D02*
X193520D01*
X190508Y197600D02*
X190560Y197548D01*
Y192880D02*
Y197548D01*
Y192880D02*
X192830Y195150D01*
X200810D01*
X112236Y145736D02*
X114000Y147500D01*
X141764Y139728D02*
Y140441D01*
X197511Y104781D02*
X200100Y107370D01*
X192330Y104781D02*
X197511D01*
X189549Y102000D02*
X192330Y104781D01*
X118142Y190858D02*
X126020Y182980D01*
X134710D01*
X127470Y187030D02*
X135230D01*
X112236Y140941D02*
Y145736D01*
X106000Y126882D02*
Y127541D01*
X167150Y137536D02*
X167160Y137526D01*
X167467Y137853D02*
X172229D01*
X167150Y137536D02*
X167467Y137853D01*
X155501Y154750D02*
X159400D01*
X173640Y131320D02*
X175083Y132763D01*
Y134999D01*
X116390Y113910D02*
X118760Y111540D01*
X116390Y113910D02*
Y115420D01*
X141764Y140441D02*
X144601Y143278D01*
X124047Y190453D02*
Y195559D01*
X118142Y190858D02*
Y195559D01*
X112236Y140941D02*
X112500Y141205D01*
D15*
X185869Y110710D02*
D03*
X181931D02*
D03*
X186623Y192880D02*
D03*
X190560D02*
D03*
X190508Y197600D02*
D03*
X186572D02*
D03*
X205101Y144240D02*
D03*
X209038D02*
D03*
X165043Y104380D02*
D03*
X168980D02*
D03*
X186623Y188340D02*
D03*
X190560D02*
D03*
X138940Y108450D02*
D03*
X142877D02*
D03*
X138792Y104080D02*
D03*
X142728D02*
D03*
D16*
X170680Y108932D02*
D03*
Y112868D02*
D03*
X161470Y121492D02*
D03*
Y125428D02*
D03*
X214280Y187299D02*
D03*
Y183361D02*
D03*
X214200Y139962D02*
D03*
Y143898D02*
D03*
X165710Y111132D02*
D03*
Y115068D02*
D03*
D17*
X176071Y104760D02*
D03*
X181189D02*
D03*
X213020Y178600D02*
D03*
X207902D02*
D03*
X212159Y163470D02*
D03*
X207041D02*
D03*
X212400Y131570D02*
D03*
X207282D02*
D03*
X191819Y183420D02*
D03*
X186701D02*
D03*
X163550Y132420D02*
D03*
X158432D02*
D03*
X207211Y135350D02*
D03*
X212329D02*
D03*
D18*
X208230Y172620D02*
D03*
X172088D02*
D03*
X171919Y121990D02*
D03*
X208061D02*
D03*
D19*
X209550Y185210D02*
D03*
X196650D02*
D03*
D20*
X207700Y148544D02*
D03*
Y154056D02*
D03*
X213900Y148624D02*
D03*
Y154136D02*
D03*
D21*
X192330Y109899D02*
D03*
Y104781D02*
D03*
X128500Y132559D02*
D03*
Y127441D02*
D03*
X134440Y125941D02*
D03*
Y131059D02*
D03*
X106000Y132000D02*
D03*
Y126882D02*
D03*
D22*
X127560Y111540D02*
D03*
Y107840D02*
D03*
Y104140D02*
D03*
X118760D02*
D03*
Y107840D02*
D03*
Y111540D02*
D03*
D23*
X159253Y104800D02*
D03*
Y108540D02*
D03*
Y112280D02*
D03*
X148427Y104800D02*
D03*
Y108540D02*
D03*
Y112280D02*
D03*
D24*
X152163Y130830D02*
D03*
Y123350D02*
D03*
X141337D02*
D03*
Y127090D02*
D03*
Y130830D02*
D03*
X122413Y132740D02*
D03*
Y125260D02*
D03*
X111587D02*
D03*
Y129000D02*
D03*
Y132740D02*
D03*
D25*
X106331Y195559D02*
D03*
X112236D02*
D03*
X118142D02*
D03*
X124047D02*
D03*
X129953D02*
D03*
X135858D02*
D03*
X141764D02*
D03*
X147669D02*
D03*
Y140441D02*
D03*
X141764D02*
D03*
X135858D02*
D03*
X129953D02*
D03*
X124047D02*
D03*
X118142D02*
D03*
X112236D02*
D03*
X106331D02*
D03*
D26*
X185910Y148680D02*
D03*
D27*
X199591Y159507D02*
D03*
Y157538D02*
D03*
Y155570D02*
D03*
Y153601D02*
D03*
Y151633D02*
D03*
Y149664D02*
D03*
Y147696D02*
D03*
Y145727D02*
D03*
Y143759D02*
D03*
Y141790D02*
D03*
Y139822D02*
D03*
Y137853D02*
D03*
X172229D02*
D03*
Y139822D02*
D03*
Y141790D02*
D03*
Y143759D02*
D03*
Y145727D02*
D03*
Y147696D02*
D03*
Y149664D02*
D03*
Y151633D02*
D03*
Y153601D02*
D03*
Y155570D02*
D03*
Y157538D02*
D03*
Y159507D02*
D03*
D28*
X196737Y134999D02*
D03*
X194768D02*
D03*
X192800D02*
D03*
X190831D02*
D03*
X188863D02*
D03*
X186894D02*
D03*
X184926D02*
D03*
X182957D02*
D03*
X180989D02*
D03*
X179020D02*
D03*
X177052D02*
D03*
X175083D02*
D03*
Y162361D02*
D03*
X177052D02*
D03*
X179020D02*
D03*
X180989D02*
D03*
X182957D02*
D03*
X184926D02*
D03*
X186894D02*
D03*
X188863D02*
D03*
X190831D02*
D03*
X192800D02*
D03*
X194768D02*
D03*
X196737D02*
D03*
D49*
X105500Y106000D02*
X108000Y108500D01*
X146050Y121060D02*
Y129690D01*
X144910Y130830D02*
X146050Y129690D01*
X141337Y130830D02*
X144910D01*
X133407Y123377D02*
Y124998D01*
X131530Y121500D02*
X133407Y123377D01*
X119470Y121500D02*
X131530D01*
X116570Y124400D02*
Y130930D01*
X114760Y132740D02*
X116570Y130930D01*
Y124400D02*
X119470Y121500D01*
X134440Y125941D02*
X139329Y130830D01*
X141337D01*
X138324Y136288D02*
X141764Y139728D01*
X130788Y136288D02*
X138324D01*
X106740Y132740D02*
X111587D01*
X142728Y108301D02*
X142877Y108450D01*
X142728Y104080D02*
Y108301D01*
X147707Y104080D02*
X148427Y104800D01*
X142728Y104080D02*
X147707D01*
X106000Y132000D02*
X106740Y132740D01*
X128500Y134000D02*
X130788Y136288D01*
X128500Y132559D02*
Y134000D01*
X122413Y132740D02*
X128319D01*
X111587D02*
X114760D01*
X128319D02*
X128500Y132559D01*
D50*
X159400Y154750D02*
D03*
Y149750D02*
D03*
Y144750D02*
D03*
X159420Y163540D02*
D03*
D51*
X159400Y139750D02*
D03*
X159420Y168540D02*
D03*
D52*
X210810Y195150D02*
D03*
X200100Y107370D02*
D03*
X107520Y116850D02*
D03*
D53*
X200810Y195150D02*
D03*
X210100Y107370D02*
D03*
D54*
X107520Y106850D02*
D03*
D55*
X137507Y119520D02*
D03*
X146050Y121060D02*
D03*
X129270Y114780D02*
D03*
X174220Y115640D02*
D03*
X205890Y158340D02*
D03*
X201440Y168130D02*
D03*
X201240Y133820D02*
D03*
X181905Y117835D02*
D03*
X189830Y170260D02*
D03*
X186070Y172920D02*
D03*
X179920Y171900D02*
D03*
X194060Y170080D02*
D03*
X161590Y116540D02*
D03*
X178940Y128570D02*
D03*
X205680Y140410D02*
D03*
X199310Y179370D02*
D03*
X167160Y137210D02*
D03*
X210430Y140470D02*
D03*
X157016Y126574D02*
D03*
X171410Y131320D02*
D03*
X149250Y159140D02*
D03*
X167570Y188280D02*
D03*
X134710Y182980D02*
D03*
X135230Y187030D02*
D03*
X116390Y115420D02*
D03*
M02*
