G04*
G04 #@! TF.GenerationSoftware,Altium Limited,Altium Designer,18.0.9 (584)*
G04*
G04 Layer_Color=16711935*
%FSLAX25Y25*%
%MOIN*%
G70*
G01*
G75*
%ADD14C,0.00300*%
%ADD57C,0.00200*%
%ADD58C,0.00394*%
D14*
X182325Y110316D02*
Y111216D01*
X182775D01*
X182925Y111066D01*
Y110766D01*
X182775Y110616D01*
X182325D01*
X182625D02*
X182925Y110316D01*
X183225D02*
X183525D01*
X183375D01*
Y111216D01*
X183225Y111066D01*
X183975D02*
X184125Y111216D01*
X184424D01*
X184574Y111066D01*
Y110916D01*
X184424Y110766D01*
X184275D01*
X184424D01*
X184574Y110616D01*
Y110466D01*
X184424Y110316D01*
X184125D01*
X183975Y110466D01*
X170286Y112475D02*
X171186D01*
Y112025D01*
X171036Y111875D01*
X170736D01*
X170586Y112025D01*
Y112475D01*
Y112175D02*
X170286Y111875D01*
Y111575D02*
Y111275D01*
Y111425D01*
X171186D01*
Y111575D01*
Y110225D02*
Y110825D01*
X170736D01*
X170886Y110525D01*
Y110375D01*
X170736Y110225D01*
X170436D01*
X170286Y110375D01*
Y110675D01*
X170436Y110825D01*
X161076Y125035D02*
X162576D01*
Y124285D01*
X162326Y124035D01*
X161826D01*
X161576Y124285D01*
Y125035D01*
Y124535D02*
X161076Y124035D01*
X162326Y122536D02*
X162576Y122785D01*
Y123285D01*
X162326Y123535D01*
X162076D01*
X161826Y123285D01*
Y122785D01*
X161576Y122536D01*
X161326D01*
X161076Y122785D01*
Y123285D01*
X161326Y123535D01*
X162576Y122036D02*
Y121036D01*
Y121536D01*
X161076D01*
X190166Y193274D02*
Y191774D01*
X189417D01*
X189167Y192024D01*
Y192524D01*
X189417Y192774D01*
X190166D01*
X189666D02*
X189167Y193274D01*
X188417D02*
Y192024D01*
Y192524D01*
X188667D01*
X188167D01*
X188417D01*
Y192024D01*
X188167Y191774D01*
X187417Y193274D02*
X186917D01*
X187167D01*
Y191774D01*
X187417Y192024D01*
X186965Y197206D02*
Y198706D01*
X187715D01*
X187965Y198456D01*
Y197956D01*
X187715Y197706D01*
X186965D01*
X187465D02*
X187965Y197206D01*
X188465D02*
X189215D01*
X189464Y197456D01*
X189215Y197706D01*
X188715D01*
X188465Y197956D01*
X188715Y198206D01*
X189464D01*
X214674Y183755D02*
X213174D01*
Y184505D01*
X213424Y184755D01*
X213924D01*
X214174Y184505D01*
Y183755D01*
Y184255D02*
X214674Y184755D01*
X213674Y185255D02*
X214674D01*
X214174D01*
X213924Y185505D01*
X213674Y185755D01*
Y186004D01*
X214674Y187504D02*
Y187004D01*
X214424Y186754D01*
X213924D01*
X213674Y187004D01*
Y187504D01*
X213924Y187754D01*
X214174D01*
Y186754D01*
X213674Y189253D02*
Y188504D01*
X213924Y188254D01*
X214424D01*
X214674Y188504D01*
Y189253D01*
X213424Y190003D02*
X213674D01*
Y189753D01*
Y190253D01*
Y190003D01*
X214424D01*
X214674Y190253D01*
X206594Y148741D02*
X208094D01*
Y149491D01*
X207844Y149741D01*
X206844D01*
X206594Y149491D01*
Y148741D01*
X208094Y151240D02*
Y150241D01*
X207094Y151240D01*
X206844D01*
X206594Y150990D01*
Y150490D01*
X206844Y150241D01*
X212794Y148821D02*
X214294D01*
Y149571D01*
X214044Y149821D01*
X213044D01*
X212794Y149571D01*
Y148821D01*
X213044Y150320D02*
X212794Y150570D01*
Y151070D01*
X213044Y151320D01*
X213294D01*
X213544Y151070D01*
Y150820D01*
Y151070D01*
X213794Y151320D01*
X214044D01*
X214294Y151070D01*
Y150570D01*
X214044Y150320D01*
X208645Y144634D02*
Y143134D01*
X207895D01*
X207645Y143384D01*
Y143884D01*
X207895Y144134D01*
X208645D01*
X208145D02*
X207645Y144634D01*
X207145D02*
X206645D01*
X206895D01*
Y143134D01*
X207145D01*
X205896Y144634D02*
X205396D01*
X205646D01*
Y143134D01*
X205896Y143384D01*
X213806Y143505D02*
X215306D01*
Y142755D01*
X215056Y142505D01*
X214556D01*
X214306Y142755D01*
Y143505D01*
Y143005D02*
X213806Y142505D01*
Y142005D02*
Y141505D01*
Y141755D01*
X215306D01*
Y142005D01*
X213806Y139756D02*
Y140756D01*
X214806Y139756D01*
X215056D01*
X215306Y140006D01*
Y140506D01*
X215056Y140756D01*
X168586Y104774D02*
Y103274D01*
X167836D01*
X167587Y103524D01*
Y104024D01*
X167836Y104274D01*
X168586D01*
X168087D02*
X167587Y104774D01*
X167087D02*
X166337D01*
X166087Y104524D01*
X166337Y104274D01*
X166837D01*
X167087Y104024D01*
X166837Y103774D01*
X166087D01*
X164838Y104774D02*
X165337D01*
X165587Y104524D01*
Y104024D01*
X165337Y103774D01*
X164838D01*
X164588Y104024D01*
Y104274D01*
X165587D01*
X163838Y103524D02*
Y103774D01*
X164088D01*
X163588D01*
X163838D01*
Y104524D01*
X163588Y104774D01*
X187017Y187946D02*
Y189446D01*
X187767D01*
X188016Y189196D01*
Y188696D01*
X187767Y188446D01*
X187017D01*
X187516D02*
X188016Y187946D01*
X188766D02*
Y189196D01*
Y188696D01*
X188516D01*
X189016D01*
X188766D01*
Y189196D01*
X189016Y189446D01*
X190766Y187946D02*
X189766D01*
X190766Y188946D01*
Y189196D01*
X190516Y189446D01*
X190016D01*
X189766Y189196D01*
X166104Y111525D02*
X164604D01*
Y112275D01*
X164854Y112525D01*
X165354D01*
X165604Y112275D01*
Y111525D01*
Y112025D02*
X166104Y112525D01*
X166604Y113525D02*
Y113775D01*
X166354Y114024D01*
X165104D01*
Y113275D01*
X165354Y113025D01*
X165854D01*
X166104Y113275D01*
Y114024D01*
X165104Y114524D02*
X166104D01*
X165604D01*
X165354Y114774D01*
X165104Y115024D01*
Y115274D01*
X164604Y117023D02*
X166104D01*
Y116274D01*
X165854Y116024D01*
X165354D01*
X165104Y116274D01*
Y117023D01*
X139334Y108056D02*
Y109556D01*
X140084D01*
X140333Y109306D01*
Y108806D01*
X140084Y108556D01*
X139334D01*
X139833D02*
X140333Y108056D01*
X141833Y109556D02*
Y108056D01*
X141083D01*
X140833Y108306D01*
Y108806D01*
X141083Y109056D01*
X141833D01*
X142333Y108056D02*
X142833D01*
X142583D01*
Y109056D01*
X142333D01*
X143582D02*
X144082Y108056D01*
X144582Y109056D01*
X145082Y108056D02*
X145582D01*
X145332D01*
Y109556D01*
X145082Y109306D01*
X139185Y103686D02*
Y105186D01*
X139935D01*
X140185Y104936D01*
Y104436D01*
X139935Y104186D01*
X139185D01*
X139685D02*
X140185Y103686D01*
X141684Y105186D02*
Y103686D01*
X140935D01*
X140685Y103936D01*
Y104436D01*
X140935Y104686D01*
X141684D01*
X142184Y103686D02*
X142684D01*
X142434D01*
Y104686D01*
X142184D01*
X143434D02*
X143934Y103686D01*
X144433Y104686D01*
X145933Y103686D02*
X144933D01*
X145933Y104686D01*
Y104936D01*
X145683Y105186D01*
X145183D01*
X144933Y104936D01*
D57*
X181931Y111694D02*
X185869D01*
Y109726D02*
Y111694D01*
X181931Y109726D02*
X185869D01*
X181931D02*
Y111694D01*
X171664Y108932D02*
Y112868D01*
X169696Y108932D02*
X171664D01*
X169696D02*
Y112868D01*
X171664D01*
X176662Y103776D02*
Y105745D01*
Y103776D02*
X180599D01*
Y105745D01*
X176662D02*
X180599D01*
X162454Y121492D02*
Y125428D01*
X160486Y121492D02*
X162454D01*
X160486D02*
Y125428D01*
X162454D01*
X186623Y191896D02*
X190560D01*
X186623D02*
Y193864D01*
X190560D01*
Y191896D02*
Y193864D01*
X186572Y198584D02*
X190508D01*
Y196616D02*
Y198584D01*
X186572Y196616D02*
X190508D01*
X186572D02*
Y198584D01*
X213296Y183361D02*
Y187299D01*
X215264D01*
Y183361D02*
Y187299D01*
X213296Y183361D02*
X215264D01*
X212429Y177615D02*
Y179584D01*
X208492D02*
X212429D01*
X208492Y177615D02*
Y179584D01*
Y177615D02*
X212429D01*
X211568Y162485D02*
Y164454D01*
X207631D02*
X211568D01*
X207631Y162485D02*
Y164454D01*
Y162485D02*
X211568D01*
X206125Y148150D02*
X209275D01*
Y154450D01*
X206125D02*
X209275D01*
X206125Y148150D02*
Y154450D01*
X212325Y148230D02*
X215475D01*
Y154530D01*
X212325D02*
X215475D01*
X212325Y148230D02*
Y154530D01*
X205101Y143256D02*
X209038D01*
X205101D02*
Y145224D01*
X209038D01*
Y143256D02*
Y145224D01*
X215184Y139962D02*
Y143898D01*
X213216Y139962D02*
X215184D01*
X213216D02*
Y143898D01*
X215184D01*
X211809Y130585D02*
Y132554D01*
X207872D02*
X211809D01*
X207872Y130585D02*
Y132554D01*
Y130585D02*
X211809D01*
X191346Y109308D02*
X193315D01*
X191346Y105371D02*
Y109308D01*
Y105371D02*
X193315D01*
Y109308D01*
X165043Y103396D02*
X168980D01*
X165043D02*
Y105364D01*
X168980D01*
Y103396D02*
Y105364D01*
X187292Y184405D02*
X191229D01*
Y182436D02*
Y184405D01*
X187292Y182436D02*
X191229D01*
X187292D02*
Y184405D01*
X186623Y187356D02*
Y189324D01*
Y187356D02*
X190560D01*
Y189324D01*
X186623D02*
X190560D01*
X159023Y133405D02*
X162960D01*
Y131436D02*
Y133405D01*
X159023Y131436D02*
X162960D01*
X159023D02*
Y133405D01*
X207801Y134365D02*
X211738D01*
X207801D02*
Y136334D01*
X211738D01*
Y134365D02*
Y136334D01*
X164726Y111132D02*
X166694D01*
Y115068D01*
X164726D02*
X166694D01*
X164726Y111132D02*
Y115068D01*
X138940Y107466D02*
Y109434D01*
Y107466D02*
X142877D01*
Y109434D01*
X138940D02*
X142877D01*
X138792Y103096D02*
Y105064D01*
Y103096D02*
X142728D01*
Y105064D01*
X138792D02*
X142728D01*
X127515Y128032D02*
Y131969D01*
X129484D01*
Y128032D02*
Y131969D01*
X127515Y128032D02*
X129484D01*
X135425Y126531D02*
Y130468D01*
X133456Y126531D02*
X135425D01*
X133456D02*
Y130468D01*
X135425D01*
X105015Y127473D02*
Y131410D01*
X106984D01*
Y127473D02*
Y131410D01*
X105015Y127473D02*
X106984D01*
D58*
X150297Y102831D02*
X157383D01*
X150297Y114249D02*
X157383D01*
Y102831D02*
Y114249D01*
X150297Y102831D02*
Y114249D01*
X143305Y121086D02*
X150195D01*
X143305Y133094D02*
X150195D01*
Y121086D02*
Y133094D01*
X143305Y121086D02*
Y133094D01*
X113555Y122996D02*
X120445D01*
X113555Y135004D02*
X120445D01*
Y122996D02*
Y135004D01*
X113555Y122996D02*
Y135004D01*
M02*
