G04*
G04 #@! TF.GenerationSoftware,Altium Limited,Altium Designer,18.0.9 (584)*
G04*
G04 Layer_Color=16711935*
%FSLAX25Y25*%
%MOIN*%
G70*
G01*
G75*
%ADD43C,0.04528*%
%ADD44R,0.04528X0.04528*%
%ADD45C,0.06496*%
%ADD46R,0.06496X0.06496*%
%ADD47R,0.06496X0.06496*%
%ADD48C,0.03591*%
D43*
X159400Y154750D02*
D03*
Y149750D02*
D03*
Y144750D02*
D03*
X159420Y163540D02*
D03*
D44*
X159400Y139750D02*
D03*
X159420Y168540D02*
D03*
D45*
X210810Y195150D02*
D03*
X200100Y107370D02*
D03*
X107520Y116850D02*
D03*
D46*
X200810Y195150D02*
D03*
X210100Y107370D02*
D03*
D47*
X107520Y106850D02*
D03*
D48*
X137507Y119520D02*
D03*
X146050Y121060D02*
D03*
X129270Y114780D02*
D03*
X174220Y115640D02*
D03*
X205890Y158340D02*
D03*
X201440Y168130D02*
D03*
X201240Y133820D02*
D03*
X181905Y117835D02*
D03*
X189830Y170260D02*
D03*
X186070Y172920D02*
D03*
X179920Y171900D02*
D03*
X194060Y170080D02*
D03*
X161590Y116540D02*
D03*
X178940Y128570D02*
D03*
X205680Y140410D02*
D03*
X199310Y179370D02*
D03*
X167160Y137210D02*
D03*
X210430Y140470D02*
D03*
X157016Y126574D02*
D03*
X171410Y131320D02*
D03*
X149250Y159140D02*
D03*
X167570Y188280D02*
D03*
X134710Y182980D02*
D03*
X135230Y187030D02*
D03*
X116390Y115420D02*
D03*
M02*
