G04*
G04 #@! TF.GenerationSoftware,Altium Limited,Altium Designer,18.0.9 (584)*
G04*
G04 Layer_Color=32768*
%FSLAX25Y25*%
%MOIN*%
G70*
G01*
G75*
%ADD58C,0.00394*%
%ADD59C,0.00197*%
D58*
X180160Y108741D02*
X187640D01*
X180160Y112679D02*
X187640D01*
X183900Y109529D02*
Y111891D01*
X182719Y110710D02*
X185081D01*
X187640Y108741D02*
Y112679D01*
X180160Y108741D02*
Y112679D01*
X168711Y107160D02*
Y114640D01*
X172649Y107160D02*
Y114640D01*
X169499Y110900D02*
X171861D01*
X170680Y109719D02*
Y112081D01*
X168711Y107160D02*
X172649D01*
X168711Y114640D02*
X172649D01*
X159502Y119720D02*
Y127200D01*
X163438Y119720D02*
Y127200D01*
X160289Y123460D02*
X162651D01*
X161470Y122279D02*
Y124641D01*
X159502Y119720D02*
X163438D01*
X159502Y127200D02*
X163438D01*
X184851Y194849D02*
X192332D01*
X184851Y190911D02*
X192332D01*
X188592Y191699D02*
Y194061D01*
X187410Y192880D02*
X189773D01*
X184851Y190911D02*
Y194849D01*
X192332Y190911D02*
Y194849D01*
X184800Y195632D02*
X192280D01*
X184800Y199568D02*
X192280D01*
X188540Y196419D02*
Y198781D01*
X187359Y197600D02*
X189721D01*
X192280Y195632D02*
Y199568D01*
X184800Y195632D02*
Y199568D01*
X216248Y181590D02*
Y189070D01*
X212312Y181590D02*
Y189070D01*
X213099Y185330D02*
X215461D01*
X214280Y184149D02*
Y186511D01*
X212312Y189070D02*
X216248D01*
X212312Y181590D02*
X216248D01*
X204944Y146674D02*
X210456D01*
X204944Y155926D02*
X210456D01*
X204944Y146674D02*
Y155926D01*
X210456Y146674D02*
Y155926D01*
X207700Y150119D02*
Y152481D01*
X206519Y151300D02*
X208881D01*
X211144Y146754D02*
X216656D01*
X211144Y156006D02*
X216656D01*
X211144Y146754D02*
Y156006D01*
X216656Y146754D02*
Y156006D01*
X213900Y150199D02*
Y152561D01*
X212719Y151380D02*
X215081D01*
X203330Y146209D02*
X210810D01*
X203330Y142271D02*
X210810D01*
X207070Y143059D02*
Y145421D01*
X205889Y144240D02*
X208251D01*
X203330Y142271D02*
Y146209D01*
X210810Y142271D02*
Y146209D01*
X212231Y138190D02*
Y145670D01*
X216168Y138190D02*
Y145670D01*
X213019Y141930D02*
X215381D01*
X214200Y140749D02*
Y143111D01*
X212231Y138190D02*
X216168D01*
X212231Y145670D02*
X216168D01*
X163271Y106349D02*
X170752D01*
X163271Y102411D02*
X170752D01*
X167011Y103199D02*
Y105561D01*
X165830Y104380D02*
X168193D01*
X163271Y102411D02*
Y106349D01*
X170752Y102411D02*
Y106349D01*
X184851Y186372D02*
Y190308D01*
X192332Y186372D02*
Y190308D01*
X187410Y188340D02*
X189773D01*
X188592Y187159D02*
Y189521D01*
X184851Y190308D02*
X192332D01*
X184851Y186372D02*
X192332D01*
X163742Y109360D02*
X167678D01*
X163742Y116840D02*
X167678D01*
X165710Y111919D02*
Y114281D01*
X164529Y113100D02*
X166891D01*
X163742Y109360D02*
Y116840D01*
X167678Y109360D02*
Y116840D01*
X137168Y106482D02*
Y110418D01*
X144649Y106482D02*
Y110418D01*
X139727Y108450D02*
X142090D01*
X140909Y107269D02*
Y109631D01*
X137168Y110418D02*
X144649D01*
X137168Y106482D02*
X144649D01*
X137020Y102111D02*
Y106049D01*
X144500Y102111D02*
Y106049D01*
X139579Y104080D02*
X141941D01*
X140760Y102899D02*
Y105261D01*
X137020Y106049D02*
X144500D01*
X137020Y102111D02*
X144500D01*
X153840Y106571D02*
Y110509D01*
X151872Y108540D02*
X155808D01*
X146750Y125122D02*
Y129059D01*
X144781Y127090D02*
X148719D01*
X117000Y127032D02*
Y130969D01*
X115031Y129000D02*
X118969D01*
D59*
X145671Y101847D02*
X162009D01*
X145671Y115233D02*
X162009D01*
Y101847D02*
Y115233D01*
X145671Y101847D02*
Y115233D01*
X138482Y120003D02*
X155018D01*
X138482Y134177D02*
X155018D01*
Y120003D02*
Y134177D01*
X138482Y120003D02*
Y134177D01*
X108732Y121913D02*
X125268D01*
X108732Y136087D02*
X125268D01*
Y121913D02*
Y136087D01*
X108732Y121913D02*
Y136087D01*
M02*
