G04*
G04 #@! TF.GenerationSoftware,Altium Limited,Altium Designer,18.0.9 (584)*
G04*
G04 Layer_Color=32896*
%FSLAX25Y25*%
%MOIN*%
G70*
G01*
G75*
%ADD14C,0.00300*%
D14*
X135500Y175500D02*
Y174001D01*
X134750D01*
X134500Y174250D01*
Y174750D01*
X134750Y175000D01*
X135500D01*
X135000D02*
X134500Y175500D01*
X133251D02*
X133751D01*
X134001Y175250D01*
Y174750D01*
X133751Y174500D01*
X133251D01*
X133001Y174750D01*
Y175000D01*
X134001D01*
X132501Y174500D02*
X132001Y175500D01*
X131501Y174500D01*
X131001Y175750D02*
X130002D01*
X128502Y175500D02*
X129502D01*
X128502Y174500D01*
Y174250D01*
X128752Y174001D01*
X129252D01*
X129502Y174250D01*
X128002Y175750D02*
X127003D01*
X126503Y174001D02*
X125503D01*
X126003D01*
Y175500D01*
X125003Y174001D02*
X124004Y175500D01*
Y174001D02*
X125003Y175500D01*
X135500Y170210D02*
Y168710D01*
X134750D01*
X134500Y168960D01*
Y169460D01*
X134750Y169710D01*
X135500D01*
X134001Y169210D02*
Y170210D01*
Y169710D01*
X133751Y169460D01*
X133501Y169210D01*
X133251D01*
X132251Y170210D02*
X131751D01*
X131501Y169960D01*
Y169460D01*
X131751Y169210D01*
X132251D01*
X132501Y169460D01*
Y169960D01*
X132251Y170210D01*
X131001Y170710D02*
X130752D01*
X130502Y170460D01*
Y169210D01*
X128752Y170210D02*
X129252D01*
X129502Y169960D01*
Y169460D01*
X129252Y169210D01*
X128752D01*
X128502Y169460D01*
Y169710D01*
X129502D01*
X127003Y169210D02*
X127752D01*
X128002Y169460D01*
Y169960D01*
X127752Y170210D01*
X127003D01*
X126253Y168960D02*
Y169210D01*
X126503D01*
X126003D01*
X126253D01*
Y169960D01*
X126003Y170210D01*
X125253Y170460D02*
X124254D01*
X122754Y168710D02*
X123754D01*
Y169460D01*
X123254D01*
X123754D01*
Y170210D01*
X122254D02*
X121754D01*
X122004D01*
Y168710D01*
X122254D01*
X120755Y170210D02*
X120255D01*
X120005Y169960D01*
Y169460D01*
X120255Y169210D01*
X120755D01*
X121005Y169460D01*
Y169960D01*
X120755Y170210D01*
X119505Y169210D02*
Y169960D01*
X119255Y170210D01*
X119005Y169960D01*
X118755Y170210D01*
X118505Y169960D01*
Y169210D01*
X135500Y165000D02*
Y166250D01*
X135250Y166500D01*
X134750D01*
X134500Y166250D01*
Y165000D01*
X134001D02*
Y166500D01*
X133251D01*
X133001Y166250D01*
Y166000D01*
Y165750D01*
X133251Y165500D01*
X134001D01*
X132501Y166500D02*
X132001D01*
X132251D01*
Y165500D01*
X132501D01*
X130252Y165250D02*
X130502Y165000D01*
X131001D01*
X131251Y165250D01*
Y166250D01*
X131001Y166500D01*
X130502D01*
X130252Y166250D01*
X129502Y166500D02*
X129002D01*
X128752Y166250D01*
Y165750D01*
X129002Y165500D01*
X129502D01*
X129752Y165750D01*
Y166250D01*
X129502Y166500D01*
X128252D02*
Y165500D01*
X128002D01*
X127752Y165750D01*
Y166500D01*
Y165750D01*
X127503Y165500D01*
X127253Y165750D01*
Y166500D01*
X126753Y167000D02*
Y165500D01*
X126003D01*
X125753Y165750D01*
Y166250D01*
X126003Y166500D01*
X126753D01*
X125253Y166750D02*
X124254D01*
X123754Y165000D02*
Y166500D01*
X122754D01*
X122004Y165500D02*
X121504D01*
X121255Y165750D01*
Y166500D01*
X122004D01*
X122254Y166250D01*
X122004Y166000D01*
X121255D01*
X120755Y165000D02*
Y166500D01*
X120005D01*
X119755Y166250D01*
Y166000D01*
Y165750D01*
X120005Y165500D01*
X120755D01*
M02*
