G04*
G04 #@! TF.GenerationSoftware,Altium Limited,Altium Designer,18.0.9 (584)*
G04*
G04 Layer_Color=16711935*
%FSLAX25Y25*%
%MOIN*%
G70*
G01*
G75*
%ADD12C,0.01000*%
%ADD13C,0.00500*%
%ADD56C,0.00600*%
G36*
X103378Y156165D02*
Y189654D01*
X115165D01*
Y156165D01*
X103378D01*
D02*
G37*
G36*
X125031Y146291D02*
Y189654D01*
X152657D01*
Y146291D01*
X125031D01*
D02*
G37*
D12*
X213000Y100000D02*
G03*
X217500Y104500I0J4500D01*
G01*
Y196000D02*
G03*
X213000Y200500I-4500J0D01*
G01*
X99500Y104500D02*
G03*
X104000Y100000I4500J0D01*
G01*
Y200500D02*
G03*
X99500Y196000I0J-4500D01*
G01*
Y104500D02*
Y196000D01*
X104000Y100000D02*
X213000Y100000D01*
X217500Y104500D02*
Y196000D01*
X104000Y200500D02*
X213000D01*
D13*
X178348Y165730D02*
X201970D01*
X178348D02*
Y179510D01*
X201970D01*
Y165730D02*
Y179510D01*
X178179Y128880D02*
X201801D01*
Y115100D02*
Y128880D01*
X178179Y115100D02*
X201801D01*
X178179D02*
Y128880D01*
X100622Y140441D02*
X153378D01*
X100622D02*
Y195559D01*
X153378D01*
Y140441D02*
Y195559D01*
D56*
X121960Y113740D02*
G03*
X124360Y113740I1200J0D01*
G01*
X119960Y101940D02*
Y113740D01*
X121960D01*
X124360D01*
X126360D01*
Y101940D02*
Y113740D01*
X119960Y101940D02*
X126360D01*
Y112440D02*
X128560D01*
Y110640D02*
Y112440D01*
X126360Y110640D02*
X128560D01*
X126360D02*
Y112440D01*
Y108740D02*
X128560D01*
Y106940D02*
Y108740D01*
X126360Y106940D02*
X128560D01*
X126360D02*
Y108740D01*
Y105040D02*
X128560D01*
Y103240D02*
Y105040D01*
X126360Y103240D02*
X128560D01*
X126360D02*
Y105040D01*
X117760Y103240D02*
X119960D01*
X117760D02*
Y105040D01*
X119960D01*
Y103240D02*
Y105040D01*
X117760Y106940D02*
X119960D01*
X117760D02*
Y108740D01*
X119960D01*
Y106940D02*
Y108740D01*
X117760Y110640D02*
X119960D01*
X117760D02*
Y112440D01*
X119960D01*
Y110640D02*
Y112440D01*
M02*
