M48
;Layer_Color=9474304
;FILE_FORMAT=2:5
INCH,LZ
;TYPE=PLATED
T1F00S00C0.01500
T2F00S00C0.02362
T3F00S00C0.03543
%
T01
X011639Y011542
X012927Y011478
X0137507Y011952
X014605Y012106
X0157016Y0126574
X016159Y011654
X017422Y011564
X0181905Y0117835
X017894Y012857
X017141Y013132
X016716Y013721
X020124Y013382
X020568Y014041
X021043Y014047
X020589Y015834
X020144Y016813
X019406Y017008
X018983Y017026
X018607Y017292
X017992Y01719
X019931Y017937
X016757Y018828
X013523Y018703
X013471Y018298
X014925Y015914
T02
X01594Y013975
Y014475
Y014975
Y015475
X015942Y016354
Y016854
T03
X010752Y010685
Y011685
X02001Y010737
X02101
X021081Y019515
X020081
M30
