G04*
G04 #@! TF.GenerationSoftware,Altium Limited,Altium Designer,18.0.9 (584)*
G04*
G04 Layer_Color=65535*
%FSLAX25Y25*%
%MOIN*%
G70*
G01*
G75*
%ADD10C,0.00787*%
%ADD11C,0.00984*%
%ADD12C,0.01000*%
%ADD13C,0.00500*%
%ADD14C,0.00300*%
D10*
X214553Y172620D02*
G03*
X214553Y172620I-394J0D01*
G01*
X166384Y121990D02*
G03*
X166384Y121990I-394J0D01*
G01*
X180160Y109923D02*
Y111497D01*
X169893Y114640D02*
X171467D01*
X173118Y103776D02*
Y105744D01*
X197391Y188557D02*
X208809D01*
X197391Y181863D02*
X208809D01*
X197391Y187769D02*
Y188557D01*
Y181863D02*
Y182651D01*
X208809Y187769D02*
Y188557D01*
Y181863D02*
Y182651D01*
X205068Y181863D02*
Y188557D01*
X160683Y127200D02*
X162257D01*
X155857Y158293D02*
X162943D01*
X155857Y136207D02*
Y158293D01*
Y136207D02*
X162943D01*
Y158293D01*
X155877Y159997D02*
X162963D01*
Y172083D01*
X155877D02*
X162963D01*
X155877Y159997D02*
Y172083D01*
X192332Y192093D02*
Y193667D01*
X184800Y196813D02*
Y198387D01*
X195810Y200150D02*
X215810D01*
X195810Y190150D02*
Y200150D01*
Y190150D02*
X215810D01*
Y200150D01*
X213493Y181590D02*
X215067D01*
X215973Y177616D02*
Y179584D01*
X215112Y162486D02*
Y164454D01*
X206322Y146674D02*
X209078D01*
X212522Y146754D02*
X215278D01*
X210810Y143453D02*
Y145027D01*
X213413Y145670D02*
X214987D01*
X215353Y130586D02*
Y132554D01*
X191346Y112852D02*
X193314D01*
X195100Y102370D02*
X215100D01*
Y112370D01*
X195100D02*
X215100D01*
X195100Y102370D02*
Y112370D01*
X170752Y103593D02*
Y105167D01*
X183748Y182436D02*
Y184404D01*
X184851Y187553D02*
Y189127D01*
X155479Y131436D02*
Y133404D01*
X215282Y134366D02*
Y136334D01*
X164923Y109360D02*
X166497D01*
X137168Y107663D02*
Y109237D01*
X137020Y103293D02*
Y104867D01*
X151872Y102831D02*
X155808D01*
X151872Y114249D02*
X155808D01*
Y102831D02*
Y114249D01*
X151872Y102831D02*
Y114249D01*
X127516Y124488D02*
X129484D01*
X133456Y134012D02*
X135424D01*
X148719Y120988D02*
Y133192D01*
X144781Y120988D02*
Y133192D01*
Y120988D02*
X148719D01*
X144781Y133192D02*
X148719D01*
X118969Y122898D02*
Y135102D01*
X115031Y122898D02*
Y135102D01*
Y122898D02*
X118969D01*
X115031Y135102D02*
X118969D01*
X105016Y123929D02*
X106984D01*
X102520Y101850D02*
Y121850D01*
Y101850D02*
X112520D01*
Y121850D01*
X102520D02*
X112520D01*
D11*
X148919Y115528D02*
G03*
X148919Y115528I-492J0D01*
G01*
X141829Y134177D02*
G03*
X141829Y134177I-492J0D01*
G01*
X112079Y136087D02*
G03*
X112079Y136087I-492J0D01*
G01*
D12*
X201084Y163108D02*
G03*
X201084Y163108I-447J0D01*
G01*
D13*
X178348Y165730D02*
X201970D01*
X178348D02*
Y179510D01*
X201970D01*
Y165730D02*
Y179510D01*
X178179Y128880D02*
X201801D01*
Y115100D02*
Y128880D01*
X178179Y115100D02*
X201801D01*
X178179D02*
Y128880D01*
D14*
X183939Y106755D02*
Y108255D01*
X184689D01*
X184939Y108005D01*
Y107505D01*
X184689Y107255D01*
X183939D01*
X184439D02*
X184939Y106755D01*
X185438D02*
X185938D01*
X185688D01*
Y108255D01*
X185438Y108005D01*
X186688D02*
X186938Y108255D01*
X187438D01*
X187688Y108005D01*
Y107755D01*
X187438Y107505D01*
X187188D01*
X187438D01*
X187688Y107255D01*
Y107005D01*
X187438Y106755D01*
X186938D01*
X186688Y107005D01*
X168110Y115880D02*
Y117379D01*
X168860D01*
X169110Y117130D01*
Y116630D01*
X168860Y116380D01*
X168110D01*
X168610D02*
X169110Y115880D01*
X169609D02*
X170109D01*
X169859D01*
Y117379D01*
X169609D01*
X171859D02*
X170859D01*
Y116630D01*
X171359Y116880D01*
X171609D01*
X171859Y116630D01*
Y116130D01*
X171609Y115880D01*
X171109D01*
X170859Y116130D01*
X178850Y108846D02*
X178600Y109096D01*
X178100D01*
X177850Y108846D01*
Y107846D01*
X178100Y107597D01*
X178600D01*
X178850Y107846D01*
X179599Y108846D02*
Y108596D01*
X179349D01*
X179849D01*
X179599D01*
Y107846D01*
X179849Y107597D01*
X180139Y177610D02*
X179889Y177859D01*
X179389D01*
X179139Y177610D01*
Y177360D01*
X179389Y177110D01*
X179889D01*
X180139Y176860D01*
Y176610D01*
X179889Y176360D01*
X179389D01*
X179139Y176610D01*
X180639Y177859D02*
Y176360D01*
X181139Y176860D01*
X181638Y176360D01*
Y177859D01*
X182138Y176360D02*
X182638D01*
X182388D01*
Y177859D01*
X182138Y177610D01*
X158280Y120280D02*
X156781D01*
Y121030D01*
X157030Y121280D01*
X157530D01*
X157780Y121030D01*
Y120280D01*
Y120780D02*
X158280Y121280D01*
X157030Y122779D02*
X156781Y122529D01*
Y122029D01*
X157030Y121780D01*
X157280D01*
X157530Y122029D01*
Y122529D01*
X157780Y122779D01*
X158030D01*
X158280Y122529D01*
Y122029D01*
X158030Y121780D01*
X156781Y123279D02*
Y124279D01*
Y123779D01*
X158280D01*
X119930Y116369D02*
Y115120D01*
X120180Y114870D01*
X120680D01*
X120930Y115120D01*
Y116369D01*
X122429D02*
X121929Y116120D01*
X121430Y115620D01*
Y115120D01*
X121679Y114870D01*
X122179D01*
X122429Y115120D01*
Y115370D01*
X122179Y115620D01*
X121430D01*
X179200Y113540D02*
X178950Y113789D01*
X178450D01*
X178200Y113540D01*
Y113290D01*
X178450Y113040D01*
X178950D01*
X179200Y112790D01*
Y112540D01*
X178950Y112290D01*
X178450D01*
X178200Y112540D01*
X179700Y113789D02*
Y112290D01*
X180199Y112790D01*
X180699Y112290D01*
Y113789D01*
X182199Y112290D02*
X181199D01*
X182199Y113290D01*
Y113540D01*
X181949Y113789D01*
X181449D01*
X181199Y113540D01*
X153130Y160340D02*
X154380D01*
X154630Y160590D01*
Y161090D01*
X154380Y161340D01*
X153130D01*
X154630Y161839D02*
X153630D01*
X153130Y162339D01*
X153630Y162839D01*
X154630D01*
X153880D01*
Y161839D01*
X154630Y163339D02*
X153130D01*
Y164089D01*
X153380Y164339D01*
X153880D01*
X154130Y164089D01*
Y163339D01*
Y163839D02*
X154630Y164339D01*
X153130Y164839D02*
Y165838D01*
Y165338D01*
X154630D01*
X152090Y117040D02*
Y115790D01*
X152340Y115540D01*
X152840D01*
X153090Y115790D01*
Y117040D01*
X154589Y115540D02*
X153589D01*
X154589Y116540D01*
Y116790D01*
X154339Y117040D01*
X153839D01*
X153589Y116790D01*
X202920Y114440D02*
X202670Y114690D01*
X202170D01*
X201920Y114440D01*
Y114190D01*
X202170Y113940D01*
X202670D01*
X202920Y113690D01*
Y113440D01*
X202670Y113190D01*
X202170D01*
X201920Y113440D01*
X204169Y114690D02*
X203669D01*
X203419Y114440D01*
Y113440D01*
X203669Y113190D01*
X204169D01*
X204419Y113440D01*
Y114440D01*
X204169Y114690D01*
X204919D02*
Y113440D01*
X205169Y113190D01*
X205669D01*
X205919Y113440D01*
Y114690D01*
X206419D02*
X207418D01*
X206918D01*
Y113190D01*
X193580Y191317D02*
X193330Y191067D01*
Y190567D01*
X193580Y190317D01*
X193830D01*
X194080Y190567D01*
Y191067D01*
X194330Y191317D01*
X194580D01*
X194830Y191067D01*
Y190567D01*
X194580Y190317D01*
X193330Y191817D02*
Y192317D01*
Y192067D01*
X194830D01*
Y191817D01*
Y192317D01*
Y193067D02*
X193330D01*
X194830Y194066D01*
X193330D01*
X181315Y196753D02*
Y198252D01*
X182065D01*
X182315Y198003D01*
Y197503D01*
X182065Y197253D01*
X181315D01*
X181815D02*
X182315Y196753D01*
X182815D02*
X183564D01*
X183814Y197003D01*
X183564Y197253D01*
X183064D01*
X182815Y197503D01*
X183064Y197753D01*
X183814D01*
X157652Y101755D02*
Y103255D01*
X158402D01*
X158652Y103005D01*
Y102505D01*
X158402Y102255D01*
X157652D01*
X158152D02*
X158652Y101755D01*
X159152D02*
X159902D01*
X160152Y102005D01*
X159902Y102255D01*
X159402D01*
X159152Y102505D01*
X159402Y102755D01*
X160152D01*
X161401Y101755D02*
X160901D01*
X160651Y102005D01*
Y102505D01*
X160901Y102755D01*
X161401D01*
X161651Y102505D01*
Y102255D01*
X160651D01*
X162401Y103005D02*
Y102755D01*
X162151D01*
X162651D01*
X162401D01*
Y102005D01*
X162651Y101755D01*
X178691Y182793D02*
X177192D01*
Y183543D01*
X177442Y183792D01*
X177942D01*
X178191Y183543D01*
Y182793D01*
Y183293D02*
X178691Y183792D01*
X177692Y184292D02*
X178691D01*
X178191D01*
X177942Y184542D01*
X177692Y184792D01*
Y185042D01*
X178691Y186542D02*
Y186042D01*
X178441Y185792D01*
X177942D01*
X177692Y186042D01*
Y186542D01*
X177942Y186792D01*
X178191D01*
Y185792D01*
X177692Y188291D02*
Y187541D01*
X177942Y187291D01*
X178441D01*
X178691Y187541D01*
Y188291D01*
X177442Y189041D02*
X177692D01*
Y188791D01*
Y189291D01*
Y189041D01*
X178441D01*
X178691Y189291D01*
X215374Y124923D02*
X213874D01*
Y125673D01*
X214124Y125923D01*
X214624D01*
X214874Y125673D01*
Y124923D01*
Y125423D02*
X215374Y125923D01*
Y126422D02*
Y126922D01*
Y126672D01*
X213874D01*
Y126422D01*
X215374Y128672D02*
Y127672D01*
X214374Y128672D01*
X214124D01*
X213874Y128422D01*
Y127922D01*
X214124Y127672D01*
X204136Y147200D02*
X202637D01*
Y147949D01*
X202887Y148199D01*
X203387D01*
X203637Y147949D01*
Y147200D01*
Y147699D02*
X204136Y148199D01*
Y148699D02*
Y149199D01*
Y148949D01*
X202637D01*
Y148699D01*
X204136Y149949D02*
Y150449D01*
Y150199D01*
X202637D01*
X202887Y149949D01*
X163271Y106349D02*
Y107848D01*
X164021D01*
X164271Y107598D01*
Y107098D01*
X164021Y106848D01*
X163271D01*
X163771D02*
X164271Y106349D01*
X165271Y105849D02*
X165521D01*
X165770Y106099D01*
Y107348D01*
X165021D01*
X164771Y107098D01*
Y106598D01*
X165021Y106349D01*
X165770D01*
X166270Y107348D02*
Y106349D01*
Y106848D01*
X166520Y107098D01*
X166770Y107348D01*
X167020D01*
X168770Y107848D02*
Y106349D01*
X168020D01*
X167770Y106598D01*
Y107098D01*
X168020Y107348D01*
X168770D01*
X180127Y187743D02*
Y189243D01*
X180877D01*
X181127Y188993D01*
Y188493D01*
X180877Y188243D01*
X180127D01*
X180627D02*
X181127Y187743D01*
X181876D02*
Y188993D01*
Y188493D01*
X181626D01*
X182126D01*
X181876D01*
Y188993D01*
X182126Y189243D01*
X183876Y187743D02*
X182876D01*
X183876Y188743D01*
Y188993D01*
X183626Y189243D01*
X183126D01*
X182876Y188993D01*
X180473Y191852D02*
Y193351D01*
X181223D01*
X181473Y193102D01*
Y192602D01*
X181223Y192352D01*
X180473D01*
X180973D02*
X181473Y191852D01*
X182223D02*
Y193102D01*
Y192602D01*
X181973D01*
X182473D01*
X182223D01*
Y193102D01*
X182473Y193351D01*
X183223Y191852D02*
X183722D01*
X183473D01*
Y193351D01*
X183223Y193102D01*
X137603Y111161D02*
Y112660D01*
X138353D01*
X138603Y112410D01*
Y111911D01*
X138353Y111661D01*
X137603D01*
X138103D02*
X138603Y111161D01*
X140103Y112660D02*
Y111161D01*
X139353D01*
X139103Y111411D01*
Y111911D01*
X139353Y112161D01*
X140103D01*
X140602Y111161D02*
X141102D01*
X140852D01*
Y112161D01*
X140602D01*
X141852D02*
X142352Y111161D01*
X142852Y112161D01*
X144351Y111161D02*
X143352D01*
X144351Y112161D01*
Y112410D01*
X144101Y112660D01*
X143602D01*
X143352Y112410D01*
X137652Y113685D02*
Y115184D01*
X138402D01*
X138652Y114934D01*
Y114435D01*
X138402Y114184D01*
X137652D01*
X138152D02*
X138652Y113685D01*
X140151Y115184D02*
Y113685D01*
X139401D01*
X139151Y113935D01*
Y114435D01*
X139401Y114684D01*
X140151D01*
X140651Y113685D02*
X141151D01*
X140901D01*
Y114684D01*
X140651D01*
X141901D02*
X142400Y113685D01*
X142900Y114684D01*
X143400Y113685D02*
X143900D01*
X143650D01*
Y115184D01*
X143400Y114934D01*
X153191Y137490D02*
Y136990D01*
Y137240D01*
X154440D01*
X154690Y136990D01*
Y136740D01*
X154440Y136490D01*
X153191Y137989D02*
Y138989D01*
Y138489D01*
X154690D01*
Y139489D02*
X153690D01*
X153191Y139989D01*
X153690Y140489D01*
X154690D01*
X153940D01*
Y139489D01*
X153440Y141988D02*
X153191Y141738D01*
Y141238D01*
X153440Y140989D01*
X154440D01*
X154690Y141238D01*
Y141738D01*
X154440Y141988D01*
X153940D01*
Y141488D01*
X212460Y158375D02*
Y156876D01*
X213210D01*
X213459Y157126D01*
Y158125D01*
X213210Y158375D01*
X212460D01*
X213959Y158125D02*
X214209Y158375D01*
X214709D01*
X214959Y158125D01*
Y157876D01*
X214709Y157626D01*
X214459D01*
X214709D01*
X214959Y157376D01*
Y157126D01*
X214709Y156876D01*
X214209D01*
X213959Y157126D01*
X202637Y152199D02*
X204136D01*
Y152949D01*
X203887Y153199D01*
X202887D01*
X202637Y152949D01*
Y152199D01*
X204136Y154699D02*
Y153699D01*
X203137Y154699D01*
X202887D01*
X202637Y154449D01*
Y153949D01*
X202887Y153699D01*
X201210Y185679D02*
Y184180D01*
X201960D01*
X202210Y184430D01*
Y185430D01*
X201960Y185679D01*
X201210D01*
X202710Y184180D02*
X203209D01*
X202959D01*
Y185679D01*
X202710Y185430D01*
X181275Y184439D02*
X181025Y184688D01*
X180525D01*
X180275Y184439D01*
Y183439D01*
X180525Y183189D01*
X181025D01*
X181275Y183439D01*
X181775Y183189D02*
X182525D01*
X182775Y183439D01*
X182525Y183689D01*
X182025D01*
X181775Y183939D01*
X182025Y184189D01*
X182775D01*
X216226Y174121D02*
X216476Y174371D01*
Y174871D01*
X216226Y175121D01*
X215227D01*
X214977Y174871D01*
Y174371D01*
X215227Y174121D01*
X215976Y173621D02*
X214977D01*
X215476D01*
X215726Y173371D01*
X215976Y173121D01*
Y172871D01*
X214977Y171372D02*
Y171872D01*
X215227Y172122D01*
X215726D01*
X215976Y171872D01*
Y171372D01*
X215726Y171122D01*
X215476D01*
Y172122D01*
X215976Y169623D02*
Y170372D01*
X215726Y170622D01*
X215227D01*
X214977Y170372D01*
Y169623D01*
X216226Y168873D02*
X215976D01*
Y169123D01*
Y168623D01*
Y168873D01*
X215227D01*
X214977Y168623D01*
X188630Y105032D02*
X188380Y104782D01*
Y104282D01*
X188630Y104032D01*
X189629D01*
X189879Y104282D01*
Y104782D01*
X189629Y105032D01*
X189879Y105532D02*
Y106032D01*
Y105782D01*
X188380D01*
Y105532D01*
X189879Y107031D02*
Y107531D01*
X189629Y107781D01*
X189129D01*
X188880Y107531D01*
Y107031D01*
X189129Y106781D01*
X189629D01*
X189879Y107031D01*
X188880Y108531D02*
Y109031D01*
X189129Y109281D01*
X189879D01*
Y108531D01*
X189629Y108281D01*
X189380Y108531D01*
Y109281D01*
X188380Y110780D02*
X189879D01*
Y110030D01*
X189629Y109781D01*
X189129D01*
X188880Y110030D01*
Y110780D01*
X209471Y127556D02*
X209221Y127306D01*
Y126806D01*
X209471Y126557D01*
X210471D01*
X210720Y126806D01*
Y127306D01*
X210471Y127556D01*
X209221Y128056D02*
X210720D01*
Y128806D01*
X210471Y129056D01*
X210221D01*
X209971Y128806D01*
Y128056D01*
Y128806D01*
X209721Y129056D01*
X209471D01*
X209221Y128806D01*
Y128056D01*
X206940Y127470D02*
X206691Y127220D01*
Y126720D01*
X206940Y126470D01*
X207940D01*
X208190Y126720D01*
Y127220D01*
X207940Y127470D01*
X208190Y127970D02*
X207190D01*
X206691Y128469D01*
X207190Y128969D01*
X208190D01*
X207440D01*
Y127970D01*
X209762Y160823D02*
X209512Y161073D01*
X209012D01*
X208762Y160823D01*
Y159823D01*
X209012Y159573D01*
X209512D01*
X209762Y159823D01*
X210261Y159573D02*
X210761D01*
X210511D01*
Y161073D01*
X210261Y160823D01*
X211511Y159573D02*
X212011D01*
X211761D01*
Y161073D01*
X211511Y160823D01*
X153284Y134140D02*
X153034Y133890D01*
Y133390D01*
X153284Y133141D01*
X154284D01*
X154534Y133390D01*
Y133890D01*
X154284Y134140D01*
X154534Y135390D02*
X153034D01*
X153784Y134640D01*
Y135640D01*
X147249Y128590D02*
X146000D01*
X145750Y128340D01*
Y127840D01*
X146000Y127590D01*
X147249D01*
X145750Y126341D02*
X147249D01*
X146500Y127091D01*
Y126091D01*
X117499Y130500D02*
X116250D01*
X116000Y130250D01*
Y129750D01*
X116250Y129500D01*
X117499D01*
X117250Y129000D02*
X117499Y128751D01*
Y128251D01*
X117250Y128001D01*
X117000D01*
X116750Y128251D01*
Y128501D01*
Y128251D01*
X116500Y128001D01*
X116250D01*
X116000Y128251D01*
Y128751D01*
X116250Y129000D01*
X184910Y153680D02*
Y152430D01*
X185160Y152180D01*
X185660D01*
X185910Y152430D01*
Y153680D01*
X186409Y152180D02*
X186909D01*
X186659D01*
Y153680D01*
X186409Y153430D01*
X136750Y165000D02*
X136501Y164750D01*
Y164250D01*
X136750Y164000D01*
X137000D01*
X137250Y164250D01*
Y164750D01*
X137500Y165000D01*
X137750D01*
X138000Y164750D01*
Y164250D01*
X137750Y164000D01*
X138000Y165499D02*
X136501D01*
Y166249D01*
X136750Y166499D01*
X137250D01*
X137500Y166249D01*
Y165499D01*
X138000Y166999D02*
Y167499D01*
Y167249D01*
X136501D01*
X136750Y166999D01*
X138000Y168249D02*
X136501D01*
X137000Y168748D01*
X136501Y169248D01*
X138000D01*
X136501Y169748D02*
X138000D01*
Y170748D01*
X113790Y121930D02*
X115289D01*
Y121180D01*
X115040Y120930D01*
X114540D01*
X114290Y121180D01*
Y121930D01*
X115289Y120431D02*
Y119931D01*
Y120181D01*
X113790D01*
Y120431D01*
Y119931D01*
Y119181D02*
X115289D01*
X113790Y118181D01*
X115289D01*
X102195Y127755D02*
X101945Y127505D01*
Y127005D01*
X102195Y126755D01*
X103195D01*
X103445Y127005D01*
Y127505D01*
X103195Y127755D01*
X102195Y128255D02*
X101945Y128505D01*
Y129005D01*
X102195Y129255D01*
X102445D01*
X102695Y129005D01*
Y128755D01*
Y129005D01*
X102945Y129255D01*
X103195D01*
X103445Y129005D01*
Y128505D01*
X103195Y128255D01*
X128256Y123251D02*
X128006Y123501D01*
X127506D01*
X127256Y123251D01*
Y122251D01*
X127506Y122001D01*
X128006D01*
X128256Y122251D01*
X129755Y122001D02*
X128756D01*
X129755Y123001D01*
Y123251D01*
X129505Y123501D01*
X129006D01*
X128756Y123251D01*
X134790Y123003D02*
X134540Y123253D01*
X134040D01*
X133791Y123003D01*
Y122004D01*
X134040Y121754D01*
X134540D01*
X134790Y122004D01*
X135290Y121754D02*
X135790D01*
X135540D01*
Y123253D01*
X135290Y123003D01*
M02*
