G04*
G04 #@! TF.GenerationSoftware,Altium Limited,Altium Designer,18.0.9 (584)*
G04*
G04 Layer_Color=32768*
%FSLAX25Y25*%
%MOIN*%
G70*
G01*
G75*
%ADD15C,0.00394*%
%ADD67C,0.00197*%
D15*
X206819Y152500D02*
X209181D01*
X208000Y151319D02*
Y153681D01*
X205244Y147874D02*
Y157126D01*
X210756Y147874D02*
Y157126D01*
X205244Y147874D02*
X210756D01*
X205244Y157126D02*
X210756D01*
X212319Y152500D02*
X214681D01*
X213500Y151319D02*
Y153681D01*
X210744Y147874D02*
Y157126D01*
X216256Y147874D02*
Y157126D01*
X210744Y147874D02*
X216256D01*
X210744Y157126D02*
X216256D01*
X206032Y158260D02*
X209969D01*
X206032Y165740D02*
X209969D01*
X208000Y160819D02*
Y163181D01*
X206819Y162000D02*
X209181D01*
X206032Y158260D02*
Y165740D01*
X209969Y158260D02*
Y165740D01*
X211532Y158260D02*
X215469D01*
X211532Y165740D02*
X215469D01*
X213500Y160819D02*
Y163181D01*
X212319Y162000D02*
X214681D01*
X211532Y158260D02*
Y165740D01*
X215469Y158260D02*
Y165740D01*
X166272Y144532D02*
Y148469D01*
X158791Y144532D02*
Y148469D01*
X161350Y146500D02*
X163713D01*
X162532Y145319D02*
Y147681D01*
X158791Y144532D02*
X166272D01*
X158791Y148469D02*
X166272D01*
X167291Y197969D02*
X174772D01*
X167291Y194032D02*
X174772D01*
X171032Y194819D02*
Y197181D01*
X169850Y196000D02*
X172213D01*
X167291Y194032D02*
Y197969D01*
X174772Y194032D02*
Y197969D01*
X123500Y108532D02*
Y112469D01*
X121531Y110500D02*
X125469D01*
X135272Y119032D02*
Y122969D01*
X127791Y119032D02*
Y122969D01*
X130350Y121000D02*
X132713D01*
X131532Y119819D02*
Y122181D01*
X127791Y119032D02*
X135272D01*
X127791Y122969D02*
X135272D01*
X117000Y127032D02*
Y130969D01*
X115031Y129000D02*
X118969D01*
D67*
X115232Y103413D02*
X131768D01*
X115232Y117587D02*
X131768D01*
Y103413D02*
Y117587D01*
X115232Y103413D02*
Y117587D01*
X108732Y121913D02*
X125268D01*
X108732Y136087D02*
X125268D01*
Y121913D02*
Y136087D01*
X108732Y121913D02*
Y136087D01*
M02*
