G04*
G04 #@! TF.GenerationSoftware,Altium Limited,Altium Designer,18.0.9 (584)*
G04*
G04 Layer_Color=16711935*
%FSLAX25Y25*%
%MOIN*%
G70*
G01*
G75*
%ADD11C,0.00500*%
%ADD12C,0.00600*%
%ADD14C,0.01000*%
%ADD65C,0.00000*%
G36*
X103378Y156165D02*
Y189654D01*
X115165D01*
Y156165D01*
X103378D01*
D02*
G37*
G36*
X125031Y146291D02*
Y189654D01*
X152657D01*
Y146291D01*
X125031D01*
D02*
G37*
D11*
X183713Y166000D02*
G03*
X183713Y166000I-24213J0D01*
G01*
X181547D02*
G03*
X181547Y166000I-22047J0D01*
G01*
X202442Y170690D02*
Y184470D01*
X178820D02*
X202442D01*
X178820Y170690D02*
Y184470D01*
Y170690D02*
X202442D01*
X178689Y115610D02*
Y129390D01*
Y115610D02*
X202311D01*
Y129390D01*
X178689D02*
X202311D01*
X153378Y140441D02*
Y195559D01*
X100622D02*
X153378D01*
X100622Y140441D02*
Y195559D01*
Y140441D02*
X153378D01*
D12*
X189600Y100600D02*
G03*
X187200Y100600I-1200J0D01*
G01*
X150800Y132808D02*
G03*
X153200Y132892I1200J42D01*
G01*
X191600Y100600D02*
Y112400D01*
X189600Y100600D02*
X191600D01*
X187200D02*
X189600D01*
X185200D02*
X187200D01*
X185200D02*
Y112400D01*
X191600D01*
X183000Y101900D02*
X185200D01*
X183000D02*
Y103700D01*
X185200D01*
Y101900D02*
Y103700D01*
X183000Y105600D02*
X185200D01*
X183000D02*
Y107400D01*
X185200D01*
Y105600D02*
Y107400D01*
X183000Y109300D02*
X185200D01*
X183000D02*
Y111100D01*
X185200D01*
Y109300D02*
Y111100D01*
X191600D02*
X193800D01*
Y109300D02*
Y111100D01*
X191600Y109300D02*
X193800D01*
X191600D02*
Y111100D01*
Y107400D02*
X193800D01*
Y105600D02*
Y107400D01*
X191600Y105600D02*
X193800D01*
X191600D02*
Y107400D01*
Y103700D02*
X193800D01*
Y101900D02*
Y103700D01*
X191600Y101900D02*
X193800D01*
X191600D02*
Y103700D01*
X144200Y129600D02*
Y131400D01*
X139800D02*
X144200D01*
X139800Y129500D02*
Y131400D01*
Y129500D02*
X144200Y129600D01*
Y124600D02*
Y126400D01*
X139800D02*
X144200D01*
X139800Y124500D02*
Y126400D01*
Y124500D02*
X144200Y124600D01*
Y119600D02*
Y121400D01*
X139800D02*
X144200D01*
X139800Y119500D02*
Y121400D01*
Y119500D02*
X144200Y119600D01*
Y114600D02*
Y116400D01*
X139800D02*
X144200D01*
X139800Y114500D02*
Y116400D01*
Y114500D02*
X144200Y114600D01*
X159800D02*
Y116400D01*
Y114600D02*
X164200D01*
Y116500D01*
X159800Y116400D02*
X164200Y116500D01*
X159800Y119600D02*
Y121400D01*
Y119600D02*
X164200D01*
Y121500D01*
X159800Y121400D02*
X164200Y121500D01*
X159800Y124600D02*
Y126400D01*
Y124600D02*
X164200D01*
Y126500D01*
X159800Y126400D02*
X164200Y126500D01*
X159800Y129600D02*
Y131400D01*
Y129600D02*
X164200D01*
Y131500D01*
X159800Y131400D02*
X164200Y131500D01*
X144200Y113200D02*
X159800D01*
Y132800D01*
X150800D02*
X159800D01*
X144200D02*
X150800D01*
X144200Y113200D02*
Y132800D01*
D14*
X216500Y196000D02*
G03*
X212000Y200500I-4500J0D01*
G01*
X211941Y99441D02*
G03*
X216500Y104000I0J4559D01*
G01*
X99500Y104500D02*
G03*
X104000Y100000I4500J0D01*
G01*
Y200500D02*
G03*
X99500Y196000I0J-4500D01*
G01*
X104000Y200500D02*
X211500D01*
X104500Y100000D02*
X213000Y99500D01*
X216500Y195500D02*
X216559Y104059D01*
X99500Y104500D02*
Y196000D01*
D65*
X161350Y192790D02*
G03*
X163750Y192790I1200J0D01*
G01*
X159850Y184190D02*
X165250D01*
Y185390D01*
Y186490D01*
Y187890D01*
Y189090D01*
Y190490D01*
Y191590D01*
Y192790D01*
X163750D02*
X165250D01*
X161350D02*
X163750D01*
X159850D02*
X161350D01*
X159850Y191590D02*
Y192790D01*
Y190490D02*
Y191590D01*
Y189090D02*
Y190490D01*
Y187890D02*
Y189090D01*
Y186490D02*
Y187890D01*
Y185390D02*
Y186490D01*
Y184190D02*
Y185390D01*
X158250Y191590D02*
X159850D01*
X158250Y190490D02*
Y191590D01*
Y190490D02*
X159850D01*
X158250Y189090D02*
X159850D01*
X158250Y187890D02*
Y189090D01*
Y187890D02*
X159850D01*
X158250Y186490D02*
X159850D01*
X158250Y185390D02*
Y186490D01*
Y185390D02*
X159850D01*
X165250D02*
X166850D01*
Y186490D01*
X165250D02*
X166850D01*
X165250Y187890D02*
X166850D01*
Y189090D01*
X165250D02*
X166850D01*
X165250Y190490D02*
X166850D01*
Y191590D01*
X165250D02*
X166850D01*
M02*
