G04*
G04 #@! TF.GenerationSoftware,Altium Limited,Altium Designer,18.0.9 (584)*
G04*
G04 Layer_Color=16711935*
%FSLAX25Y25*%
%MOIN*%
G70*
G01*
G75*
%ADD48C,0.05740*%
%ADD49R,0.05740X0.05740*%
%ADD50R,0.04528X0.04528*%
%ADD51C,0.04528*%
%ADD52C,0.06496*%
%ADD53R,0.06496X0.06496*%
%ADD54R,0.06496X0.06496*%
%ADD55C,0.03591*%
D48*
X159500Y178795D02*
D03*
D49*
Y153205D02*
D03*
D50*
X146000Y104500D02*
D03*
X169500D02*
D03*
D51*
X141000D02*
D03*
X164500D02*
D03*
X159500D02*
D03*
X154500D02*
D03*
D52*
X198500Y192500D02*
D03*
X105500Y116000D02*
D03*
D53*
X208500Y192500D02*
D03*
D54*
X105500Y106000D02*
D03*
D55*
X141950Y178860D02*
D03*
X154490Y195500D02*
D03*
X153000Y186500D02*
D03*
X163500Y182000D02*
D03*
X156130Y182570D02*
D03*
X170930Y192570D02*
D03*
X174420Y184630D02*
D03*
X178200Y188500D02*
D03*
X171600Y188400D02*
D03*
X185000Y177500D02*
D03*
X193000Y174000D02*
D03*
X195000Y177500D02*
D03*
X145730Y189060D02*
D03*
X134420Y160840D02*
D03*
X148000Y153500D02*
D03*
X189800Y185700D02*
D03*
X186000Y181500D02*
D03*
X149000Y158500D02*
D03*
X178500Y171500D02*
D03*
X159500Y142500D02*
D03*
X165000Y142000D02*
D03*
X172500Y114890D02*
D03*
X125000Y189500D02*
D03*
X177000Y109500D02*
D03*
X184500Y123500D02*
D03*
X166000Y150000D02*
D03*
X164500Y159500D02*
D03*
X153500Y123500D02*
D03*
X151000Y118000D02*
D03*
X145500Y135000D02*
D03*
X199500Y136500D02*
D03*
X138000Y163500D02*
D03*
Y150000D02*
D03*
X112500Y108500D02*
D03*
X113500Y118500D02*
D03*
X123500Y118000D02*
D03*
X207500Y169500D02*
D03*
X213500Y169000D02*
D03*
X181000Y129000D02*
D03*
X170000Y133000D02*
D03*
X168000Y114500D02*
D03*
X141500Y135000D02*
D03*
X129500Y186000D02*
D03*
X176500Y105000D02*
D03*
M02*
