G04*
G04 #@! TF.GenerationSoftware,Altium Limited,Altium Designer,18.0.9 (584)*
G04*
G04 Layer_Physical_Order=2*
G04 Layer_Color=16711680*
%FSLAX25Y25*%
%MOIN*%
G70*
G01*
G75*
%ADD14C,0.01000*%
%ADD56C,0.01200*%
%ADD57C,0.05150*%
%ADD58R,0.05150X0.05150*%
%ADD59R,0.03937X0.03937*%
%ADD60C,0.03937*%
%ADD61C,0.05906*%
%ADD62R,0.05906X0.05906*%
%ADD63R,0.05906X0.05906*%
%ADD64C,0.03000*%
G36*
X213013Y199339D02*
X213645Y199077D01*
X214213Y198697D01*
X214697Y198213D01*
X215077Y197645D01*
X215339Y197013D01*
X215472Y196342D01*
Y196067D01*
X215469Y196035D01*
X215471Y196024D01*
X215422Y195779D01*
X215422Y195722D01*
X215472Y195468D01*
X215488Y170705D01*
X215132Y170561D01*
X214988Y170531D01*
X214319Y170978D01*
X213500Y171141D01*
X213037Y171049D01*
X210071Y174015D01*
X209708Y174258D01*
X209278Y174343D01*
X209278Y174343D01*
X203893D01*
X199943Y178293D01*
X199579Y178536D01*
X199150Y178622D01*
X199150Y178622D01*
X196776D01*
X196514Y179014D01*
X195819Y179478D01*
X195000Y179641D01*
X194181Y179478D01*
X193486Y179014D01*
X193022Y178319D01*
X192859Y177500D01*
X193022Y176681D01*
X193078Y176597D01*
X192807Y176103D01*
X192181Y175978D01*
X191732Y175678D01*
X191232Y175945D01*
Y181360D01*
X191146Y181789D01*
X190903Y182153D01*
X190903Y182153D01*
X189973Y183083D01*
X190137Y183626D01*
X190619Y183722D01*
X191314Y184186D01*
X191778Y184881D01*
X191941Y185700D01*
X191778Y186519D01*
X191314Y187214D01*
X190619Y187678D01*
X189800Y187841D01*
X188981Y187678D01*
X188286Y187214D01*
X188121Y187198D01*
X183426Y191893D01*
X183062Y192136D01*
X182633Y192222D01*
X182633Y192222D01*
X177123D01*
X177123Y192222D01*
X176694Y192136D01*
X176330Y191893D01*
X173970Y189533D01*
X173326Y189596D01*
X173114Y189914D01*
X172419Y190378D01*
X172350Y190392D01*
X172245Y190923D01*
X172444Y191056D01*
X172908Y191751D01*
X173071Y192570D01*
X172908Y193389D01*
X172444Y194084D01*
X171749Y194548D01*
X170930Y194711D01*
X170467Y194619D01*
X166193Y198893D01*
X166075Y198972D01*
X166226Y199472D01*
X211433D01*
X211465Y199469D01*
X211476Y199471D01*
X211722Y199422D01*
X211778D01*
X212032Y199472D01*
X212342D01*
X213013Y199339D01*
D02*
G37*
G36*
X168881Y193033D02*
X168789Y192570D01*
X168952Y191751D01*
X169416Y191056D01*
X170111Y190592D01*
X170180Y190578D01*
X170285Y190047D01*
X170086Y189914D01*
X169622Y189219D01*
X169459Y188400D01*
X169622Y187581D01*
X170086Y186886D01*
X170478Y186624D01*
Y183741D01*
X170017Y183550D01*
X168922Y184644D01*
X168865Y184729D01*
X166229Y187365D01*
X165832Y187630D01*
X165364Y187724D01*
X154708D01*
X154514Y188014D01*
X153819Y188478D01*
X153000Y188641D01*
X152181Y188478D01*
X151486Y188014D01*
X151412Y187903D01*
X150912Y188054D01*
Y190335D01*
X154027Y193451D01*
X154490Y193359D01*
X155309Y193522D01*
X156004Y193986D01*
X156468Y194681D01*
X156631Y195500D01*
X156468Y196319D01*
X156322Y196537D01*
X156558Y196978D01*
X164935D01*
X168881Y193033D01*
D02*
G37*
G36*
X152658Y196537D02*
X152512Y196319D01*
X152349Y195500D01*
X152441Y195037D01*
X148997Y191593D01*
X148754Y191229D01*
X148668Y190800D01*
X148669Y190800D01*
Y185233D01*
X148668Y185233D01*
X148754Y184804D01*
X148997Y184440D01*
X155435Y178002D01*
X155435Y178002D01*
X155799Y177759D01*
X156228Y177674D01*
X156528D01*
X156727Y177194D01*
X157236Y176531D01*
X157899Y176022D01*
X158671Y175702D01*
X159500Y175593D01*
X160329Y175702D01*
X161101Y176022D01*
X161764Y176531D01*
X161776Y176547D01*
X162276Y176377D01*
Y167391D01*
X160935Y166049D01*
X160670Y165652D01*
X160576Y165184D01*
Y162207D01*
X160076Y162000D01*
X146852Y175225D01*
Y187284D01*
X147244Y187546D01*
X147708Y188241D01*
X147871Y189060D01*
X147708Y189879D01*
X147244Y190574D01*
X146549Y191038D01*
X146292Y191089D01*
X146147Y191568D01*
X151558Y196978D01*
X152422D01*
X152658Y196537D01*
D02*
G37*
G36*
X150418Y198972D02*
X150300Y198893D01*
X150300Y198893D01*
X141157Y189750D01*
X140914Y189386D01*
X140828Y188957D01*
X140828Y188957D01*
Y180636D01*
X140436Y180374D01*
X139972Y179679D01*
X139809Y178860D01*
X139972Y178041D01*
X140436Y177346D01*
X141131Y176882D01*
X141950Y176719D01*
X142769Y176882D01*
X143464Y177346D01*
X143928Y178041D01*
X144091Y178860D01*
X143928Y179679D01*
X143464Y180374D01*
X143072Y180636D01*
Y188169D01*
X143231Y188294D01*
X143388Y188278D01*
X143828Y188126D01*
X144216Y187546D01*
X144608Y187284D01*
Y174760D01*
X144608Y174760D01*
X144694Y174331D01*
X144937Y173967D01*
X158378Y160525D01*
Y156380D01*
X156325D01*
Y150030D01*
X162675D01*
Y154682D01*
X163137Y154873D01*
X165515Y152494D01*
X165370Y152016D01*
X165181Y151978D01*
X164486Y151514D01*
X164022Y150819D01*
X163859Y150000D01*
X163951Y149537D01*
X162197Y147783D01*
X161954Y147419D01*
X161868Y146990D01*
X161869Y146990D01*
Y144132D01*
X161670Y143933D01*
X161382Y143902D01*
X161058Y143948D01*
X161014Y144014D01*
X160319Y144478D01*
X159900Y144562D01*
Y142500D01*
Y140438D01*
X160319Y140522D01*
X160778Y140829D01*
X161278Y140561D01*
Y120100D01*
X161278Y120100D01*
X161364Y119671D01*
X161607Y119307D01*
X165951Y114963D01*
X165859Y114500D01*
X166022Y113681D01*
X166486Y112986D01*
X167181Y112522D01*
X168000Y112359D01*
X168819Y112522D01*
X169514Y112986D01*
X169978Y113681D01*
X170035Y113967D01*
X170356Y114035D01*
X170555Y114020D01*
X170986Y113376D01*
X171681Y112912D01*
X172500Y112749D01*
X173319Y112912D01*
X174014Y113376D01*
X174478Y114071D01*
X174641Y114890D01*
X174478Y115709D01*
X174014Y116404D01*
X173319Y116868D01*
X172500Y117031D01*
X172037Y116939D01*
X166122Y122855D01*
Y140224D01*
X166514Y140486D01*
X166978Y141181D01*
X167141Y142000D01*
X166978Y142819D01*
X166514Y143514D01*
X165819Y143978D01*
X165000Y144141D01*
X164612Y144064D01*
X164112Y144474D01*
Y146525D01*
X165537Y147951D01*
X166000Y147859D01*
X166819Y148022D01*
X167514Y148486D01*
X167978Y149181D01*
X167994Y149263D01*
X168501Y149432D01*
X168777Y149204D01*
Y134708D01*
X168486Y134514D01*
X168022Y133819D01*
X167859Y133000D01*
X168022Y132181D01*
X168486Y131486D01*
X169181Y131022D01*
X170000Y130859D01*
X170819Y131022D01*
X171514Y131486D01*
X171978Y132181D01*
X172141Y133000D01*
X171978Y133819D01*
X171514Y134514D01*
X171223Y134708D01*
Y149818D01*
X171130Y150287D01*
X170865Y150683D01*
X167983Y153565D01*
X167747Y153723D01*
X164601Y156869D01*
X164766Y157412D01*
X165319Y157522D01*
X166014Y157986D01*
X166478Y158681D01*
X166641Y159500D01*
X166478Y160319D01*
X166014Y161014D01*
X165622Y161276D01*
Y165015D01*
X170985Y170378D01*
X176724D01*
X176986Y169986D01*
X177681Y169522D01*
X178500Y169359D01*
X179319Y169522D01*
X180014Y169986D01*
X180478Y170681D01*
X180641Y171500D01*
X180478Y172319D01*
X180014Y173014D01*
X179319Y173478D01*
X178500Y173641D01*
X177681Y173478D01*
X176986Y173014D01*
X176724Y172622D01*
X170520D01*
X170520Y172622D01*
X170091Y172536D01*
X169727Y172293D01*
X169727Y172293D01*
X165185Y167752D01*
X164724Y167943D01*
Y180292D01*
X165014Y180486D01*
X165478Y181181D01*
X165524Y181412D01*
X166003Y181557D01*
X171235Y176325D01*
X171632Y176060D01*
X172100Y175967D01*
X183515D01*
X183776Y175792D01*
Y133507D01*
X181343Y131073D01*
X181000Y131141D01*
X180181Y130978D01*
X179486Y130514D01*
X179022Y129819D01*
X178859Y129000D01*
X179022Y128181D01*
X179486Y127486D01*
X180181Y127022D01*
X181000Y126859D01*
X181819Y127022D01*
X182514Y127486D01*
X182978Y128181D01*
X183141Y129000D01*
X183073Y129343D01*
X185865Y132135D01*
X186130Y132532D01*
X186223Y133000D01*
Y175792D01*
X186514Y175986D01*
X186978Y176681D01*
X187141Y177500D01*
X186978Y178319D01*
X186551Y178959D01*
X186599Y179243D01*
X186692Y179497D01*
X186819Y179522D01*
X187514Y179986D01*
X187978Y180681D01*
X188064Y181113D01*
X188607Y181277D01*
X188988Y180895D01*
Y129575D01*
X184963Y125549D01*
X184500Y125641D01*
X183681Y125478D01*
X182986Y125014D01*
X182522Y124319D01*
X182359Y123500D01*
X182522Y122681D01*
X182986Y121986D01*
X183681Y121522D01*
X184500Y121359D01*
X185319Y121522D01*
X186014Y121986D01*
X186478Y122681D01*
X186641Y123500D01*
X186549Y123963D01*
X190903Y128317D01*
X190903Y128317D01*
X191146Y128681D01*
X191232Y129110D01*
X191232Y129110D01*
Y172055D01*
X191732Y172322D01*
X192181Y172022D01*
X193000Y171859D01*
X193819Y172022D01*
X194514Y172486D01*
X194776Y172878D01*
X198165D01*
X201647Y169397D01*
X201647Y169397D01*
X202011Y169154D01*
X202440Y169069D01*
X205445D01*
X205522Y168681D01*
X205986Y167986D01*
X206681Y167522D01*
X207500Y167359D01*
X208319Y167522D01*
X209014Y167986D01*
X209478Y168681D01*
X209641Y169500D01*
X209478Y170319D01*
X209014Y171014D01*
X208319Y171478D01*
X207707Y171600D01*
X207756Y172100D01*
X208814D01*
X211451Y169463D01*
X211359Y169000D01*
X211522Y168181D01*
X211986Y167486D01*
X212681Y167022D01*
X213500Y166859D01*
X214319Y167022D01*
X214990Y167470D01*
X215125Y167442D01*
X215490Y167299D01*
X215531Y104122D01*
X215529Y104103D01*
X215488Y103951D01*
X215465Y103621D01*
X215354Y103052D01*
X215164Y102531D01*
X214896Y102047D01*
X214555Y101610D01*
X214150Y101231D01*
X213691Y100921D01*
X213189Y100686D01*
X212923Y100609D01*
X212770Y100529D01*
X212725Y100529D01*
X212605Y100506D01*
X212483Y100511D01*
X212416Y100501D01*
X212281Y100485D01*
X212145Y100475D01*
X212009Y100469D01*
X212007D01*
X211976Y100472D01*
X211964Y100470D01*
X211731Y100518D01*
X104571Y101028D01*
X104539Y101030D01*
X104526Y101029D01*
X104278Y101078D01*
X104276Y101078D01*
X104274Y101078D01*
X104218Y101078D01*
X103968Y101028D01*
X103658D01*
X102987Y101161D01*
X102355Y101423D01*
X101787Y101803D01*
X101303Y102287D01*
X100923Y102855D01*
X100661Y103487D01*
X100528Y104158D01*
Y104500D01*
Y143820D01*
X125250D01*
X125331Y182520D01*
X125794Y182711D01*
X143488Y165016D01*
Y156890D01*
X143488Y156890D01*
X143574Y156461D01*
X143817Y156097D01*
X145951Y153963D01*
X145859Y153500D01*
X146016Y152712D01*
X145994Y152681D01*
X145514Y152506D01*
X139224Y158797D01*
Y161792D01*
X139514Y161986D01*
X139978Y162681D01*
X140141Y163500D01*
X139978Y164319D01*
X139514Y165014D01*
X138819Y165478D01*
X138000Y165641D01*
X137181Y165478D01*
X136486Y165014D01*
X136022Y164319D01*
X135859Y163500D01*
X135972Y162930D01*
X135522Y162629D01*
X135239Y162818D01*
X134420Y162981D01*
X133601Y162818D01*
X132906Y162354D01*
X132442Y161659D01*
X132279Y160840D01*
X132442Y160021D01*
X132906Y159326D01*
X133299Y159064D01*
Y157330D01*
X133298Y157330D01*
X133384Y156901D01*
X133627Y156537D01*
X137594Y152570D01*
X137429Y152028D01*
X137181Y151978D01*
X136486Y151514D01*
X136022Y150819D01*
X135859Y150000D01*
X135951Y149537D01*
X110107Y123693D01*
X109864Y123329D01*
X109778Y122900D01*
X109778Y122900D01*
Y117423D01*
X109778Y117423D01*
X109864Y116994D01*
X110107Y116630D01*
X111378Y115358D01*
Y110276D01*
X110986Y110014D01*
X110522Y109319D01*
X110359Y108500D01*
X110522Y107681D01*
X110666Y107465D01*
X110431Y107024D01*
X109053D01*
Y109553D01*
X101947D01*
Y102447D01*
X109053D01*
Y104577D01*
X137819D01*
X137918Y104596D01*
X137987Y104583D01*
X138446Y104220D01*
X138498Y103830D01*
X138756Y103205D01*
X139168Y102668D01*
X139705Y102256D01*
X140330Y101998D01*
X141000Y101909D01*
X141671Y101998D01*
X142295Y102256D01*
X142832Y102668D01*
X142931Y102798D01*
X143431Y102628D01*
Y101932D01*
X148568D01*
Y106445D01*
X152125D01*
X152371Y105945D01*
X152256Y105795D01*
X151998Y105171D01*
X151962Y104900D01*
X154500D01*
Y104500D01*
X154900D01*
Y101962D01*
X155171Y101998D01*
X155795Y102256D01*
X156332Y102668D01*
X156725Y103181D01*
X156995Y103220D01*
X157005D01*
X157275Y103181D01*
X157668Y102668D01*
X158205Y102256D01*
X158829Y101998D01*
X159500Y101909D01*
X160170Y101998D01*
X160795Y102256D01*
X161332Y102668D01*
X161725Y103181D01*
X161995Y103220D01*
X162005D01*
X162275Y103181D01*
X162668Y102668D01*
X163205Y102256D01*
X163830Y101998D01*
X164500Y101909D01*
X165171Y101998D01*
X165795Y102256D01*
X166332Y102668D01*
X166431Y102798D01*
X166931Y102628D01*
Y101932D01*
X172069D01*
Y106445D01*
X173325D01*
X174427Y105343D01*
X174359Y105000D01*
X174522Y104181D01*
X174986Y103486D01*
X175681Y103022D01*
X176500Y102859D01*
X177319Y103022D01*
X178014Y103486D01*
X178478Y104181D01*
X178641Y105000D01*
X178478Y105819D01*
X178014Y106514D01*
X177395Y106928D01*
X177390Y107236D01*
X177448Y107448D01*
X177819Y107522D01*
X178514Y107986D01*
X178978Y108681D01*
X179141Y109500D01*
X178978Y110319D01*
X178514Y111014D01*
X177819Y111478D01*
X177000Y111641D01*
X176181Y111478D01*
X175707Y111162D01*
X122425D01*
X115549Y118037D01*
X115641Y118500D01*
X115478Y119319D01*
X115014Y120014D01*
X114319Y120478D01*
X113500Y120641D01*
X112681Y120478D01*
X112462Y120332D01*
X112022Y120568D01*
Y122435D01*
X137537Y147951D01*
X138000Y147859D01*
X138819Y148022D01*
X138921Y148090D01*
X139461Y147849D01*
X139494Y147610D01*
X122707Y130823D01*
X122464Y130459D01*
X122378Y130030D01*
X122378Y130030D01*
Y119776D01*
X121986Y119514D01*
X121522Y118819D01*
X121359Y118000D01*
X121522Y117181D01*
X121986Y116486D01*
X122681Y116022D01*
X123500Y115859D01*
X124319Y116022D01*
X125014Y116486D01*
X125478Y117181D01*
X125641Y118000D01*
X125478Y118819D01*
X125014Y119514D01*
X124622Y119776D01*
Y129565D01*
X141663Y146607D01*
X141906Y146971D01*
X141992Y147400D01*
X141992Y147400D01*
Y150880D01*
X141992Y150880D01*
X141906Y151309D01*
X141663Y151673D01*
X141663Y151673D01*
X135542Y157795D01*
Y159064D01*
X135934Y159326D01*
X136276Y159838D01*
X136776Y159687D01*
Y158290D01*
X136870Y157822D01*
X137135Y157425D01*
X143647Y150913D01*
Y136467D01*
X143147Y136316D01*
X143014Y136514D01*
X142319Y136978D01*
X141900Y137062D01*
Y135000D01*
Y132938D01*
X142319Y133022D01*
X143014Y133486D01*
X143199Y133763D01*
X143801D01*
X143986Y133486D01*
X144681Y133022D01*
X145500Y132859D01*
X146319Y133022D01*
X146537Y133168D01*
X146978Y132932D01*
Y128900D01*
X146978Y128900D01*
X147064Y128471D01*
X147307Y128107D01*
X151451Y123963D01*
X151359Y123500D01*
X151522Y122681D01*
X151986Y121986D01*
X152681Y121522D01*
X152938Y121471D01*
X153083Y120992D01*
X151969Y119878D01*
X151819Y119978D01*
X151000Y120141D01*
X150181Y119978D01*
X149486Y119514D01*
X149022Y118819D01*
X148859Y118000D01*
X148901Y117789D01*
X148878Y117677D01*
X148964Y117248D01*
X149207Y116884D01*
X149247Y116844D01*
X149486Y116486D01*
X149844Y116246D01*
X149884Y116207D01*
X149884Y116207D01*
X150248Y115964D01*
X150677Y115878D01*
X150789Y115901D01*
X151000Y115859D01*
X151819Y116022D01*
X152514Y116486D01*
X152978Y117181D01*
X153111Y117848D01*
X157073Y121810D01*
X157073Y121810D01*
X157316Y122174D01*
X157402Y122603D01*
X157402Y122603D01*
Y126360D01*
X157402Y126360D01*
X157316Y126789D01*
X157073Y127153D01*
X157073Y127153D01*
X155772Y128455D01*
Y152850D01*
X155772Y152850D01*
X155686Y153279D01*
X155443Y153643D01*
X155443Y153643D01*
X151049Y158037D01*
X151141Y158500D01*
X150978Y159319D01*
X150514Y160014D01*
X149819Y160478D01*
X149000Y160641D01*
X148612Y161074D01*
Y168010D01*
X148526Y168439D01*
X148283Y168803D01*
X148283Y168803D01*
X131549Y185537D01*
X131641Y186000D01*
X131478Y186819D01*
X131014Y187514D01*
X130319Y187978D01*
X129500Y188141D01*
X128681Y187978D01*
X127986Y187514D01*
X127522Y186819D01*
X127359Y186000D01*
X127522Y185181D01*
X127986Y184486D01*
X128681Y184022D01*
X129500Y183859D01*
X129963Y183951D01*
X146369Y167545D01*
Y160170D01*
X146368Y160170D01*
X146454Y159741D01*
X146697Y159377D01*
X146977Y159096D01*
X146859Y158500D01*
X147022Y157681D01*
X147486Y156986D01*
X148181Y156522D01*
X149000Y156359D01*
X149463Y156451D01*
X153528Y152385D01*
Y127990D01*
X153528Y127990D01*
X153614Y127561D01*
X153857Y127197D01*
X155079Y125975D01*
X155035Y125519D01*
X154592Y125296D01*
X154319Y125478D01*
X153500Y125641D01*
X153037Y125549D01*
X149222Y129365D01*
Y151791D01*
X149514Y151986D01*
X149978Y152681D01*
X150141Y153500D01*
X149978Y154319D01*
X149514Y155014D01*
X148819Y155478D01*
X148000Y155641D01*
X147537Y155549D01*
X145731Y157355D01*
Y165481D01*
X145732Y165481D01*
X145646Y165910D01*
X145403Y166274D01*
X145403Y166274D01*
X126122Y185555D01*
Y187724D01*
X126514Y187986D01*
X126978Y188681D01*
X127141Y189500D01*
X126978Y190319D01*
X126514Y191014D01*
X125819Y191478D01*
X125351Y191571D01*
X125367Y199472D01*
X150267D01*
X150418Y198972D01*
D02*
G37*
G36*
X121167Y109247D02*
X121167Y109247D01*
X121531Y109004D01*
X121960Y108918D01*
X121960Y108918D01*
X138524D01*
X138559Y108873D01*
X138707Y108419D01*
X137312Y107024D01*
X114569D01*
X114334Y107465D01*
X114478Y107681D01*
X114641Y108500D01*
X114478Y109319D01*
X114014Y110014D01*
X113622Y110276D01*
Y115823D01*
X113622Y115823D01*
X114046Y116054D01*
X114325Y116088D01*
X121167Y109247D01*
D02*
G37*
%LPC*%
G36*
X212053Y196053D02*
X204947D01*
Y188947D01*
X212053D01*
Y196053D01*
D02*
G37*
G36*
X198500Y196083D02*
X197573Y195961D01*
X196708Y195603D01*
X195966Y195034D01*
X195397Y194292D01*
X195039Y193427D01*
X194917Y192500D01*
X195039Y191573D01*
X195397Y190708D01*
X195966Y189966D01*
X196708Y189397D01*
X197573Y189039D01*
X198500Y188917D01*
X199427Y189039D01*
X200292Y189397D01*
X201034Y189966D01*
X201603Y190708D01*
X201961Y191573D01*
X202083Y192500D01*
X201961Y193427D01*
X201603Y194292D01*
X201034Y195034D01*
X200292Y195603D01*
X199427Y195961D01*
X198500Y196083D01*
D02*
G37*
G36*
X159100Y144562D02*
X158681Y144478D01*
X157986Y144014D01*
X157522Y143319D01*
X157438Y142900D01*
X159100D01*
Y144562D01*
D02*
G37*
G36*
Y142100D02*
X157438D01*
X157522Y141681D01*
X157986Y140986D01*
X158681Y140522D01*
X159100Y140438D01*
Y142100D01*
D02*
G37*
G36*
X199900Y138562D02*
Y136900D01*
X201562D01*
X201478Y137319D01*
X201014Y138014D01*
X200319Y138478D01*
X199900Y138562D01*
D02*
G37*
G36*
X199100D02*
X198681Y138478D01*
X197986Y138014D01*
X197522Y137319D01*
X197438Y136900D01*
X199100D01*
Y138562D01*
D02*
G37*
G36*
X141100Y137062D02*
X140681Y136978D01*
X139986Y136514D01*
X139522Y135819D01*
X139438Y135400D01*
X141100D01*
Y137062D01*
D02*
G37*
G36*
X201562Y136100D02*
X199900D01*
Y134438D01*
X200319Y134522D01*
X201014Y134986D01*
X201478Y135681D01*
X201562Y136100D01*
D02*
G37*
G36*
X199100D02*
X197438D01*
X197522Y135681D01*
X197986Y134986D01*
X198681Y134522D01*
X199100Y134438D01*
Y136100D01*
D02*
G37*
G36*
X141100Y134600D02*
X139438D01*
X139522Y134181D01*
X139986Y133486D01*
X140681Y133022D01*
X141100Y132938D01*
Y134600D01*
D02*
G37*
G36*
X105500Y119583D02*
X104573Y119461D01*
X103708Y119103D01*
X102966Y118534D01*
X102397Y117792D01*
X102039Y116927D01*
X101917Y116000D01*
X102039Y115073D01*
X102397Y114208D01*
X102966Y113466D01*
X103708Y112897D01*
X104573Y112539D01*
X105500Y112417D01*
X106427Y112539D01*
X107292Y112897D01*
X108034Y113466D01*
X108603Y114208D01*
X108961Y115073D01*
X109083Y116000D01*
X108961Y116927D01*
X108603Y117792D01*
X108034Y118534D01*
X107292Y119103D01*
X106427Y119461D01*
X105500Y119583D01*
D02*
G37*
G36*
X154100Y104100D02*
X151962D01*
X151998Y103830D01*
X152256Y103205D01*
X152668Y102668D01*
X153205Y102256D01*
X153830Y101998D01*
X154100Y101962D01*
Y104100D01*
D02*
G37*
%LPD*%
D14*
X141950Y178860D02*
Y188957D01*
X129500Y186000D02*
X147490Y168010D01*
X141950Y188957D02*
X151093Y198100D01*
X165400D01*
X149790Y190800D02*
X154490Y195500D01*
X149790Y185233D02*
Y190800D01*
Y185233D02*
X156228Y178795D01*
X159500D01*
X165400Y198100D02*
X170930Y192570D01*
X174420Y184630D02*
Y188397D01*
X178200Y182590D02*
Y188500D01*
X182970D01*
X171600Y182640D02*
Y188400D01*
X148100Y128900D02*
X153500Y123500D01*
X148100Y128900D02*
Y153400D01*
X148000Y153500D02*
X148100Y153400D01*
X110900Y122900D02*
X138000Y150000D01*
X110900Y117423D02*
Y122900D01*
Y117423D02*
X112500Y115823D01*
Y108500D02*
Y115823D01*
X159500Y153205D02*
Y160990D01*
X145730Y174760D02*
X159500Y160990D01*
X145730Y174760D02*
Y189060D01*
X176460Y110040D02*
X177000Y109500D01*
X121960Y110040D02*
X176460D01*
X113500Y118500D02*
X121960Y110040D01*
X150677Y117000D02*
X156280Y122603D01*
Y126360D01*
X154650Y127990D02*
X156280Y126360D01*
X134420Y157330D02*
Y160840D01*
Y157330D02*
X140870Y150880D01*
Y147400D02*
Y150880D01*
X123500Y130030D02*
X140870Y147400D01*
X123500Y118000D02*
Y130030D01*
X125000Y185091D02*
Y189500D01*
Y185091D02*
X144610Y165481D01*
Y156890D02*
Y165481D01*
Y156890D02*
X148000Y153500D01*
X147490Y160170D02*
Y168010D01*
Y160170D02*
X149000Y158660D01*
Y158500D02*
Y158660D01*
X150000Y117677D02*
X150677Y117000D01*
X154650Y127990D02*
Y152850D01*
X149000Y158500D02*
X154650Y152850D01*
X162990Y146990D02*
X166000Y150000D01*
X162990Y143667D02*
Y146990D01*
X162400Y143077D02*
X162990Y143667D01*
X162400Y120100D02*
Y143077D01*
Y120100D02*
X168000Y114500D01*
X165000Y122390D02*
Y142000D01*
Y122390D02*
X172500Y114890D01*
X170520Y171500D02*
X178500D01*
X164500Y165480D02*
X170520Y171500D01*
X164500Y159500D02*
Y165480D01*
X176300Y180690D02*
X178200Y182590D01*
X173550Y180690D02*
X176300D01*
X171600Y182640D02*
X173550Y180690D01*
X174420Y188397D02*
X177123Y191100D01*
X182633D01*
X188033Y185700D01*
X189800D01*
X182970Y188500D02*
X190110Y181360D01*
Y129110D02*
Y181360D01*
X184500Y123500D02*
X190110Y129110D01*
X206810Y170190D02*
X207500Y169500D01*
X202440Y170190D02*
X206810D01*
X198630Y174000D02*
X202440Y170190D01*
X193000Y174000D02*
X198630D01*
X195000Y177500D02*
X199150D01*
X209278Y173222D02*
X213500Y169000D01*
X203428Y173222D02*
X209278D01*
X199150Y177500D02*
X203428Y173222D01*
D56*
X153000Y186500D02*
X165364D01*
X164618Y184700D02*
X166200Y183118D01*
X162382Y184700D02*
X164618D01*
X160252Y182570D02*
X162382Y184700D01*
X163500Y166884D02*
Y182000D01*
X156130Y182570D02*
X160252D01*
X166200Y183090D02*
Y183118D01*
Y183090D02*
X172100Y177190D01*
X184690D01*
X185000Y177500D01*
X168000Y183836D02*
X172846Y178990D01*
X168000Y183836D02*
Y183864D01*
X165364Y186500D02*
X168000Y183864D01*
X161800Y165184D02*
X163500Y166884D01*
X173831Y107668D02*
X176500Y105000D01*
X139688Y107668D02*
X173831D01*
X137819Y105800D02*
X139688Y107668D01*
X105700Y105800D02*
X137819D01*
X105500Y106000D02*
X105700Y105800D01*
X179514Y181500D02*
X186000D01*
X177004Y178990D02*
X179514Y181500D01*
X172846Y178990D02*
X177004D01*
X138000Y158290D02*
Y163500D01*
Y158290D02*
X144870Y151420D01*
Y135630D02*
Y151420D01*
Y135630D02*
X145500Y135000D01*
X170000Y133000D02*
Y149818D01*
X167118Y152700D02*
X170000Y149818D01*
X167040Y152700D02*
X167118D01*
X161800Y157940D02*
X167040Y152700D01*
X161800Y157940D02*
Y165184D01*
X185000Y133000D02*
Y177500D01*
X181000Y129000D02*
X185000Y133000D01*
D57*
X159500Y178795D02*
D03*
D58*
Y153205D02*
D03*
D59*
X146000Y104500D02*
D03*
X169500D02*
D03*
D60*
X141000D02*
D03*
X164500D02*
D03*
X159500D02*
D03*
X154500D02*
D03*
D61*
X198500Y192500D02*
D03*
X105500Y116000D02*
D03*
D62*
X208500Y192500D02*
D03*
D63*
X105500Y106000D02*
D03*
D64*
X141950Y178860D02*
D03*
X154490Y195500D02*
D03*
X153000Y186500D02*
D03*
X163500Y182000D02*
D03*
X156130Y182570D02*
D03*
X170930Y192570D02*
D03*
X174420Y184630D02*
D03*
X178200Y188500D02*
D03*
X171600Y188400D02*
D03*
X185000Y177500D02*
D03*
X193000Y174000D02*
D03*
X195000Y177500D02*
D03*
X145730Y189060D02*
D03*
X134420Y160840D02*
D03*
X148000Y153500D02*
D03*
X189800Y185700D02*
D03*
X186000Y181500D02*
D03*
X149000Y158500D02*
D03*
X178500Y171500D02*
D03*
X159500Y142500D02*
D03*
X165000Y142000D02*
D03*
X172500Y114890D02*
D03*
X125000Y189500D02*
D03*
X177000Y109500D02*
D03*
X184500Y123500D02*
D03*
X166000Y150000D02*
D03*
X164500Y159500D02*
D03*
X153500Y123500D02*
D03*
X151000Y118000D02*
D03*
X145500Y135000D02*
D03*
X199500Y136500D02*
D03*
X138000Y163500D02*
D03*
Y150000D02*
D03*
X112500Y108500D02*
D03*
X113500Y118500D02*
D03*
X123500Y118000D02*
D03*
X207500Y169500D02*
D03*
X213500Y169000D02*
D03*
X181000Y129000D02*
D03*
X170000Y133000D02*
D03*
X168000Y114500D02*
D03*
X141500Y135000D02*
D03*
X129500Y186000D02*
D03*
X176500Y105000D02*
D03*
M02*
