G04*
G04 #@! TF.GenerationSoftware,Altium Limited,Altium Designer,18.0.9 (584)*
G04*
G04 Layer_Physical_Order=1*
G04 Layer_Color=255*
%FSLAX25Y25*%
%MOIN*%
G70*
G01*
G75*
%ADD14C,0.01000*%
%ADD16R,0.08622X0.06299*%
%ADD17R,0.01575X0.01575*%
%ADD18R,0.03543X0.02756*%
%ADD19R,0.03543X0.02362*%
%ADD20R,0.02362X0.01968*%
%ADD21R,0.04800X0.02000*%
%ADD22R,0.02756X0.03543*%
%ADD23R,0.04400X0.01400*%
%ADD24R,0.01968X0.02362*%
%ADD25R,0.03937X0.02362*%
%ADD26R,0.07800X0.02100*%
%ADD27R,0.03937X0.05906*%
%ADD28R,0.01102X0.03347*%
%ADD29R,0.03347X0.01102*%
%ADD30R,0.16142X0.16142*%
%ADD31R,0.03600X0.04800*%
%ADD56C,0.01200*%
%ADD57C,0.05150*%
%ADD58R,0.05150X0.05150*%
%ADD59R,0.03937X0.03937*%
%ADD60C,0.03937*%
%ADD61C,0.05906*%
%ADD62R,0.05906X0.05906*%
%ADD63R,0.05906X0.05906*%
%ADD64C,0.03000*%
G36*
X213013Y199339D02*
X213645Y199077D01*
X214213Y198697D01*
X214697Y198213D01*
X215077Y197645D01*
X215339Y197013D01*
X215472Y196342D01*
Y196067D01*
X215469Y196035D01*
X215471Y196024D01*
X215422Y195779D01*
X215422Y195722D01*
X215472Y195468D01*
X215488Y170705D01*
X215132Y170561D01*
X214988Y170531D01*
X214319Y170978D01*
X213500Y171141D01*
X212681Y170978D01*
X211986Y170514D01*
X211522Y169819D01*
X211359Y169000D01*
X211522Y168181D01*
X211986Y167486D01*
X212379Y167224D01*
Y165553D01*
X211719D01*
Y162384D01*
X215140D01*
X215358Y161916D01*
X214994Y161616D01*
X211719D01*
Y158447D01*
X212379D01*
Y157037D01*
X211128D01*
Y153475D01*
X215499D01*
X215500Y151879D01*
X215147Y151525D01*
X213900D01*
Y149744D01*
Y147963D01*
X215503D01*
X215531Y104122D01*
X215529Y104103D01*
X215488Y103951D01*
X215465Y103621D01*
X215354Y103052D01*
X215164Y102531D01*
X214896Y102047D01*
X214555Y101610D01*
X214150Y101231D01*
X213691Y100921D01*
X213189Y100686D01*
X212923Y100609D01*
X212770Y100529D01*
X212725Y100529D01*
X212605Y100506D01*
X212483Y100511D01*
X212416Y100501D01*
X212281Y100485D01*
X212145Y100475D01*
X212009Y100469D01*
X212007D01*
X211976Y100472D01*
X211964Y100470D01*
X211731Y100518D01*
X104571Y101028D01*
X104539Y101030D01*
X104526Y101029D01*
X104278Y101078D01*
X104276Y101078D01*
X104274Y101078D01*
X104218Y101078D01*
X103968Y101028D01*
X103658D01*
X102987Y101161D01*
X102355Y101423D01*
X101787Y101803D01*
X101303Y102287D01*
X100923Y102855D01*
X100661Y103487D01*
X100528Y104158D01*
Y104500D01*
Y143350D01*
X103762D01*
Y136888D01*
X108899D01*
Y143350D01*
X109668D01*
Y136888D01*
X114805D01*
Y143350D01*
X115573D01*
Y136888D01*
X120710D01*
Y143350D01*
X121479D01*
Y136888D01*
X126616D01*
Y143994D01*
X125505D01*
X125152Y144348D01*
X125156Y146378D01*
X128677D01*
X128831Y146190D01*
X128831Y146190D01*
Y143994D01*
X127384D01*
Y136888D01*
X132521D01*
Y143994D01*
X131074D01*
Y145725D01*
X135398Y150049D01*
X135892Y149836D01*
X136022Y149181D01*
X136486Y148486D01*
X137181Y148022D01*
X138000Y147859D01*
X138819Y148022D01*
X139514Y148486D01*
X139978Y149181D01*
X140141Y150000D01*
X140049Y150463D01*
X143793Y154207D01*
X143793Y154207D01*
X144036Y154571D01*
X144122Y155000D01*
X144122Y155000D01*
Y159035D01*
X146965Y161878D01*
X163380D01*
X163531Y161378D01*
X162986Y161014D01*
X162522Y160319D01*
X162359Y159500D01*
X162522Y158681D01*
X162986Y157986D01*
X163378Y157724D01*
Y154134D01*
X163175Y153978D01*
X162675Y154224D01*
Y156380D01*
X156325D01*
Y150030D01*
X162278D01*
Y148923D01*
X162278Y148923D01*
X162321Y148709D01*
X161962Y148294D01*
X161935Y148281D01*
X158979D01*
Y144719D01*
X158601Y144425D01*
X157986Y144014D01*
X157522Y143319D01*
X157359Y142500D01*
X157499Y141794D01*
X157097Y141503D01*
X157087Y141499D01*
X155122Y143465D01*
Y153500D01*
X155122Y153500D01*
X155036Y153929D01*
X154793Y154293D01*
X154793Y154293D01*
X151049Y158037D01*
X151141Y158500D01*
X150978Y159319D01*
X150514Y160014D01*
X149819Y160478D01*
X149000Y160641D01*
X148181Y160478D01*
X147486Y160014D01*
X147022Y159319D01*
X146859Y158500D01*
X147022Y157681D01*
X147486Y156986D01*
X148181Y156522D01*
X149000Y156359D01*
X149463Y156451D01*
X152878Y153035D01*
Y150861D01*
X152417Y150670D01*
X150049Y153037D01*
X150141Y153500D01*
X149978Y154319D01*
X149514Y155014D01*
X148819Y155478D01*
X148000Y155641D01*
X147181Y155478D01*
X146486Y155014D01*
X146022Y154319D01*
X145859Y153500D01*
X146022Y152681D01*
X146486Y151986D01*
X147181Y151522D01*
X148000Y151359D01*
X148463Y151451D01*
X151278Y148635D01*
Y141337D01*
X151278Y141337D01*
X151364Y140908D01*
X151607Y140544D01*
X156944Y135207D01*
X157308Y134964D01*
X157737Y134878D01*
X157737Y134878D01*
X168200D01*
X168395Y134378D01*
X168022Y133819D01*
X167859Y133000D01*
X167927Y132657D01*
X166993Y131723D01*
X166200D01*
Y132150D01*
X157200D01*
Y131723D01*
X153000D01*
X152532Y131630D01*
X152135Y131365D01*
X149865Y129095D01*
X149600Y128698D01*
X149506Y128230D01*
Y126167D01*
X147653Y124313D01*
X146800D01*
Y125100D01*
X137800D01*
Y124313D01*
X135590D01*
X135122Y124220D01*
X134725Y123955D01*
X133551Y122781D01*
X131916D01*
Y119219D01*
X135084D01*
Y120854D01*
X136097Y121867D01*
X137800D01*
Y118850D01*
X146800D01*
Y121867D01*
X148160D01*
X148628Y121960D01*
X149025Y122225D01*
X150985Y124185D01*
X151446Y123939D01*
X151359Y123500D01*
X151522Y122681D01*
X151986Y121986D01*
X152478Y121657D01*
Y120068D01*
X152038Y119832D01*
X151819Y119978D01*
X151000Y120141D01*
X150181Y119978D01*
X149486Y119514D01*
X149022Y118819D01*
X148859Y118000D01*
X149022Y117181D01*
X149486Y116486D01*
X149550Y116443D01*
X149599Y115945D01*
X147156Y113502D01*
X146800Y113853D01*
X146800Y114349D01*
Y115100D01*
X142700D01*
Y113850D01*
X146300D01*
X146797Y113850D01*
X147148Y113494D01*
X140706Y107052D01*
X140330Y107002D01*
X139705Y106744D01*
X139168Y106332D01*
X138756Y105795D01*
X138498Y105171D01*
X138409Y104500D01*
X138498Y103830D01*
X138756Y103205D01*
X139168Y102668D01*
X139705Y102256D01*
X140330Y101998D01*
X141000Y101909D01*
X141671Y101998D01*
X142295Y102256D01*
X142832Y102668D01*
X142931Y102798D01*
X143431Y102628D01*
Y101932D01*
X148568D01*
Y107069D01*
X147201D01*
X147155Y107569D01*
X154393Y114807D01*
X154393Y114807D01*
X154636Y115171D01*
X154722Y115600D01*
Y121791D01*
X155014Y121986D01*
X155478Y122681D01*
X155641Y123500D01*
X155478Y124319D01*
X155014Y125014D01*
X154319Y125478D01*
X153500Y125641D01*
X152681Y125478D01*
X152388Y125283D01*
X151938Y125584D01*
X151953Y125660D01*
Y127723D01*
X153507Y129277D01*
X157200D01*
Y128850D01*
X166200D01*
Y129277D01*
X167339D01*
X167554Y128857D01*
X167563Y128793D01*
X165920Y127150D01*
X157200D01*
Y123850D01*
X166200D01*
Y124316D01*
X166468Y124370D01*
X166865Y124635D01*
X167056Y124826D01*
X167518Y124635D01*
Y122900D01*
X172029D01*
Y126250D01*
X169133D01*
X168942Y126711D01*
X170007Y127777D01*
X179292D01*
X179486Y127486D01*
X180181Y127022D01*
X181000Y126859D01*
X181819Y127022D01*
X182514Y127486D01*
X182978Y128181D01*
X183141Y129000D01*
X182978Y129819D01*
X182514Y130514D01*
X181819Y130978D01*
X181000Y131141D01*
X180181Y130978D01*
X179486Y130514D01*
X179292Y130224D01*
X170006D01*
X169756Y130724D01*
X169876Y130883D01*
X170000Y130859D01*
X170819Y131022D01*
X171514Y131486D01*
X171978Y132181D01*
X172141Y133000D01*
X171978Y133819D01*
X171605Y134378D01*
X171800Y134878D01*
X172000D01*
X172000Y134878D01*
X172429Y134964D01*
X172793Y135207D01*
X173966Y136380D01*
X173966Y136380D01*
X174077Y136546D01*
X194427D01*
Y138819D01*
Y141092D01*
X172592D01*
Y142491D01*
Y144459D01*
Y146428D01*
Y148396D01*
Y150365D01*
Y152333D01*
Y154302D01*
Y156270D01*
Y158239D01*
Y160207D01*
Y162176D01*
Y163908D01*
X195408D01*
Y162176D01*
Y161758D01*
X197681D01*
X199954D01*
Y161779D01*
X200454Y161969D01*
X201276Y161147D01*
Y148500D01*
X201370Y148032D01*
X201635Y147635D01*
X204628Y144641D01*
Y143359D01*
X204166Y142897D01*
X199954D01*
Y146428D01*
Y149147D01*
X197681D01*
X195408D01*
Y148396D01*
Y146428D01*
Y144459D01*
Y142491D01*
Y141092D01*
X195227D01*
Y139219D01*
X195978D01*
Y140522D01*
X197317D01*
X197681Y140450D01*
X204569D01*
Y137022D01*
X205717D01*
Y135978D01*
X204569D01*
Y135223D01*
X202507D01*
X201573Y136157D01*
X201641Y136500D01*
X201478Y137319D01*
X201014Y138014D01*
X200319Y138478D01*
X199500Y138641D01*
X198681Y138478D01*
X197986Y138014D01*
X197522Y137319D01*
X197359Y136500D01*
X197522Y135681D01*
X197986Y134986D01*
X198681Y134522D01*
X199500Y134359D01*
X199843Y134427D01*
X201135Y133135D01*
X201532Y132870D01*
X202000Y132776D01*
X204569D01*
Y132022D01*
X209187D01*
X209313Y132022D01*
X209687D01*
X209813Y132022D01*
X211659D01*
Y134000D01*
Y135978D01*
X209813D01*
X209687Y135978D01*
X209313D01*
X209187Y135978D01*
X208165D01*
Y137022D01*
X209187D01*
X209313Y137022D01*
X209687D01*
X209813Y137022D01*
X211659D01*
Y139000D01*
Y140978D01*
X209813D01*
X209687Y140978D01*
X209313D01*
X209187Y140978D01*
X208224D01*
Y142022D01*
X209246D01*
X209372Y142022D01*
X209747D01*
X209872Y142022D01*
X211718D01*
Y144000D01*
Y145978D01*
X209872D01*
X209747Y145978D01*
X209372D01*
X209246Y145978D01*
X206752D01*
X203724Y149007D01*
Y161654D01*
X203630Y162122D01*
X203365Y162519D01*
X201692Y164192D01*
X201295Y164457D01*
X200827Y164550D01*
X197681D01*
X197317Y164478D01*
X195978D01*
Y167880D01*
X196200Y167924D01*
X196597Y168189D01*
X200365Y171958D01*
X200630Y172355D01*
X200724Y172823D01*
Y179364D01*
X200630Y179832D01*
X200365Y180229D01*
X197729Y182865D01*
X197332Y183130D01*
X196864Y183223D01*
X190677D01*
X190619Y183722D01*
X191314Y184186D01*
X191778Y184881D01*
X191941Y185700D01*
X191841Y186204D01*
X191986Y186421D01*
X192072Y186850D01*
X192072Y186850D01*
Y189430D01*
X192072Y189430D01*
X192072Y189430D01*
Y191000D01*
X193350D01*
Y192878D01*
X194587D01*
X194917Y192502D01*
X194917Y192500D01*
X195039Y191573D01*
X195397Y190708D01*
X195966Y189966D01*
X196708Y189397D01*
X197573Y189039D01*
X198500Y188917D01*
X199427Y189039D01*
X200292Y189397D01*
X201034Y189966D01*
X201603Y190708D01*
X201961Y191573D01*
X202083Y192500D01*
X201961Y193427D01*
X201603Y194292D01*
X201034Y195034D01*
X200292Y195603D01*
X199427Y195961D01*
X198500Y196083D01*
X197573Y195961D01*
X196708Y195603D01*
X196080Y195122D01*
X193350D01*
Y197000D01*
X188550D01*
Y191000D01*
X189439D01*
X189793Y190646D01*
X189792Y190500D01*
X189453Y190227D01*
X186679D01*
Y187453D01*
X187844D01*
X188111Y186953D01*
X187822Y186519D01*
X187659Y185700D01*
X187822Y184881D01*
X188286Y184186D01*
X188981Y183722D01*
X188923Y183223D01*
X187200D01*
X186819Y183478D01*
X186000Y183641D01*
X185181Y183478D01*
X184486Y183014D01*
X184022Y182319D01*
X183919Y181802D01*
X183400Y181570D01*
X183174Y181735D01*
Y183095D01*
X183081Y183563D01*
X182816Y183960D01*
X180211Y186565D01*
X180057Y186668D01*
X179826Y186882D01*
X179930Y187309D01*
X180178Y187681D01*
X180186Y187718D01*
X181167D01*
Y187453D01*
X183941D01*
Y190227D01*
X181167D01*
Y189962D01*
X179749D01*
X179714Y190014D01*
X179019Y190478D01*
X178910Y190500D01*
X178959Y191000D01*
X180450D01*
Y193600D01*
X178050D01*
Y194000D01*
X177650D01*
Y197000D01*
X175650D01*
Y195787D01*
X175150Y195580D01*
X174584Y196146D01*
Y197781D01*
X171416D01*
Y195009D01*
X171050Y194709D01*
X170647Y194957D01*
Y197781D01*
X167479D01*
Y197505D01*
X166990Y197478D01*
Y197478D01*
X162372D01*
X162247Y197478D01*
X161872D01*
X161747Y197478D01*
X159900D01*
Y195500D01*
Y193522D01*
X161588D01*
X161771Y193181D01*
X161808Y193022D01*
X161650Y192785D01*
X161570Y192665D01*
Y192665D01*
X161570Y192665D01*
X161515Y192390D01*
X155950D01*
Y192212D01*
X150238D01*
Y199112D01*
X150575Y199472D01*
X211433D01*
X211465Y199469D01*
X211476Y199471D01*
X211722Y199422D01*
X211778D01*
X212032Y199472D01*
X212342D01*
X213013Y199339D01*
D02*
G37*
G36*
X127332Y199168D02*
X127384Y199112D01*
X127384Y198972D01*
Y192006D01*
X132521D01*
Y198972D01*
X132521Y199112D01*
X132574Y199168D01*
X132871D01*
X133290Y198689D01*
Y192006D01*
X138427D01*
Y198972D01*
X138427Y199112D01*
X138479Y199168D01*
X138776D01*
X139195Y198689D01*
Y192006D01*
X144332D01*
Y198972D01*
X144332Y199112D01*
X144385Y199168D01*
X144624D01*
X145101Y198689D01*
Y192006D01*
X146383D01*
X146590Y191506D01*
X146193Y191109D01*
X145730Y191201D01*
X144911Y191038D01*
X144216Y190574D01*
X143752Y189879D01*
X143589Y189060D01*
X143752Y188241D01*
X144216Y187546D01*
X144911Y187082D01*
X145730Y186919D01*
X146549Y187082D01*
X147244Y187546D01*
X147708Y188241D01*
X147871Y189060D01*
X147779Y189523D01*
X148225Y189969D01*
X154256D01*
X154272Y189928D01*
X154339Y189469D01*
X154035Y189265D01*
X153343Y188573D01*
X153000Y188641D01*
X152181Y188478D01*
X151486Y188014D01*
X151022Y187319D01*
X150859Y186500D01*
X151022Y185681D01*
X151486Y184986D01*
X152181Y184522D01*
X153000Y184359D01*
X153819Y184522D01*
X154514Y184986D01*
X154978Y185681D01*
X155141Y186500D01*
X155073Y186843D01*
X155407Y187177D01*
X155950D01*
Y184820D01*
X155769Y184639D01*
X155311Y184548D01*
X154616Y184084D01*
X154152Y183389D01*
X153989Y182570D01*
X154152Y181751D01*
X154616Y181056D01*
X155311Y180592D01*
X156130Y180429D01*
X156205Y180444D01*
X156565Y180006D01*
X156407Y179624D01*
X156351Y179195D01*
X159500D01*
Y178395D01*
X156351D01*
X156407Y177966D01*
X156727Y177194D01*
X157236Y176531D01*
X157876Y176039D01*
X157880Y175988D01*
X157697Y175539D01*
X150886D01*
X150418Y175446D01*
X150021Y175181D01*
X139824Y164983D01*
X139514Y165014D01*
X138819Y165478D01*
X138643Y165513D01*
X138498Y165992D01*
X142743Y170237D01*
X142743Y170237D01*
X142986Y170601D01*
X143072Y171030D01*
Y177084D01*
X143464Y177346D01*
X143928Y178041D01*
X144091Y178860D01*
X143928Y179679D01*
X143464Y180374D01*
X142769Y180838D01*
X141950Y181001D01*
X141131Y180838D01*
X140436Y180374D01*
X139972Y179679D01*
X139809Y178860D01*
X139972Y178041D01*
X140436Y177346D01*
X140828Y177084D01*
Y171495D01*
X136422Y167088D01*
X136130Y166893D01*
X136130Y166893D01*
X133627Y164390D01*
X133384Y164026D01*
X133298Y163597D01*
X133299Y163597D01*
Y162616D01*
X132906Y162354D01*
X132442Y161659D01*
X132279Y160840D01*
X132442Y160021D01*
X132906Y159326D01*
X133601Y158862D01*
X134420Y158699D01*
X135239Y158862D01*
X135934Y159326D01*
X136398Y160021D01*
X136561Y160840D01*
X136448Y161410D01*
X136898Y161711D01*
X137181Y161522D01*
X138000Y161359D01*
X138321Y161423D01*
X138711Y160991D01*
X138678Y160825D01*
X138678Y160825D01*
Y158765D01*
X128535Y148622D01*
X125515D01*
X125162Y148976D01*
X125238Y184878D01*
X127724D01*
X127986Y184486D01*
X128681Y184022D01*
X129500Y183859D01*
X130319Y184022D01*
X131014Y184486D01*
X131478Y185181D01*
X131641Y186000D01*
X131478Y186819D01*
X131014Y187514D01*
X130319Y187978D01*
X129500Y188141D01*
X128681Y187978D01*
X127986Y187514D01*
X127724Y187122D01*
X126120D01*
X125969Y187622D01*
X126514Y187986D01*
X126978Y188681D01*
X127141Y189500D01*
X126978Y190319D01*
X126514Y191014D01*
X125819Y191478D01*
X125678Y191506D01*
X125727Y192006D01*
X126616D01*
Y199112D01*
X126668Y199168D01*
X127332D01*
D02*
G37*
G36*
X178927Y179343D02*
Y176350D01*
X179020Y175881D01*
X179285Y175484D01*
X181135Y173635D01*
X181532Y173370D01*
X182000Y173276D01*
X186306D01*
X186523Y172786D01*
X186160Y172423D01*
X185917Y172059D01*
X185831Y171630D01*
X185831Y171630D01*
Y168454D01*
X178405D01*
X178262Y168954D01*
X178469Y169307D01*
X178704Y169399D01*
X179319Y169522D01*
X180014Y169986D01*
X180478Y170681D01*
X180641Y171500D01*
X180478Y172319D01*
X180014Y173014D01*
X179319Y173478D01*
X178500Y173641D01*
X178154Y173572D01*
X177471Y174255D01*
Y180092D01*
X177971Y180299D01*
X178927Y179343D01*
D02*
G37*
G36*
X173479Y168908D02*
X173283Y168454D01*
X172022D01*
Y164478D01*
X168046D01*
Y161871D01*
X167584Y161679D01*
X165470Y163793D01*
X165106Y164036D01*
X164677Y164122D01*
X164677Y164122D01*
X147598D01*
X147407Y164584D01*
X152052Y169229D01*
X173217D01*
X173479Y168908D01*
D02*
G37*
%LPC*%
G36*
X154090Y197562D02*
X153671Y197478D01*
X152976Y197014D01*
X152512Y196319D01*
X152428Y195900D01*
X154090D01*
Y197562D01*
D02*
G37*
G36*
X180450Y197000D02*
X178450D01*
Y194400D01*
X180450D01*
Y197000D01*
D02*
G37*
G36*
X154890Y197562D02*
Y195500D01*
Y193438D01*
X155309Y193522D01*
X156004Y193986D01*
X156266Y194378D01*
X157128D01*
Y193522D01*
X159100D01*
Y195500D01*
Y197478D01*
X157128D01*
Y196622D01*
X156266D01*
X156004Y197014D01*
X155309Y197478D01*
X154890Y197562D01*
D02*
G37*
G36*
X154090Y195100D02*
X152428D01*
X152512Y194681D01*
X152976Y193986D01*
X153671Y193522D01*
X154090Y193438D01*
Y195100D01*
D02*
G37*
G36*
X212053Y196053D02*
X208900D01*
Y192900D01*
X212053D01*
Y196053D01*
D02*
G37*
G36*
X208100D02*
X204947D01*
Y192900D01*
X208100D01*
Y196053D01*
D02*
G37*
G36*
X212053Y192100D02*
X208900D01*
Y188947D01*
X212053D01*
Y192100D01*
D02*
G37*
G36*
X208100D02*
X204947D01*
Y188947D01*
X208100D01*
Y192100D01*
D02*
G37*
G36*
X213613Y181330D02*
X209102D01*
Y177980D01*
X213613D01*
Y181330D01*
D02*
G37*
G36*
X208302D02*
X203791D01*
Y177980D01*
X208302D01*
Y181330D01*
D02*
G37*
G36*
X213613Y177180D02*
X209102D01*
Y173830D01*
X213613D01*
Y177180D01*
D02*
G37*
G36*
X208302D02*
X203791D01*
Y173830D01*
X208302D01*
Y177180D01*
D02*
G37*
G36*
X207500Y171641D02*
X206681Y171478D01*
X205986Y171014D01*
X205522Y170319D01*
X205359Y169500D01*
X205522Y168681D01*
X205986Y167986D01*
X206681Y167522D01*
X206878Y167482D01*
Y165553D01*
X206219D01*
Y162384D01*
X209781D01*
Y165553D01*
X209121D01*
Y168147D01*
X209478Y168681D01*
X209641Y169500D01*
X209478Y170319D01*
X209014Y171014D01*
X208319Y171478D01*
X207500Y171641D01*
D02*
G37*
G36*
X199954Y160958D02*
X197681D01*
X195408D01*
Y160207D01*
Y158239D01*
Y156270D01*
Y155853D01*
X197681D01*
X199954D01*
Y158239D01*
Y160958D01*
D02*
G37*
G36*
X209781Y161616D02*
X206219D01*
Y158447D01*
X206878D01*
Y157037D01*
X205628D01*
Y153475D01*
X210372D01*
Y157037D01*
X209121D01*
Y158447D01*
X209781D01*
Y161616D01*
D02*
G37*
G36*
X192671Y161171D02*
X184400D01*
Y152900D01*
X192671D01*
Y161171D01*
D02*
G37*
G36*
X183600D02*
X175329D01*
Y152900D01*
X183600D01*
Y161171D01*
D02*
G37*
G36*
X210372Y151525D02*
X208400D01*
Y150144D01*
X210372D01*
Y151525D01*
D02*
G37*
G36*
X213100D02*
X211128D01*
Y150144D01*
X213100D01*
Y151525D01*
D02*
G37*
G36*
X207600D02*
X205628D01*
Y150144D01*
X207600D01*
Y151525D01*
D02*
G37*
G36*
X199954Y155053D02*
X197681D01*
X195408D01*
Y154302D01*
Y152333D01*
Y150365D01*
Y149947D01*
X197681D01*
X199954D01*
Y150365D01*
Y154302D01*
Y155053D01*
D02*
G37*
G36*
X213100Y149344D02*
X211128D01*
Y147963D01*
X213100D01*
Y149344D01*
D02*
G37*
G36*
X210372D02*
X208400D01*
Y147963D01*
X210372D01*
Y149344D01*
D02*
G37*
G36*
X207600D02*
X205628D01*
Y147963D01*
X207600D01*
Y149344D01*
D02*
G37*
G36*
X212518Y145978D02*
Y144400D01*
X214490D01*
Y145978D01*
X212518D01*
D02*
G37*
G36*
X192671Y152100D02*
X184400D01*
Y143829D01*
X192671D01*
Y152100D01*
D02*
G37*
G36*
X183600D02*
X175329D01*
Y143829D01*
X183600D01*
Y152100D01*
D02*
G37*
G36*
X214490Y143600D02*
X212518D01*
Y142022D01*
X214490D01*
Y143600D01*
D02*
G37*
G36*
X150238Y143994D02*
X148069D01*
Y140841D01*
X150238D01*
Y143994D01*
D02*
G37*
G36*
X147269D02*
X145101D01*
Y140841D01*
X147269D01*
Y143994D01*
D02*
G37*
G36*
X212459Y140978D02*
Y139400D01*
X214431D01*
Y140978D01*
X212459D01*
D02*
G37*
G36*
X144332Y143994D02*
X139195D01*
Y138930D01*
X138888Y138681D01*
X138427Y138881D01*
Y143994D01*
X133290D01*
Y136888D01*
X134061D01*
X134328Y136388D01*
X134261Y136288D01*
X133384D01*
X132915Y136195D01*
X132518Y135930D01*
X129592Y133003D01*
X129090Y133003D01*
X128488Y133605D01*
X128091Y133871D01*
X127623Y133964D01*
X124982D01*
Y134521D01*
X119845D01*
Y130959D01*
X124982D01*
Y131517D01*
X126969D01*
Y129044D01*
X131587D01*
X131713Y129044D01*
Y129044D01*
X132087D01*
Y129044D01*
X134059D01*
Y131022D01*
Y133000D01*
X133702D01*
X133511Y133462D01*
X133890Y133841D01*
X135114D01*
X135582Y133934D01*
X135979Y134200D01*
X136844Y135065D01*
X139306D01*
X139359Y135000D01*
X139522Y134181D01*
X139986Y133486D01*
X140681Y133022D01*
X141500Y132859D01*
X142319Y133022D01*
X142515Y133153D01*
X142834Y132764D01*
X142220Y132150D01*
X137800D01*
Y128850D01*
X146800D01*
Y132150D01*
X146334D01*
X146142Y132612D01*
X146365Y132835D01*
X146628Y133228D01*
X147014Y133486D01*
X147478Y134181D01*
X147641Y135000D01*
X147478Y135819D01*
X147098Y136388D01*
X147269Y136845D01*
Y140041D01*
X145101D01*
Y137419D01*
X144792Y137249D01*
X144332Y137548D01*
Y143994D01*
D02*
G37*
G36*
X214431Y138600D02*
X212459D01*
Y137022D01*
X214431D01*
Y138600D01*
D02*
G37*
G36*
X150238Y140041D02*
X148069D01*
Y136888D01*
X150238D01*
Y140041D01*
D02*
G37*
G36*
X195978Y138419D02*
X195227D01*
Y136546D01*
X195978D01*
Y138419D01*
D02*
G37*
G36*
X212459Y135978D02*
Y134400D01*
X214431D01*
Y135978D01*
X212459D01*
D02*
G37*
G36*
X214431Y133600D02*
X212459D01*
Y132022D01*
X214431D01*
Y133600D01*
D02*
G37*
G36*
X136831Y133000D02*
X134859D01*
Y131422D01*
X136831D01*
Y133000D01*
D02*
G37*
G36*
Y130622D02*
X134859D01*
Y129044D01*
X136831D01*
Y130622D01*
D02*
G37*
G36*
X146800Y127150D02*
X142700D01*
Y125900D01*
X146800D01*
Y127150D01*
D02*
G37*
G36*
X141900D02*
X137800D01*
Y125900D01*
X141900D01*
Y127150D01*
D02*
G37*
G36*
X103270Y126861D02*
X101692D01*
Y124889D01*
X103270D01*
Y126861D01*
D02*
G37*
G36*
X124982Y127041D02*
X119845D01*
Y123479D01*
X124982D01*
Y127041D01*
D02*
G37*
G36*
X177340Y126250D02*
X172829D01*
Y122900D01*
X177340D01*
Y126250D01*
D02*
G37*
G36*
X109008Y134802D02*
X105052D01*
Y134751D01*
X101692D01*
Y130007D01*
X101692Y130007D01*
Y129633D01*
X101692D01*
X101692Y129507D01*
Y127661D01*
X103670D01*
Y127261D01*
X104070D01*
Y124889D01*
X105648D01*
Y124940D01*
X106630D01*
Y127312D01*
X107430D01*
Y124940D01*
X109008D01*
X109018Y124444D01*
Y123479D01*
X109138D01*
Y121740D01*
X109138Y121740D01*
X109224Y121311D01*
X109467Y120947D01*
X111451Y118963D01*
X111359Y118500D01*
X111522Y117681D01*
X111986Y116986D01*
X112681Y116522D01*
X113500Y116359D01*
X114319Y116522D01*
X114777Y116827D01*
X115277Y116560D01*
Y115827D01*
X114979Y115464D01*
X112350D01*
X111882Y115371D01*
X111485Y115105D01*
X105932Y109553D01*
X101947D01*
Y102447D01*
X109053D01*
Y109212D01*
X112857Y113017D01*
X115164D01*
X115518Y112663D01*
Y112459D01*
X115518Y111959D01*
Y110900D01*
X118087D01*
X120655D01*
Y111959D01*
X120655Y112281D01*
X120655Y112781D01*
Y116021D01*
X118036D01*
X117724Y116334D01*
Y119776D01*
X121560D01*
X121827Y119276D01*
X121522Y118819D01*
X121359Y118000D01*
X121522Y117181D01*
X121986Y116486D01*
X122681Y116022D01*
X123500Y115859D01*
X123963Y115951D01*
X126345Y113569D01*
Y112459D01*
X131482D01*
Y113119D01*
X132168D01*
X132522Y112765D01*
X132522Y112253D01*
X132522Y112128D01*
Y110282D01*
X134500D01*
X136478D01*
Y112128D01*
X136478Y112253D01*
Y112628D01*
X136478Y112753D01*
Y117372D01*
X132522D01*
Y115362D01*
X131482D01*
Y116021D01*
X127065D01*
X125549Y117537D01*
X125641Y118000D01*
X125478Y118819D01*
X125173Y119276D01*
X125440Y119776D01*
X127979D01*
Y119219D01*
X131147D01*
Y122781D01*
X127979D01*
Y122223D01*
X118007D01*
X117724Y122507D01*
Y131000D01*
X117630Y131468D01*
X117365Y131865D01*
X115625Y133605D01*
X115228Y133871D01*
X114760Y133964D01*
X114155D01*
Y134521D01*
X109018D01*
X109008Y134802D01*
D02*
G37*
G36*
X184500Y125641D02*
X183681Y125478D01*
X182986Y125014D01*
X182522Y124319D01*
X182359Y123500D01*
X182451Y123037D01*
X178535Y119122D01*
X177340D01*
Y122100D01*
X172429D01*
X167518D01*
Y119122D01*
X166200D01*
Y122150D01*
X157200D01*
Y118850D01*
X161764D01*
X162964Y117650D01*
X162757Y117150D01*
X162100D01*
Y115500D01*
Y113850D01*
X165988D01*
X166022Y113681D01*
X166395Y113122D01*
X166222Y112677D01*
X166174Y112622D01*
X162500D01*
X162500Y112622D01*
X162071Y112536D01*
X161707Y112293D01*
X158707Y109293D01*
X158464Y108929D01*
X158378Y108500D01*
X158378Y108500D01*
Y106816D01*
X158205Y106744D01*
X157668Y106332D01*
X157275Y105819D01*
X157005Y105780D01*
X156995D01*
X156725Y105819D01*
X156332Y106332D01*
X155795Y106744D01*
X155171Y107002D01*
X154500Y107091D01*
X153830Y107002D01*
X153205Y106744D01*
X152668Y106332D01*
X152256Y105795D01*
X151998Y105171D01*
X151909Y104500D01*
X151998Y103830D01*
X152256Y103205D01*
X152668Y102668D01*
X153205Y102256D01*
X153830Y101998D01*
X154500Y101909D01*
X155171Y101998D01*
X155795Y102256D01*
X156332Y102668D01*
X156725Y103181D01*
X156995Y103220D01*
X157005D01*
X157275Y103181D01*
X157668Y102668D01*
X158205Y102256D01*
X158829Y101998D01*
X159500Y101909D01*
X160170Y101998D01*
X160795Y102256D01*
X161332Y102668D01*
X161725Y103181D01*
X161995Y103220D01*
X162005D01*
X162275Y103181D01*
X162668Y102668D01*
X163205Y102256D01*
X163830Y101998D01*
X164500Y101909D01*
X165171Y101998D01*
X165795Y102256D01*
X166332Y102668D01*
X166431Y102798D01*
X166931Y102628D01*
Y101932D01*
X169100D01*
Y104500D01*
Y107069D01*
X166931D01*
Y106372D01*
X166431Y106202D01*
X166332Y106332D01*
X165795Y106744D01*
X165622Y106816D01*
Y107535D01*
X166465Y108378D01*
X169000D01*
X169000Y108378D01*
X169429Y108464D01*
X169793Y108707D01*
X173293Y112207D01*
X173293Y112207D01*
X173536Y112571D01*
X173622Y113000D01*
X173622Y113000D01*
Y113114D01*
X174014Y113376D01*
X174478Y114071D01*
X174641Y114890D01*
X174478Y115709D01*
X174031Y116378D01*
X174061Y116521D01*
X174204Y116878D01*
X179000D01*
X179000Y116878D01*
X179429Y116964D01*
X179793Y117207D01*
X184037Y121451D01*
X184500Y121359D01*
X185319Y121522D01*
X186014Y121986D01*
X186478Y122681D01*
X186641Y123500D01*
X186478Y124319D01*
X186014Y125014D01*
X185319Y125478D01*
X184500Y125641D01*
D02*
G37*
G36*
X105900Y119531D02*
Y116400D01*
X109031D01*
X108961Y116927D01*
X108603Y117792D01*
X108034Y118534D01*
X107292Y119103D01*
X106427Y119461D01*
X105900Y119531D01*
D02*
G37*
G36*
X105100D02*
X104573Y119461D01*
X103708Y119103D01*
X102966Y118534D01*
X102397Y117792D01*
X102039Y116927D01*
X101969Y116400D01*
X105100D01*
Y119531D01*
D02*
G37*
G36*
X161300Y117150D02*
X157200D01*
Y115900D01*
X161300D01*
Y117150D01*
D02*
G37*
G36*
X146800D02*
X142700D01*
Y115900D01*
X146800D01*
Y117150D01*
D02*
G37*
G36*
X141900D02*
X137800D01*
Y115900D01*
X141900D01*
Y117150D01*
D02*
G37*
G36*
X161300Y115100D02*
X157200D01*
Y113850D01*
X161300D01*
Y115100D01*
D02*
G37*
G36*
X141900D02*
X137800D01*
Y113850D01*
X141900D01*
Y115100D01*
D02*
G37*
G36*
X109031Y115600D02*
X105900D01*
Y112469D01*
X106427Y112539D01*
X107292Y112897D01*
X108034Y113466D01*
X108603Y114208D01*
X108961Y115073D01*
X109031Y115600D01*
D02*
G37*
G36*
X105100D02*
X101969D01*
X102039Y115073D01*
X102397Y114208D01*
X102966Y113466D01*
X103708Y112897D01*
X104573Y112539D01*
X105100Y112469D01*
Y115600D01*
D02*
G37*
G36*
X195800Y111800D02*
X193200D01*
Y110600D01*
X195800D01*
Y111800D01*
D02*
G37*
G36*
X192400D02*
X189800D01*
Y110600D01*
X192400D01*
Y111800D01*
D02*
G37*
G36*
X195800Y109800D02*
X193200D01*
Y108600D01*
X195800D01*
Y109800D01*
D02*
G37*
G36*
X192400D02*
X189800D01*
Y108600D01*
X192400D01*
Y109800D01*
D02*
G37*
G36*
X187000Y111800D02*
X181000D01*
Y108600D01*
X187000D01*
Y111800D01*
D02*
G37*
G36*
X136478Y109482D02*
X134900D01*
Y107510D01*
X136478D01*
Y109482D01*
D02*
G37*
G36*
X134100D02*
X132522D01*
Y107510D01*
X134100D01*
Y109482D01*
D02*
G37*
G36*
X195800Y108100D02*
X193200D01*
Y106900D01*
X195800D01*
Y108100D01*
D02*
G37*
G36*
X192400D02*
X189800D01*
Y106900D01*
X192400D01*
Y108100D01*
D02*
G37*
G36*
X131482Y108541D02*
X126345D01*
Y104979D01*
X131482D01*
Y108541D01*
D02*
G37*
G36*
X112500Y110641D02*
X111681Y110478D01*
X110986Y110014D01*
X110522Y109319D01*
X110359Y108500D01*
X110522Y107681D01*
X110986Y106986D01*
X111681Y106522D01*
X112500Y106359D01*
X112963Y106451D01*
X113447Y105967D01*
X113447Y105967D01*
X113811Y105724D01*
X114240Y105638D01*
X115518D01*
Y104979D01*
X120655D01*
Y108219D01*
X120655Y108541D01*
X120655Y109041D01*
Y110100D01*
X118087D01*
X115518D01*
Y109041D01*
X115518Y108719D01*
X115518Y108235D01*
X115408Y108124D01*
X114775Y108148D01*
X114610Y108342D01*
X114641Y108500D01*
X114478Y109319D01*
X114014Y110014D01*
X113319Y110478D01*
X112500Y110641D01*
D02*
G37*
G36*
X172069Y107069D02*
X169900D01*
Y104900D01*
X172069D01*
Y107069D01*
D02*
G37*
G36*
X195800Y106100D02*
X193200D01*
Y104900D01*
X195800D01*
Y106100D01*
D02*
G37*
G36*
X192400D02*
X189800D01*
Y104900D01*
X192400D01*
Y106100D01*
D02*
G37*
G36*
X177000Y111641D02*
X176181Y111478D01*
X175486Y111014D01*
X175022Y110319D01*
X174859Y109500D01*
X175022Y108681D01*
X175486Y107986D01*
X176105Y107572D01*
X176110Y107264D01*
X176052Y107052D01*
X175681Y106978D01*
X174986Y106514D01*
X174522Y105819D01*
X174359Y105000D01*
X174522Y104181D01*
X174986Y103486D01*
X175681Y103022D01*
X176500Y102859D01*
X176843Y102927D01*
X177835Y101935D01*
X178232Y101670D01*
X178700Y101576D01*
X181000D01*
Y101200D01*
X187000D01*
Y104400D01*
X181000D01*
Y104024D01*
X179207D01*
X178573Y104657D01*
X178641Y105000D01*
X178501Y105706D01*
X178903Y105997D01*
X178913Y106001D01*
X179207Y105707D01*
X179571Y105464D01*
X180000Y105378D01*
X180000Y105378D01*
X181000D01*
Y104900D01*
X187000D01*
Y108100D01*
X181000D01*
Y107622D01*
X180465D01*
X179049Y109037D01*
X179141Y109500D01*
X178978Y110319D01*
X178514Y111014D01*
X177819Y111478D01*
X177000Y111641D01*
D02*
G37*
G36*
X213482Y126250D02*
X203660D01*
Y118750D01*
X207608D01*
Y105955D01*
X205575Y103922D01*
X195800D01*
Y104400D01*
X189800D01*
Y101200D01*
X195800D01*
Y101678D01*
X206040D01*
X206040Y101678D01*
X206469Y101764D01*
X206833Y102007D01*
X209523Y104697D01*
X209523Y104697D01*
X209766Y105061D01*
X209852Y105490D01*
Y118750D01*
X213482D01*
Y126250D01*
D02*
G37*
G36*
X172069Y104100D02*
X169900D01*
Y101932D01*
X172069D01*
Y104100D01*
D02*
G37*
%LPD*%
D14*
X134420Y160840D02*
Y163597D01*
X136923Y166100D01*
X137020D02*
X141950Y171030D01*
X136923Y166100D02*
X137020D01*
X141950Y171030D02*
Y178860D01*
X154490Y195500D02*
X159500D01*
X147760Y191090D02*
X158750D01*
X145730Y189060D02*
X147760Y191090D01*
X169450D02*
X170930Y192570D01*
X166350Y191090D02*
X169450D01*
X150925Y171950D02*
X174373D01*
X151588Y170350D02*
X173710D01*
X173780Y184630D02*
X174420D01*
X178200Y188500D02*
X178540Y188840D01*
X171510Y188490D02*
X171600Y188400D01*
X153200Y123500D02*
X153600Y123100D01*
X107030Y127312D02*
X108718Y129000D01*
X111587D01*
X192000Y174000D02*
X193000D01*
X186953Y171630D02*
X192823Y177500D01*
X195000D01*
X166350Y188490D02*
X171510D01*
X166530Y188440D02*
X166570Y188400D01*
X110260Y121740D02*
Y125260D01*
X192950Y194000D02*
X199000D01*
X142300Y116000D02*
X145000D01*
X141300Y125000D02*
X142300Y126000D01*
X207000Y194000D02*
X209000D01*
X172610Y185800D02*
X173780Y184630D01*
X166440Y185800D02*
X172610D01*
X139800Y160825D02*
X150925Y171950D01*
X141400Y160163D02*
X151588Y170350D01*
X146500Y163000D02*
X164677D01*
X143000Y159500D02*
X146500Y163000D01*
X141400Y157637D02*
Y160163D01*
X143000Y155000D02*
Y159500D01*
X129953Y146190D02*
X141400Y157637D01*
X151000Y115760D02*
Y118000D01*
X141000Y105760D02*
X151000Y115760D01*
X141000Y104500D02*
Y105760D01*
X164677Y163000D02*
X167546Y160131D01*
X154000Y143000D02*
Y153500D01*
X152400Y141337D02*
Y149100D01*
X148000Y153500D02*
X152400Y149100D01*
X154000Y143000D02*
X159400Y137600D01*
X152400Y141337D02*
X157737Y136000D01*
X127260Y114240D02*
X128913D01*
X123500Y118000D02*
X127260Y114240D01*
X159400Y137600D02*
X164277D01*
X190950Y186850D02*
Y189430D01*
X189800Y185700D02*
X190950Y186850D01*
X174373Y171950D02*
X177110Y169213D01*
X173710Y170350D02*
X175142Y168919D01*
X149000Y158500D02*
X154000Y153500D01*
X167546Y158383D02*
X168523Y157405D01*
X167546Y158383D02*
Y160131D01*
X166350Y185890D02*
X166440Y185800D01*
X190950Y189430D02*
Y194000D01*
X190360Y188840D02*
X190950Y189430D01*
X188066Y188840D02*
X190360D01*
X178500Y171500D02*
Y171640D01*
X177110Y166181D02*
Y169213D01*
X175142Y166181D02*
Y168919D01*
X186953Y166181D02*
Y171630D01*
X188921Y170921D02*
X192000Y174000D01*
X188921Y166181D02*
Y170921D01*
X138000Y150000D02*
X143000Y155000D01*
X153600Y115600D02*
Y123100D01*
X165000Y142000D02*
X166642Y143642D01*
X168350Y141673D02*
X170319D01*
X164277Y137600D02*
X168350Y141673D01*
X172560Y177580D02*
X178500Y171640D01*
X178540Y188840D02*
X182554D01*
X190950Y194000D02*
Y194500D01*
X208571Y122500D02*
X208730Y122341D01*
Y105490D02*
Y122341D01*
X206040Y102800D02*
X208730Y105490D01*
X192800Y102800D02*
X206040D01*
X172500Y113000D02*
Y114890D01*
X146000Y108000D02*
X153600Y115600D01*
X168523Y157405D02*
X169500D01*
X163400Y152400D02*
X164500Y153500D01*
X163400Y148923D02*
Y152400D01*
X164500Y146500D02*
Y147823D01*
X163400Y148923D02*
X164500Y147823D01*
X124047Y190453D02*
X125000Y189500D01*
X118142Y190858D02*
X123000Y186000D01*
X180000Y106500D02*
X184000D01*
X177000Y109500D02*
X180000Y106500D01*
X179000Y118000D02*
X184500Y123500D01*
X213500Y155256D02*
Y160032D01*
X208000Y155256D02*
Y160032D01*
X157737Y136000D02*
X172000D01*
X166000Y149500D02*
Y150000D01*
X168508Y145610D02*
X170319D01*
X167110Y147008D02*
X168508Y145610D01*
X164500Y153500D02*
Y159500D01*
X153200Y123500D02*
X153500D01*
X166000Y149500D02*
X167110Y148390D01*
X164500Y145469D02*
X166327Y143642D01*
X164500Y145469D02*
Y146500D01*
X146000Y104500D02*
Y108000D01*
X133740Y114240D02*
X134500Y115000D01*
X128913Y114240D02*
X133740D01*
X172000Y136000D02*
X173173Y137173D01*
X129000Y147500D02*
X139800Y158300D01*
Y160825D01*
X110260Y121740D02*
X113500Y118500D01*
X110260Y125260D02*
X111587D01*
X112500Y108500D02*
X114240Y106760D01*
X123000Y186000D02*
X129500D01*
X208000Y163969D02*
Y169000D01*
X207500Y169500D02*
X208000Y169000D01*
X147669Y140441D02*
X148100Y140010D01*
X213500Y163969D02*
Y169000D01*
X212059Y143941D02*
X212118Y144000D01*
X164200Y118000D02*
X179000D01*
X161700Y120500D02*
X164200Y118000D01*
X167110Y147008D02*
Y148390D01*
X166327Y143642D02*
X166642D01*
X170319D01*
X162500Y111500D02*
X167000D01*
X159500Y108500D02*
X162500Y111500D01*
X168000Y112500D02*
Y114500D01*
X167000Y111500D02*
X168000Y112500D01*
X159500Y104500D02*
Y108500D01*
X169000Y109500D02*
X172500Y113000D01*
X166000Y109500D02*
X169000D01*
X164500Y108000D02*
X166000Y109500D01*
X164500Y104500D02*
Y108000D01*
X114000Y147500D02*
X129000D01*
X112236Y145736D02*
X114000Y147500D01*
X114240Y106760D02*
X118087D01*
X173173Y137173D02*
Y138819D01*
X129953Y140441D02*
Y146190D01*
X118087Y110500D02*
X118705Y109882D01*
X118142Y190858D02*
Y195559D01*
X124047Y190453D02*
Y195559D01*
X112236Y140941D02*
Y145736D01*
Y140941D02*
X112500Y141205D01*
D16*
X172560Y177580D02*
D03*
X208702D02*
D03*
X208571Y122500D02*
D03*
X172429D02*
D03*
D17*
X188066Y188840D02*
D03*
X182554D02*
D03*
D18*
X206941Y134000D02*
D03*
X212059D02*
D03*
X207000Y144000D02*
D03*
X212118D02*
D03*
X206941Y139000D02*
D03*
X212059D02*
D03*
X159500Y195500D02*
D03*
X164618D02*
D03*
X129341Y131022D02*
D03*
X134459D02*
D03*
D19*
X208000Y149744D02*
D03*
Y155256D02*
D03*
X213500Y149744D02*
D03*
Y155256D02*
D03*
D20*
X208000Y160032D02*
D03*
Y163969D02*
D03*
X213500Y160032D02*
D03*
Y163969D02*
D03*
D21*
X184000Y102800D02*
D03*
Y106500D02*
D03*
Y110200D02*
D03*
X192800D02*
D03*
Y106500D02*
D03*
Y102800D02*
D03*
D22*
X134500Y115000D02*
D03*
Y109882D02*
D03*
X103670Y132379D02*
D03*
Y127261D02*
D03*
X107030Y132430D02*
D03*
Y127312D02*
D03*
D23*
X158750Y191090D02*
D03*
Y188490D02*
D03*
Y185890D02*
D03*
X166350D02*
D03*
Y188490D02*
D03*
Y191090D02*
D03*
D24*
X164500Y146500D02*
D03*
X160563D02*
D03*
X169063Y196000D02*
D03*
X173000D02*
D03*
X133500Y121000D02*
D03*
X129563D02*
D03*
D25*
X128913Y114240D02*
D03*
Y106760D02*
D03*
X118087D02*
D03*
Y110500D02*
D03*
Y114240D02*
D03*
X122413Y132740D02*
D03*
Y125260D02*
D03*
X111587D02*
D03*
Y129000D02*
D03*
Y132740D02*
D03*
D26*
X142300Y130500D02*
D03*
Y125500D02*
D03*
Y120500D02*
D03*
Y115500D02*
D03*
X161700D02*
D03*
Y120500D02*
D03*
Y125500D02*
D03*
Y130500D02*
D03*
D27*
X106331Y140441D02*
D03*
X112236D02*
D03*
X118142D02*
D03*
X124047D02*
D03*
X129953D02*
D03*
X135858D02*
D03*
X141764D02*
D03*
X147669D02*
D03*
Y195559D02*
D03*
X141764D02*
D03*
X135858D02*
D03*
X129953D02*
D03*
X124047D02*
D03*
X118142D02*
D03*
X112236D02*
D03*
X106331D02*
D03*
D28*
X194827Y166181D02*
D03*
X192858D02*
D03*
X190890D02*
D03*
X188921D02*
D03*
X186953D02*
D03*
X184984D02*
D03*
X183016D02*
D03*
X181047D02*
D03*
X179079D02*
D03*
X177110D02*
D03*
X175142D02*
D03*
X173173D02*
D03*
Y138819D02*
D03*
X175142D02*
D03*
X177110D02*
D03*
X179079D02*
D03*
X181047D02*
D03*
X183016D02*
D03*
X184984D02*
D03*
X186953D02*
D03*
X188921D02*
D03*
X190890D02*
D03*
X192858D02*
D03*
X194827D02*
D03*
D29*
X170319Y163327D02*
D03*
Y161358D02*
D03*
Y159390D02*
D03*
Y157421D02*
D03*
Y155453D02*
D03*
Y153484D02*
D03*
Y151516D02*
D03*
Y149547D02*
D03*
Y147579D02*
D03*
Y145610D02*
D03*
Y143642D02*
D03*
Y141673D02*
D03*
X197681D02*
D03*
Y143642D02*
D03*
Y145610D02*
D03*
Y147579D02*
D03*
Y149547D02*
D03*
Y151516D02*
D03*
Y153484D02*
D03*
Y155453D02*
D03*
Y157421D02*
D03*
Y159390D02*
D03*
Y161358D02*
D03*
Y163327D02*
D03*
D30*
X184000Y152500D02*
D03*
D31*
X190950Y194000D02*
D03*
X178050D02*
D03*
D56*
X153000Y186500D02*
X154900Y188400D01*
X163500Y181259D02*
Y182000D01*
X154900Y188400D02*
X158660D01*
X158750Y188490D01*
X155800Y182240D02*
X156130Y182570D01*
Y183270D01*
X158750Y185890D01*
X174487Y188382D02*
Y194513D01*
X173000Y196000D02*
X174487Y194513D01*
X166950Y181950D02*
X172642D01*
X166200Y181200D02*
X166950Y181950D01*
X166200Y179452D02*
Y181200D01*
X161064Y174316D02*
X166200Y179452D01*
X150886Y174316D02*
X161064D01*
X172662Y181930D02*
X178070D01*
X174487Y188382D02*
X177168Y185700D01*
X172642Y181950D02*
X172662Y181930D01*
X177168Y185700D02*
X179346D01*
X181950Y183095D01*
X162700Y182059D02*
X163500Y181259D01*
X185000Y177500D02*
Y178000D01*
X182000Y174500D02*
X186500D01*
X180150Y176350D02*
X182000Y174500D01*
X180150Y176350D02*
Y179850D01*
X194354Y170854D02*
X197700Y174200D01*
X193033Y170854D02*
X194354D01*
X190890Y168711D02*
X193033Y170854D01*
X195731Y169054D02*
X199500Y172823D01*
X193779Y169054D02*
X195731D01*
X192858Y168134D02*
X193779Y169054D01*
X192858Y166181D02*
Y168134D01*
X192200Y180200D02*
X196118D01*
X197700Y178618D01*
X186500Y182000D02*
X196864D01*
X199500Y179364D01*
X164559Y194056D02*
Y195776D01*
X167839D01*
X168563Y196500D01*
X160500Y143500D02*
Y146500D01*
X103370Y132428D02*
X103552Y132610D01*
X107030D01*
X162700Y192197D02*
X164559Y194056D01*
X162700Y182059D02*
Y192197D01*
X140070Y163500D02*
X150886Y174316D01*
X138000Y163500D02*
X140070D01*
X129341Y131022D02*
X133384Y135065D01*
X135114D01*
X136337Y136288D01*
X138324D01*
X127623Y132740D02*
X129341Y131022D01*
X122413Y132740D02*
X127623D01*
X111276Y132430D02*
X111587Y132740D01*
X107030Y132430D02*
X111276D01*
X150730Y128230D02*
X153000Y130500D01*
X150730Y125660D02*
Y128230D01*
X148160Y123090D02*
X150730Y125660D01*
X135590Y123090D02*
X148160D01*
X133500Y121000D02*
X135590Y123090D01*
X117500Y121000D02*
X129563D01*
X181950Y181050D02*
X185000Y178000D01*
X181950Y181050D02*
Y183095D01*
X178070Y181930D02*
X180150Y179850D01*
X186000Y181500D02*
X186500Y182000D01*
X190617Y178617D02*
X192200Y180200D01*
X158890Y188400D02*
X158930Y188440D01*
X159500Y142500D02*
X160500Y143500D01*
X105500Y106000D02*
Y107390D01*
X112350Y114240D01*
X186500Y174500D02*
X190617Y178617D01*
X200827Y163327D02*
X202500Y161654D01*
Y148500D02*
Y161654D01*
Y148500D02*
X207000Y144000D01*
X112350Y114240D02*
X118087D01*
X199500Y172823D02*
Y179364D01*
X166000Y125500D02*
X169500Y129000D01*
X161700Y125500D02*
X166000D01*
X154500Y104500D02*
X155000Y105000D01*
X153000Y130500D02*
X161700D01*
X145500Y133700D02*
Y135000D01*
Y135992D01*
X199500Y136500D02*
X202000Y134000D01*
X169500Y129000D02*
X181000D01*
X202000Y134000D02*
X206941D01*
X116500Y122000D02*
Y131000D01*
Y115827D02*
Y122000D01*
X117500Y121000D01*
X197681Y163327D02*
X200827D01*
X197700Y174200D02*
Y178618D01*
X190890Y166181D02*
Y168711D01*
X206941Y134000D02*
Y139000D01*
X207000Y139059D01*
Y144000D01*
X204673Y141673D02*
X207000Y144000D01*
X197681Y141673D02*
X204673D01*
X167500Y130500D02*
X170000Y133000D01*
X161700Y130500D02*
X167500D01*
X114760Y132740D02*
X116500Y131000D01*
X111587Y132740D02*
X114760D01*
X140212Y136288D02*
X141500Y135000D01*
X138324Y136288D02*
X141764Y139728D01*
X142300Y130500D02*
X145500Y133700D01*
X138324Y136288D02*
X140212D01*
X116500Y115827D02*
X118087Y114240D01*
X176500Y105000D02*
X178700Y102800D01*
X184000D01*
X141764Y139728D02*
Y140441D01*
D57*
X159500Y178795D02*
D03*
D58*
Y153205D02*
D03*
D59*
X146000Y104500D02*
D03*
X169500D02*
D03*
D60*
X141000D02*
D03*
X164500D02*
D03*
X159500D02*
D03*
X154500D02*
D03*
D61*
X198500Y192500D02*
D03*
X105500Y116000D02*
D03*
D62*
X208500Y192500D02*
D03*
D63*
X105500Y106000D02*
D03*
D64*
X141950Y178860D02*
D03*
X154490Y195500D02*
D03*
X153000Y186500D02*
D03*
X163500Y182000D02*
D03*
X156130Y182570D02*
D03*
X170930Y192570D02*
D03*
X174420Y184630D02*
D03*
X178200Y188500D02*
D03*
X171600Y188400D02*
D03*
X185000Y177500D02*
D03*
X193000Y174000D02*
D03*
X195000Y177500D02*
D03*
X145730Y189060D02*
D03*
X134420Y160840D02*
D03*
X148000Y153500D02*
D03*
X189800Y185700D02*
D03*
X186000Y181500D02*
D03*
X149000Y158500D02*
D03*
X178500Y171500D02*
D03*
X159500Y142500D02*
D03*
X165000Y142000D02*
D03*
X172500Y114890D02*
D03*
X125000Y189500D02*
D03*
X177000Y109500D02*
D03*
X184500Y123500D02*
D03*
X166000Y150000D02*
D03*
X164500Y159500D02*
D03*
X153500Y123500D02*
D03*
X151000Y118000D02*
D03*
X145500Y135000D02*
D03*
X199500Y136500D02*
D03*
X138000Y163500D02*
D03*
Y150000D02*
D03*
X112500Y108500D02*
D03*
X113500Y118500D02*
D03*
X123500Y118000D02*
D03*
X207500Y169500D02*
D03*
X213500Y169000D02*
D03*
X181000Y129000D02*
D03*
X170000Y133000D02*
D03*
X168000Y114500D02*
D03*
X141500Y135000D02*
D03*
X129500Y186000D02*
D03*
X176500Y105000D02*
D03*
M02*
