G04*
G04 #@! TF.GenerationSoftware,Altium Limited,Altium Designer,18.0.9 (584)*
G04*
G04 Layer_Color=8388736*
%FSLAX25Y25*%
%MOIN*%
G70*
G01*
G75*
%ADD32R,0.09213X0.06890*%
%ADD33R,0.02165X0.02165*%
%ADD34R,0.04134X0.03347*%
%ADD35R,0.04134X0.02953*%
%ADD36R,0.02953X0.02559*%
%ADD37R,0.05391X0.02591*%
%ADD38R,0.03347X0.04134*%
%ADD39R,0.04991X0.01991*%
%ADD40R,0.02559X0.02953*%
%ADD41R,0.04528X0.02953*%
%ADD42R,0.08391X0.02691*%
%ADD43R,0.04528X0.06496*%
%ADD44R,0.01693X0.03937*%
%ADD45R,0.03937X0.01693*%
%ADD46R,0.16732X0.16732*%
%ADD47R,0.04191X0.05391*%
%ADD48C,0.05740*%
%ADD49R,0.05740X0.05740*%
%ADD50R,0.04528X0.04528*%
%ADD51C,0.04528*%
%ADD52C,0.06496*%
%ADD53R,0.06496X0.06496*%
%ADD54R,0.06496X0.06496*%
%ADD55C,0.03591*%
D32*
X172560Y177580D02*
D03*
X208702D02*
D03*
X208571Y122500D02*
D03*
X172429D02*
D03*
D33*
X188066Y188840D02*
D03*
X182554D02*
D03*
D34*
X206941Y134000D02*
D03*
X212059D02*
D03*
X207000Y144000D02*
D03*
X212118D02*
D03*
X206941Y139000D02*
D03*
X212059D02*
D03*
X159500Y195500D02*
D03*
X164618D02*
D03*
X129341Y131022D02*
D03*
X134459D02*
D03*
D35*
X208000Y149744D02*
D03*
Y155256D02*
D03*
X213500Y149744D02*
D03*
Y155256D02*
D03*
D36*
X208000Y160032D02*
D03*
Y163969D02*
D03*
X213500Y160032D02*
D03*
Y163969D02*
D03*
D37*
X184000Y102800D02*
D03*
Y106500D02*
D03*
Y110200D02*
D03*
X192800D02*
D03*
Y106500D02*
D03*
Y102800D02*
D03*
D38*
X134500Y115000D02*
D03*
Y109882D02*
D03*
X103670Y132379D02*
D03*
Y127261D02*
D03*
X107030Y132430D02*
D03*
Y127312D02*
D03*
D39*
X158750Y191090D02*
D03*
Y188490D02*
D03*
Y185890D02*
D03*
X166350D02*
D03*
Y188490D02*
D03*
Y191090D02*
D03*
D40*
X164500Y146500D02*
D03*
X160563D02*
D03*
X169063Y196000D02*
D03*
X173000D02*
D03*
X133500Y121000D02*
D03*
X129563D02*
D03*
D41*
X128913Y114240D02*
D03*
Y106760D02*
D03*
X118087D02*
D03*
Y110500D02*
D03*
Y114240D02*
D03*
X122413Y132740D02*
D03*
Y125260D02*
D03*
X111587D02*
D03*
Y129000D02*
D03*
Y132740D02*
D03*
D42*
X142300Y130500D02*
D03*
Y125500D02*
D03*
Y120500D02*
D03*
Y115500D02*
D03*
X161700D02*
D03*
Y120500D02*
D03*
Y125500D02*
D03*
Y130500D02*
D03*
D43*
X106331Y140441D02*
D03*
X112236D02*
D03*
X118142D02*
D03*
X124047D02*
D03*
X129953D02*
D03*
X135858D02*
D03*
X141764D02*
D03*
X147669D02*
D03*
Y195559D02*
D03*
X141764D02*
D03*
X135858D02*
D03*
X129953D02*
D03*
X124047D02*
D03*
X118142D02*
D03*
X112236D02*
D03*
X106331D02*
D03*
D44*
X194827Y166181D02*
D03*
X192858D02*
D03*
X190890D02*
D03*
X188921D02*
D03*
X186953D02*
D03*
X184984D02*
D03*
X183016D02*
D03*
X181047D02*
D03*
X179079D02*
D03*
X177110D02*
D03*
X175142D02*
D03*
X173173D02*
D03*
Y138819D02*
D03*
X175142D02*
D03*
X177110D02*
D03*
X179079D02*
D03*
X181047D02*
D03*
X183016D02*
D03*
X184984D02*
D03*
X186953D02*
D03*
X188921D02*
D03*
X190890D02*
D03*
X192858D02*
D03*
X194827D02*
D03*
D45*
X170319Y163327D02*
D03*
Y161358D02*
D03*
Y159390D02*
D03*
Y157421D02*
D03*
Y155453D02*
D03*
Y153484D02*
D03*
Y151516D02*
D03*
Y149547D02*
D03*
Y147579D02*
D03*
Y145610D02*
D03*
Y143642D02*
D03*
Y141673D02*
D03*
X197681D02*
D03*
Y143642D02*
D03*
Y145610D02*
D03*
Y147579D02*
D03*
Y149547D02*
D03*
Y151516D02*
D03*
Y153484D02*
D03*
Y155453D02*
D03*
Y157421D02*
D03*
Y159390D02*
D03*
Y161358D02*
D03*
Y163327D02*
D03*
D46*
X184000Y152500D02*
D03*
D47*
X190950Y194000D02*
D03*
X178050D02*
D03*
D48*
X159500Y178795D02*
D03*
D49*
Y153205D02*
D03*
D50*
X146000Y104500D02*
D03*
X169500D02*
D03*
D51*
X141000D02*
D03*
X164500D02*
D03*
X159500D02*
D03*
X154500D02*
D03*
D52*
X198500Y192500D02*
D03*
X105500Y116000D02*
D03*
D53*
X208500Y192500D02*
D03*
D54*
X105500Y106000D02*
D03*
D55*
X141950Y178860D02*
D03*
X154490Y195500D02*
D03*
X153000Y186500D02*
D03*
X163500Y182000D02*
D03*
X156130Y182570D02*
D03*
X170930Y192570D02*
D03*
X174420Y184630D02*
D03*
X178200Y188500D02*
D03*
X171600Y188400D02*
D03*
X185000Y177500D02*
D03*
X193000Y174000D02*
D03*
X195000Y177500D02*
D03*
X145730Y189060D02*
D03*
X134420Y160840D02*
D03*
X148000Y153500D02*
D03*
X189800Y185700D02*
D03*
X186000Y181500D02*
D03*
X149000Y158500D02*
D03*
X178500Y171500D02*
D03*
X159500Y142500D02*
D03*
X165000Y142000D02*
D03*
X172500Y114890D02*
D03*
X125000Y189500D02*
D03*
X177000Y109500D02*
D03*
X184500Y123500D02*
D03*
X166000Y150000D02*
D03*
X164500Y159500D02*
D03*
X153500Y123500D02*
D03*
X151000Y118000D02*
D03*
X145500Y135000D02*
D03*
X199500Y136500D02*
D03*
X138000Y163500D02*
D03*
Y150000D02*
D03*
X112500Y108500D02*
D03*
X113500Y118500D02*
D03*
X123500Y118000D02*
D03*
X207500Y169500D02*
D03*
X213500Y169000D02*
D03*
X181000Y129000D02*
D03*
X170000Y133000D02*
D03*
X168000Y114500D02*
D03*
X141500Y135000D02*
D03*
X129500Y186000D02*
D03*
X176500Y105000D02*
D03*
M02*
