M48
;Layer_Color=9474304
;FILE_FORMAT=2:5
INCH,LZ
;TYPE=PLATED
T1F00S00C0.01500
T2F00S00C0.02362
T3F00S00C0.03150
T4F00S00C0.03543
%
T01
X01125Y01085
X01135Y01185
X01235Y0118
X0151
X01535Y01235
X01455Y0135
X01415
X0138Y015
X0148Y01535
X0166Y015
X0165Y0142
X01595Y01425
X017Y0133
X0181Y0129
X01845Y01235
X01725Y011489
X0168Y01145
X0177Y01095
X01765Y0105
X01995Y01365
X02075Y01695
X02135Y0169
X0193Y0174
X0195Y01775
X0185
X0186Y01815
X01898Y01857
X01782Y01885
X01716Y01884
X017093Y019257
X017442Y018463
X01635Y0182
X01645Y01595
X01785Y01715
X015613Y018257
X0153Y01865
X014573Y018906
X014195Y017886
X0138Y01635
X013442Y016084
X0149Y01585
X015449Y01955
X01295Y0186
X0125Y01895
T02
X0141Y01045
X0146
X01545
X01595
X01645
X01695
T03
X01595Y0153205
Y0178795
T04
X01055Y0106
Y0116
X01985Y01925
X02085
M30
