G04*
G04 #@! TF.GenerationSoftware,Altium Limited,Altium Designer,18.0.9 (584)*
G04*
G04 Layer_Color=65535*
%FSLAX25Y25*%
%MOIN*%
G70*
G01*
G75*
%ADD10C,0.00787*%
%ADD11C,0.00500*%
%ADD12C,0.00600*%
%ADD13C,0.00984*%
%ADD14C,0.01000*%
%ADD15C,0.00394*%
D10*
X215025Y177580D02*
G03*
X215025Y177580I-394J0D01*
G01*
X166894Y122500D02*
G03*
X166894Y122500I-394J0D01*
G01*
X215012Y133016D02*
Y134984D01*
X215071Y143016D02*
Y144984D01*
X215012Y138016D02*
Y139984D01*
X206622Y157126D02*
X209378D01*
X212122D02*
X214878D01*
X207213Y158260D02*
X208787D01*
X212713D02*
X214287D01*
X137457Y108043D02*
X149543D01*
Y100957D02*
Y108043D01*
X137457Y100957D02*
X149543D01*
X137457D02*
Y108043D01*
X133516Y106929D02*
X135484D01*
X166272Y145713D02*
Y147287D01*
X174772Y195213D02*
Y196787D01*
X156547Y194516D02*
Y196484D01*
X125469Y104398D02*
Y116602D01*
X121531Y104398D02*
Y116602D01*
Y104398D02*
X125469D01*
X121531Y116602D02*
X125469D01*
X150957Y108043D02*
X173043D01*
Y100957D02*
Y108043D01*
X150957Y100957D02*
X173043D01*
X150957D02*
Y108043D01*
X178791Y197346D02*
X190209D01*
X178791Y190654D02*
X190209D01*
X178791Y196559D02*
Y197346D01*
Y190654D02*
Y191441D01*
X190209Y196559D02*
Y197346D01*
Y190654D02*
Y191441D01*
X186469Y190654D02*
Y197346D01*
X193500Y187500D02*
X213500D01*
Y197500D01*
X193500D02*
X213500D01*
X193500Y187500D02*
Y197500D01*
X135272Y120213D02*
Y121787D01*
X137412Y130038D02*
Y132006D01*
X102686Y124308D02*
X104654D01*
X118969Y122898D02*
Y135102D01*
X115031Y122898D02*
Y135102D01*
Y122898D02*
X118969D01*
X115031Y135102D02*
X118969D01*
X106046Y124359D02*
X108014D01*
X100500Y101000D02*
Y121000D01*
Y101000D02*
X110500D01*
Y121000D01*
X100500D02*
X110500D01*
D11*
X183122Y166000D02*
G03*
X183122Y166000I-23622J0D01*
G01*
X202442Y170690D02*
Y184470D01*
X178820D02*
X202442D01*
X178820Y170690D02*
Y184470D01*
Y170690D02*
X202442D01*
X178689Y115610D02*
Y129390D01*
Y115610D02*
X202311D01*
Y129390D01*
X178689D02*
X202311D01*
X191809Y189840D02*
X190310D01*
Y189090D01*
X190560Y188840D01*
X191560D01*
X191809Y189090D01*
Y189840D01*
X190310Y188340D02*
Y187841D01*
Y188091D01*
X191809D01*
X191560Y188340D01*
X161760Y165150D02*
Y166650D01*
X161010D01*
X160760Y166400D01*
Y166150D01*
X161010Y165900D01*
X161760D01*
X161010D01*
X160760Y165650D01*
Y165400D01*
X161010Y165150D01*
X161760D01*
X160260D02*
Y166400D01*
X160011Y166650D01*
X159511D01*
X159261Y166400D01*
Y165150D01*
X158761D02*
X157761D01*
Y165400D01*
X158761Y166400D01*
Y166650D01*
X157761D01*
X157261Y165150D02*
X156262D01*
Y165400D01*
X157261Y166400D01*
Y166650D01*
X156262D01*
X154762Y165150D02*
X155762D01*
Y166650D01*
X154762D01*
X155762Y165900D02*
X155262D01*
X154262Y166650D02*
Y165150D01*
X153513D01*
X153263Y165400D01*
Y165900D01*
X153513Y166150D01*
X154262D01*
X153763D02*
X153263Y166650D01*
X138000Y110500D02*
Y109250D01*
X138250Y109000D01*
X138750D01*
X139000Y109250D01*
Y110500D01*
X139499Y109000D02*
Y110000D01*
X139999Y110500D01*
X140499Y110000D01*
Y109000D01*
Y109750D01*
X139499D01*
X140999Y109000D02*
Y110500D01*
X141749D01*
X141999Y110250D01*
Y109750D01*
X141749Y109500D01*
X140999D01*
X141499D02*
X141999Y109000D01*
X142499Y110500D02*
X143498D01*
X142998D01*
Y109000D01*
X213500Y115000D02*
Y113500D01*
X212750D01*
X212500Y113750D01*
Y114250D01*
X212750Y114500D01*
X213500D01*
X213000D02*
X212500Y115000D01*
X212000D02*
X211501D01*
X211751D01*
Y113500D01*
X212000D01*
X209751Y115000D02*
X210751D01*
X209751Y114000D01*
Y113750D01*
X210001Y113500D01*
X210501D01*
X210751Y113750D01*
X207500Y115000D02*
Y113500D01*
X206750D01*
X206500Y113750D01*
Y114250D01*
X206750Y114500D01*
X207500D01*
X207000D02*
X206500Y115000D01*
X206000D02*
X205501D01*
X205751D01*
Y113500D01*
X206000D01*
X204751Y115000D02*
X204251D01*
X204501D01*
Y113500D01*
X204751Y113750D01*
X158000Y145000D02*
X156500D01*
Y145750D01*
X156750Y146000D01*
X157250D01*
X157500Y145750D01*
Y145000D01*
Y145500D02*
X158000Y146000D01*
X158500Y146500D02*
Y146749D01*
X158250Y146999D01*
X157000D01*
X212500Y110501D02*
Y112000D01*
X211750D01*
X211500Y111750D01*
Y110750D01*
X211750Y110501D01*
X212500D01*
X211000Y110750D02*
X210751Y110501D01*
X210251D01*
X210001Y110750D01*
Y111000D01*
X210251Y111250D01*
X210501D01*
X210251D01*
X210001Y111500D01*
Y111750D01*
X210251Y112000D01*
X210751D01*
X211000Y111750D01*
X207500Y110501D02*
Y112000D01*
X206750D01*
X206500Y111750D01*
Y110750D01*
X206750Y110501D01*
X207500D01*
X205001Y112000D02*
X206000D01*
X205001Y111000D01*
Y110750D01*
X205251Y110501D01*
X205751D01*
X206000Y110750D01*
X211000Y108250D02*
X211250Y108001D01*
X211750D01*
X212000Y108250D01*
Y109250D01*
X211750Y109500D01*
X211250D01*
X211000Y109250D01*
X210501Y108001D02*
Y109500D01*
X209751D01*
X209501Y109250D01*
Y109000D01*
X209751Y108750D01*
X210501D01*
X209751D01*
X209501Y108500D01*
Y108250D01*
X209751Y108001D01*
X210501D01*
X211000Y105250D02*
X211250Y105000D01*
X211750D01*
X212000Y105250D01*
Y106250D01*
X211750Y106500D01*
X211250D01*
X211000Y106250D01*
X210501Y106500D02*
Y105500D01*
X210001Y105000D01*
X209501Y105500D01*
Y106500D01*
Y105750D01*
X210501D01*
X211000Y102250D02*
X211250Y102000D01*
X211750D01*
X212000Y102250D01*
Y103250D01*
X211750Y103500D01*
X211250D01*
X211000Y103250D01*
X210501Y103500D02*
X210001D01*
X210251D01*
Y102000D01*
X210501Y102250D01*
X209251Y103500D02*
X208751D01*
X209001D01*
Y102000D01*
X209251Y102250D01*
X135000Y104250D02*
X135250Y104000D01*
X135750D01*
X136000Y104250D01*
Y105250D01*
X135750Y105500D01*
X135250D01*
X135000Y105250D01*
X133751Y105500D02*
Y104000D01*
X134501Y104750D01*
X133501D01*
X124000Y112000D02*
X122750D01*
X122500Y111750D01*
Y111250D01*
X122750Y111000D01*
X124000D01*
X122500Y109751D02*
X124000D01*
X123250Y110501D01*
Y109501D01*
X156750Y184090D02*
Y182840D01*
X157000Y182590D01*
X157500D01*
X157750Y182840D01*
Y184090D01*
X158249D02*
X159249D01*
Y183840D01*
X158249Y182840D01*
Y182590D01*
X198500Y111000D02*
X197250D01*
X197000Y110750D01*
Y110250D01*
X197250Y110000D01*
X198500D01*
Y108501D02*
Y109501D01*
X197750D01*
X198000Y109001D01*
Y108751D01*
X197750Y108501D01*
X197250D01*
X197000Y108751D01*
Y109251D01*
X197250Y109501D01*
X198500Y131250D02*
X198250Y131500D01*
X197750D01*
X197500Y131250D01*
Y131000D01*
X197750Y130750D01*
X198250D01*
X198500Y130500D01*
Y130250D01*
X198250Y130000D01*
X197750D01*
X197500Y130250D01*
X199000Y131500D02*
Y130000D01*
X199499Y130500D01*
X199999Y130000D01*
Y131500D01*
X200499Y130000D02*
X200999D01*
X200749D01*
Y131500D01*
X200499Y131250D01*
X154999Y130000D02*
X153750D01*
X153500Y129750D01*
Y129250D01*
X153750Y129000D01*
X154999D01*
X153500Y127501D02*
Y128500D01*
X154500Y127501D01*
X154750D01*
X154999Y127751D01*
Y128251D01*
X154750Y128500D01*
X198000Y185250D02*
X198250Y185001D01*
X198750D01*
X199000Y185250D01*
Y185500D01*
X198750Y185750D01*
X198250D01*
X198000Y186000D01*
Y186250D01*
X198250Y186500D01*
X198750D01*
X199000Y186250D01*
X196751Y185001D02*
X197251D01*
X197501Y185250D01*
Y186250D01*
X197251Y186500D01*
X196751D01*
X196501Y186250D01*
Y185250D01*
X196751Y185001D01*
X196001D02*
Y186500D01*
X195001D01*
X131500Y118500D02*
Y117000D01*
X130750D01*
X130500Y117250D01*
Y117750D01*
X130750Y118000D01*
X131500D01*
X131000D02*
X130500Y118500D01*
X129001Y117000D02*
X130000D01*
Y117750D01*
X129501Y117500D01*
X129251D01*
X129001Y117750D01*
Y118250D01*
X129251Y118500D01*
X129751D01*
X130000Y118250D01*
X173531Y193500D02*
X175031D01*
Y192750D01*
X174781Y192500D01*
X174281D01*
X174031Y192750D01*
Y193500D01*
Y193000D02*
X173531Y192500D01*
Y191251D02*
X175031D01*
X174281Y192000D01*
Y191001D01*
X183501Y192500D02*
X185000D01*
Y193250D01*
X184750Y193500D01*
X183750D01*
X183501Y193250D01*
Y192500D01*
X185000Y194749D02*
X183501D01*
X184250Y194000D01*
Y194999D01*
X154750Y196000D02*
X154999Y196250D01*
Y196750D01*
X154750Y197000D01*
X153750D01*
X153500Y196750D01*
Y196250D01*
X153750Y196000D01*
X154999Y194501D02*
Y195501D01*
X154250D01*
X154500Y195001D01*
Y194751D01*
X154250Y194501D01*
X153750D01*
X153500Y194751D01*
Y195251D01*
X153750Y195501D01*
X166250Y110249D02*
X165750D01*
X166000D01*
Y109000D01*
X165750Y108750D01*
X165500D01*
X165250Y109000D01*
X166750Y110249D02*
X167749D01*
X167249D01*
Y108750D01*
X168249D02*
Y109750D01*
X168749Y110249D01*
X169249Y109750D01*
Y108750D01*
Y109500D01*
X168249D01*
X170748Y110000D02*
X170498Y110249D01*
X169999D01*
X169749Y110000D01*
Y109000D01*
X169999Y108750D01*
X170498D01*
X170748Y109000D01*
Y109500D01*
X170248D01*
X117499Y130500D02*
X116250D01*
X116000Y130250D01*
Y129750D01*
X116250Y129500D01*
X117499D01*
X117250Y129000D02*
X117499Y128751D01*
Y128251D01*
X117250Y128001D01*
X117000D01*
X116750Y128251D01*
Y128501D01*
Y128251D01*
X116500Y128001D01*
X116250D01*
X116000Y128251D01*
Y128751D01*
X116250Y129000D01*
X183000Y157500D02*
Y156250D01*
X183250Y156000D01*
X183750D01*
X184000Y156250D01*
Y157500D01*
X184500Y156000D02*
X184999D01*
X184749D01*
Y157500D01*
X184500Y157250D01*
X136750Y166641D02*
X136501Y166391D01*
Y165891D01*
X136750Y165641D01*
X137000D01*
X137250Y165891D01*
Y166391D01*
X137500Y166641D01*
X137750D01*
X138000Y166391D01*
Y165891D01*
X137750Y165641D01*
X138000Y167141D02*
X136501D01*
Y167890D01*
X136750Y168140D01*
X137250D01*
X137500Y167890D01*
Y167141D01*
X138000Y168640D02*
Y169140D01*
Y168890D01*
X136501D01*
X136750Y168640D01*
X138000Y169890D02*
X136501D01*
X137000Y170390D01*
X136501Y170889D01*
X138000D01*
X136501Y171389D02*
X138000D01*
Y172389D01*
X111500Y101000D02*
Y102499D01*
X112250D01*
X112500Y102250D01*
Y101750D01*
X112250Y101500D01*
X111500D01*
X112999Y102499D02*
X113499D01*
X113249D01*
Y101000D01*
X112999D01*
X113499D01*
X114249D02*
Y102499D01*
X115249Y101000D01*
Y102499D01*
X106530Y136061D02*
X106280Y136311D01*
X105780D01*
X105530Y136061D01*
Y135062D01*
X105780Y134812D01*
X106280D01*
X106530Y135062D01*
X107029Y136061D02*
X107279Y136311D01*
X107779D01*
X108029Y136061D01*
Y135811D01*
X107779Y135562D01*
X107529D01*
X107779D01*
X108029Y135312D01*
Y135062D01*
X107779Y134812D01*
X107279D01*
X107029Y135062D01*
X138650Y133022D02*
X138900Y133272D01*
Y133772D01*
X138650Y134022D01*
X137650D01*
X137400Y133772D01*
Y133272D01*
X137650Y133022D01*
X137400Y131523D02*
Y132522D01*
X138400Y131523D01*
X138650D01*
X138900Y131773D01*
Y132273D01*
X138650Y132522D01*
X103170Y136070D02*
X102920Y136319D01*
X102420D01*
X102170Y136070D01*
Y135070D01*
X102420Y134820D01*
X102920D01*
X103170Y135070D01*
X103670Y134820D02*
X104169D01*
X103919D01*
Y136319D01*
X103670Y136070D01*
D12*
X162241Y191693D02*
G03*
X162841Y191687I309J1010D01*
G01*
X143600Y112600D02*
X160400D01*
X143600Y133400D02*
X160400D01*
D13*
X118579Y117587D02*
G03*
X118579Y117587I-492J0D01*
G01*
X112079Y136087D02*
G03*
X112079Y136087I-492J0D01*
G01*
D14*
X199174Y166928D02*
G03*
X199174Y166928I-447J0D01*
G01*
D15*
X186491Y187270D02*
X187672D01*
X186491Y190420D02*
X187672D01*
Y187270D02*
Y190420D01*
M02*
